<?xml version="1.0" ?><svg xmlns="http://www.w3.org/2000/svg" xmlns:rdkit="http://www.rdkit.org/xml" xmlns:xlink="http://www.w3.org/1999/xlink" version="1.1" baseProfile="full" xml:space="preserve" width="400px" height="300px" viewBox="0 0 400 300">
<!-- END OF HEADER -->
<ellipse cx="78.1" cy="139.9" rx="19.0" ry="19.0" class="atom-0" style="opacity:0"/>
<ellipse cx="106.6" cy="189.5" rx="19.0" ry="19.0" class="atom-1" style="opacity:0"/>
<ellipse cx="135.2" cy="238.9" rx="19.0" ry="19.0" class="atom-2" style="opacity:0"/>
<ellipse cx="44.6" cy="221.9" rx="26.4" ry="19.0" class="atom-3" style="opacity:0"/>
<ellipse cx="156.1" cy="160.7" rx="19.0" ry="19.0" class="atom-4" style="opacity:0"/>
<ellipse cx="156.1" cy="103.6" rx="19.0" ry="19.0" class="atom-5" style="opacity:0"/>
<ellipse cx="99.6" cy="75.1" rx="19.0" ry="19.0" class="atom-6" style="opacity:0"/>
<ellipse cx="205.6" cy="75.0" rx="19.0" ry="19.0" class="atom-7" style="opacity:0"/>
<ellipse cx="255.1" cy="103.6" rx="19.0" ry="19.0" class="atom-8" style="opacity:0"/>
<ellipse cx="255.1" cy="160.7" rx="19.0" ry="19.0" class="atom-9" style="opacity:0"/>
<ellipse cx="205.6" cy="189.3" rx="19.0" ry="19.0" class="atom-10" style="opacity:0"/>
<ellipse cx="304.6" cy="189.5" rx="19.0" ry="19.0" class="atom-11" style="opacity:0"/>
<ellipse cx="341.3" cy="233.2" rx="19.0" ry="19.0" class="atom-12" style="opacity:0"/>
<ellipse cx="267.8" cy="233.2" rx="19.0" ry="19.0" class="atom-13" style="opacity:0"/>
<ellipse cx="362.0" cy="160.7" rx="19.9" ry="19.0" class="atom-14" style="opacity:0"/>
<ellipse cx="354.1" cy="103.6" rx="19.0" ry="19.0" class="atom-15" style="opacity:0"/>
<ellipse cx="304.6" cy="66.1" rx="19.0" ry="24.0" class="atom-16" style="opacity:0"/>
<path class="bond-0 atom-0 atom-1" d="M 87.7,148.0 L 96.2,162.6" style="fill:none;fill-rule:evenodd;stroke:#FF0000;stroke-width:2.0px;stroke-linecap:butt;stroke-linejoin:miter;stroke-opacity:1"/>
<path class="bond-0 atom-0 atom-1" d="M 96.2,162.6 L 104.6,177.2" style="fill:none;fill-rule:evenodd;stroke:#CCCC00;stroke-width:2.0px;stroke-linecap:butt;stroke-linejoin:miter;stroke-opacity:1"/>
<path class="bond-0 atom-0 atom-1" d="M 80.3,152.3 L 88.7,166.9" style="fill:none;fill-rule:evenodd;stroke:#FF0000;stroke-width:2.0px;stroke-linecap:butt;stroke-linejoin:miter;stroke-opacity:1"/>
<path class="bond-0 atom-0 atom-1" d="M 88.7,166.9 L 97.2,181.5" style="fill:none;fill-rule:evenodd;stroke:#CCCC00;stroke-width:2.0px;stroke-linecap:butt;stroke-linejoin:miter;stroke-opacity:1"/>
<path class="bond-1 atom-1 atom-2" d="M 108.9,201.8 L 117.3,216.3" style="fill:none;fill-rule:evenodd;stroke:#CCCC00;stroke-width:2.0px;stroke-linecap:butt;stroke-linejoin:miter;stroke-opacity:1"/>
<path class="bond-1 atom-1 atom-2" d="M 117.3,216.3 L 125.7,230.8" style="fill:none;fill-rule:evenodd;stroke:#FF0000;stroke-width:2.0px;stroke-linecap:butt;stroke-linejoin:miter;stroke-opacity:1"/>
<path class="bond-1 atom-1 atom-2" d="M 116.3,197.5 L 124.7,212.0" style="fill:none;fill-rule:evenodd;stroke:#CCCC00;stroke-width:2.0px;stroke-linecap:butt;stroke-linejoin:miter;stroke-opacity:1"/>
<path class="bond-1 atom-1 atom-2" d="M 124.7,212.0 L 133.1,226.5" style="fill:none;fill-rule:evenodd;stroke:#FF0000;stroke-width:2.0px;stroke-linecap:butt;stroke-linejoin:miter;stroke-opacity:1"/>
<path class="bond-2 atom-1 atom-3" d="M 99.6,193.4 L 82.4,203.3" style="fill:none;fill-rule:evenodd;stroke:#CCCC00;stroke-width:2.0px;stroke-linecap:butt;stroke-linejoin:miter;stroke-opacity:1"/>
<path class="bond-2 atom-1 atom-3" d="M 82.4,203.3 L 65.2,213.2" style="fill:none;fill-rule:evenodd;stroke:#0000FF;stroke-width:2.0px;stroke-linecap:butt;stroke-linejoin:miter;stroke-opacity:1"/>
<path class="bond-3 atom-1 atom-4" d="M 113.7,185.2 L 134.9,172.9" style="fill:none;fill-rule:evenodd;stroke:#CCCC00;stroke-width:2.0px;stroke-linecap:butt;stroke-linejoin:miter;stroke-opacity:1"/>
<path class="bond-3 atom-1 atom-4" d="M 134.9,172.9 L 156.1,160.7" style="fill:none;fill-rule:evenodd;stroke:#000000;stroke-width:2.0px;stroke-linecap:butt;stroke-linejoin:miter;stroke-opacity:1"/>
<path class="bond-4 atom-4 atom-5" d="M 156.1,160.7 L 156.1,103.6" style="fill:none;fill-rule:evenodd;stroke:#000000;stroke-width:2.0px;stroke-linecap:butt;stroke-linejoin:miter;stroke-opacity:1"/>
<path class="bond-4 atom-4 atom-5" d="M 164.7,155.8 L 164.7,108.5" style="fill:none;fill-rule:evenodd;stroke:#000000;stroke-width:2.0px;stroke-linecap:butt;stroke-linejoin:miter;stroke-opacity:1"/>
<path class="bond-5 atom-5 atom-6" d="M 156.1,103.6 L 132.8,90.1" style="fill:none;fill-rule:evenodd;stroke:#000000;stroke-width:2.0px;stroke-linecap:butt;stroke-linejoin:miter;stroke-opacity:1"/>
<path class="bond-5 atom-5 atom-6" d="M 132.8,90.1 L 109.6,76.7" style="fill:none;fill-rule:evenodd;stroke:#00CC00;stroke-width:2.0px;stroke-linecap:butt;stroke-linejoin:miter;stroke-opacity:1"/>
<path class="bond-6 atom-5 atom-7" d="M 156.1,103.6 L 205.6,75.0" style="fill:none;fill-rule:evenodd;stroke:#000000;stroke-width:2.0px;stroke-linecap:butt;stroke-linejoin:miter;stroke-opacity:1"/>
<path class="bond-7 atom-7 atom-8" d="M 205.6,75.0 L 255.1,103.6" style="fill:none;fill-rule:evenodd;stroke:#000000;stroke-width:2.0px;stroke-linecap:butt;stroke-linejoin:miter;stroke-opacity:1"/>
<path class="bond-7 atom-7 atom-8" d="M 205.6,84.9 L 246.5,108.5" style="fill:none;fill-rule:evenodd;stroke:#000000;stroke-width:2.0px;stroke-linecap:butt;stroke-linejoin:miter;stroke-opacity:1"/>
<path class="bond-8 atom-8 atom-9" d="M 255.1,103.6 L 255.1,160.7" style="fill:none;fill-rule:evenodd;stroke:#000000;stroke-width:2.0px;stroke-linecap:butt;stroke-linejoin:miter;stroke-opacity:1"/>
<path class="bond-9 atom-9 atom-10" d="M 255.1,160.7 L 205.6,189.3" style="fill:none;fill-rule:evenodd;stroke:#000000;stroke-width:2.0px;stroke-linecap:butt;stroke-linejoin:miter;stroke-opacity:1"/>
<path class="bond-9 atom-9 atom-10" d="M 246.5,155.8 L 205.6,179.4" style="fill:none;fill-rule:evenodd;stroke:#000000;stroke-width:2.0px;stroke-linecap:butt;stroke-linejoin:miter;stroke-opacity:1"/>
<path class="bond-10 atom-9 atom-11" d="M 255.1,160.7 L 276.3,172.9" style="fill:none;fill-rule:evenodd;stroke:#000000;stroke-width:2.0px;stroke-linecap:butt;stroke-linejoin:miter;stroke-opacity:1"/>
<path class="bond-10 atom-9 atom-11" d="M 276.3,172.9 L 297.5,185.2" style="fill:none;fill-rule:evenodd;stroke:#CCCC00;stroke-width:2.0px;stroke-linecap:butt;stroke-linejoin:miter;stroke-opacity:1"/>
<path class="bond-11 atom-11 atom-12" d="M 308.4,200.5 L 319.0,213.1" style="fill:none;fill-rule:evenodd;stroke:#CCCC00;stroke-width:2.0px;stroke-linecap:butt;stroke-linejoin:miter;stroke-opacity:1"/>
<path class="bond-11 atom-11 atom-12" d="M 319.0,213.1 L 329.6,225.7" style="fill:none;fill-rule:evenodd;stroke:#FF0000;stroke-width:2.0px;stroke-linecap:butt;stroke-linejoin:miter;stroke-opacity:1"/>
<path class="bond-11 atom-11 atom-12" d="M 314.9,195.0 L 325.5,207.6" style="fill:none;fill-rule:evenodd;stroke:#CCCC00;stroke-width:2.0px;stroke-linecap:butt;stroke-linejoin:miter;stroke-opacity:1"/>
<path class="bond-11 atom-11 atom-12" d="M 325.5,207.6 L 336.1,220.2" style="fill:none;fill-rule:evenodd;stroke:#FF0000;stroke-width:2.0px;stroke-linecap:butt;stroke-linejoin:miter;stroke-opacity:1"/>
<path class="bond-12 atom-11 atom-13" d="M 294.2,195.0 L 283.6,207.6" style="fill:none;fill-rule:evenodd;stroke:#CCCC00;stroke-width:2.0px;stroke-linecap:butt;stroke-linejoin:miter;stroke-opacity:1"/>
<path class="bond-12 atom-11 atom-13" d="M 283.6,207.6 L 273.0,220.2" style="fill:none;fill-rule:evenodd;stroke:#FF0000;stroke-width:2.0px;stroke-linecap:butt;stroke-linejoin:miter;stroke-opacity:1"/>
<path class="bond-12 atom-11 atom-13" d="M 300.8,200.5 L 290.2,213.1" style="fill:none;fill-rule:evenodd;stroke:#CCCC00;stroke-width:2.0px;stroke-linecap:butt;stroke-linejoin:miter;stroke-opacity:1"/>
<path class="bond-12 atom-11 atom-13" d="M 290.2,213.1 L 279.6,225.7" style="fill:none;fill-rule:evenodd;stroke:#FF0000;stroke-width:2.0px;stroke-linecap:butt;stroke-linejoin:miter;stroke-opacity:1"/>
<path class="bond-13 atom-11 atom-14" d="M 311.6,185.2 L 328.8,175.3" style="fill:none;fill-rule:evenodd;stroke:#CCCC00;stroke-width:2.0px;stroke-linecap:butt;stroke-linejoin:miter;stroke-opacity:1"/>
<path class="bond-13 atom-11 atom-14" d="M 328.8,175.3 L 346.0,165.3" style="fill:none;fill-rule:evenodd;stroke:#0000FF;stroke-width:2.0px;stroke-linecap:butt;stroke-linejoin:miter;stroke-opacity:1"/>
<path class="bond-14 atom-14 atom-15" d="M 354.1,150.7 L 354.1,127.1" style="fill:none;fill-rule:evenodd;stroke:#0000FF;stroke-width:2.0px;stroke-linecap:butt;stroke-linejoin:miter;stroke-opacity:1"/>
<path class="bond-14 atom-14 atom-15" d="M 354.1,127.1 L 354.1,103.6" style="fill:none;fill-rule:evenodd;stroke:#000000;stroke-width:2.0px;stroke-linecap:butt;stroke-linejoin:miter;stroke-opacity:1"/>
<path class="bond-15 atom-15 atom-16" d="M 354.1,103.6 L 333.3,91.6" style="fill:none;fill-rule:evenodd;stroke:#000000;stroke-width:2.0px;stroke-linecap:butt;stroke-linejoin:miter;stroke-opacity:1"/>
<path class="bond-15 atom-15 atom-16" d="M 333.3,91.6 L 312.6,79.6" style="fill:none;fill-rule:evenodd;stroke:#0000FF;stroke-width:2.0px;stroke-linecap:butt;stroke-linejoin:miter;stroke-opacity:1"/>
<path class="bond-16 atom-10 atom-4" d="M 205.6,189.3 L 156.1,160.7" style="fill:none;fill-rule:evenodd;stroke:#000000;stroke-width:2.0px;stroke-linecap:butt;stroke-linejoin:miter;stroke-opacity:1"/>
<path class="bond-17 atom-16 atom-8" d="M 296.6,79.6 L 275.8,91.6" style="fill:none;fill-rule:evenodd;stroke:#0000FF;stroke-width:2.0px;stroke-linecap:butt;stroke-linejoin:miter;stroke-opacity:1"/>
<path class="bond-17 atom-16 atom-8" d="M 275.8,91.6 L 255.1,103.6" style="fill:none;fill-rule:evenodd;stroke:#000000;stroke-width:2.0px;stroke-linecap:butt;stroke-linejoin:miter;stroke-opacity:1"/>
<path d="M 203.1,76.4 L 205.6,75.0 L 208.1,76.4" style="fill:none;stroke:#000000;stroke-width:2.0px;stroke-linecap:butt;stroke-linejoin:miter;stroke-opacity:1;"/>
<path d="M 208.1,187.8 L 205.6,189.3 L 203.1,187.8" style="fill:none;stroke:#000000;stroke-width:2.0px;stroke-linecap:butt;stroke-linejoin:miter;stroke-opacity:1;"/>
<path d="M 354.1,104.7 L 354.1,103.6 L 353.0,103.0" style="fill:none;stroke:#000000;stroke-width:2.0px;stroke-linecap:butt;stroke-linejoin:miter;stroke-opacity:1;"/>
<path class="atom-0" d="M 70.6 139.8 Q 70.6 136.0, 72.6 133.8 Q 74.5 131.6, 78.1 131.6 Q 81.7 131.6, 83.6 133.8 Q 85.5 136.0, 85.5 139.8 Q 85.5 143.8, 83.6 146.0 Q 81.6 148.2, 78.1 148.2 Q 74.5 148.2, 72.6 146.0 Q 70.6 143.8, 70.6 139.8 M 78.1 146.4 Q 80.5 146.4, 81.9 144.8 Q 83.2 143.1, 83.2 139.8 Q 83.2 136.7, 81.9 135.1 Q 80.5 133.4, 78.1 133.4 Q 75.6 133.4, 74.3 135.0 Q 72.9 136.6, 72.9 139.8 Q 72.9 143.1, 74.3 144.8 Q 75.6 146.4, 78.1 146.4 " fill="#FF0000"/>
<path class="atom-1" d="M 102.1 194.8 Q 102.2 194.9, 103.0 195.2 Q 103.8 195.5, 104.6 195.7 Q 105.4 195.9, 106.2 195.9 Q 107.8 195.9, 108.7 195.2 Q 109.6 194.4, 109.6 193.1 Q 109.6 192.2, 109.1 191.7 Q 108.7 191.2, 108.0 190.9 Q 107.3 190.6, 106.2 190.2 Q 104.7 189.8, 103.8 189.4 Q 103.0 189.0, 102.4 188.1 Q 101.8 187.2, 101.8 185.8 Q 101.8 183.7, 103.2 182.5 Q 104.6 181.2, 107.3 181.2 Q 109.2 181.2, 111.3 182.1 L 110.8 183.9 Q 108.8 183.1, 107.4 183.1 Q 105.8 183.1, 104.9 183.7 Q 104.1 184.4, 104.1 185.5 Q 104.1 186.4, 104.5 186.9 Q 105.0 187.4, 105.6 187.7 Q 106.3 188.0, 107.4 188.3 Q 108.8 188.8, 109.7 189.3 Q 110.6 189.7, 111.2 190.6 Q 111.8 191.6, 111.8 193.1 Q 111.8 195.4, 110.3 196.6 Q 108.8 197.8, 106.3 197.8 Q 104.9 197.8, 103.8 197.5 Q 102.7 197.2, 101.4 196.6 L 102.1 194.8 " fill="#CCCC00"/>
<path class="atom-2" d="M 127.8 238.8 Q 127.8 234.9, 129.7 232.7 Q 131.6 230.6, 135.2 230.6 Q 138.8 230.6, 140.7 232.7 Q 142.6 234.9, 142.6 238.8 Q 142.6 242.7, 140.7 245.0 Q 138.7 247.2, 135.2 247.2 Q 131.6 247.2, 129.7 245.0 Q 127.8 242.8, 127.8 238.8 M 135.2 245.4 Q 137.7 245.4, 139.0 243.7 Q 140.3 242.1, 140.3 238.8 Q 140.3 235.6, 139.0 234.0 Q 137.7 232.4, 135.2 232.4 Q 132.7 232.4, 131.4 234.0 Q 130.1 235.6, 130.1 238.8 Q 130.1 242.1, 131.4 243.7 Q 132.7 245.4, 135.2 245.4 " fill="#FF0000"/>
<path class="atom-3" d="M 25.9 209.8 L 28.1 209.8 L 28.1 216.6 L 36.4 216.6 L 36.4 209.8 L 38.6 209.8 L 38.6 225.9 L 36.4 225.9 L 36.4 218.5 L 28.1 218.5 L 28.1 225.9 L 25.9 225.9 L 25.9 209.8 " fill="#0000FF"/>
<path class="atom-3" d="M 41.8 225.4 Q 42.1 224.4, 43.1 223.8 Q 44.0 223.2, 45.3 223.2 Q 46.9 223.2, 47.8 224.1 Q 48.7 225.0, 48.7 226.5 Q 48.7 228.1, 47.6 229.6 Q 46.4 231.1, 44.0 232.8 L 48.9 232.8 L 48.9 234.0 L 41.7 234.0 L 41.7 233.0 Q 43.7 231.6, 44.9 230.5 Q 46.1 229.5, 46.7 228.5 Q 47.2 227.6, 47.2 226.6 Q 47.2 225.6, 46.7 225.0 Q 46.2 224.4, 45.3 224.4 Q 44.5 224.4, 43.9 224.8 Q 43.3 225.1, 42.9 225.9 L 41.8 225.4 " fill="#0000FF"/>
<path class="atom-3" d="M 53.6 209.8 L 58.9 218.3 Q 59.4 219.2, 60.2 220.7 Q 61.1 222.2, 61.1 222.3 L 61.1 209.8 L 63.3 209.8 L 63.3 225.9 L 61.1 225.9 L 55.4 216.6 Q 54.7 215.5, 54.0 214.2 Q 53.3 213.0, 53.1 212.6 L 53.1 225.9 L 51.0 225.9 L 51.0 209.8 L 53.6 209.8 " fill="#0000FF"/>
<path class="atom-6" d="M 91.5 75.6 Q 91.5 71.5, 93.3 69.4 Q 95.2 67.3, 98.8 67.3 Q 102.2 67.3, 103.9 69.7 L 102.4 70.9 Q 101.1 69.2, 98.8 69.2 Q 96.4 69.2, 95.1 70.8 Q 93.8 72.4, 93.8 75.6 Q 93.8 78.8, 95.1 80.4 Q 96.5 82.0, 99.1 82.0 Q 100.9 82.0, 102.9 81.0 L 103.6 82.7 Q 102.7 83.2, 101.5 83.6 Q 100.2 83.9, 98.8 83.9 Q 95.2 83.9, 93.3 81.7 Q 91.5 79.6, 91.5 75.6 " fill="#00CC00"/>
<path class="atom-6" d="M 105.6 66.3 L 107.7 66.3 L 107.7 83.7 L 105.6 83.7 L 105.6 66.3 " fill="#00CC00"/>
<path class="atom-11" d="M 300.0 194.8 Q 300.2 194.9, 300.9 195.2 Q 301.7 195.5, 302.5 195.7 Q 303.4 195.9, 304.2 195.9 Q 305.7 195.9, 306.6 195.2 Q 307.5 194.4, 307.5 193.1 Q 307.5 192.2, 307.0 191.7 Q 306.6 191.2, 305.9 190.9 Q 305.2 190.6, 304.1 190.2 Q 302.7 189.8, 301.8 189.4 Q 300.9 189.0, 300.3 188.1 Q 299.7 187.2, 299.7 185.8 Q 299.7 183.7, 301.1 182.5 Q 302.5 181.2, 305.2 181.2 Q 307.1 181.2, 309.2 182.1 L 308.7 183.9 Q 306.8 183.1, 305.3 183.1 Q 303.7 183.1, 302.9 183.7 Q 302.0 184.4, 302.0 185.5 Q 302.0 186.4, 302.4 186.9 Q 302.9 187.4, 303.5 187.7 Q 304.2 188.0, 305.3 188.3 Q 306.8 188.8, 307.6 189.3 Q 308.5 189.7, 309.1 190.6 Q 309.8 191.6, 309.8 193.1 Q 309.8 195.4, 308.3 196.6 Q 306.8 197.8, 304.3 197.8 Q 302.8 197.8, 301.7 197.5 Q 300.7 197.2, 299.4 196.6 L 300.0 194.8 " fill="#CCCC00"/>
<path class="atom-12" d="M 333.9 233.1 Q 333.9 229.2, 335.8 227.0 Q 337.7 224.9, 341.3 224.9 Q 344.9 224.9, 346.8 227.0 Q 348.7 229.2, 348.7 233.1 Q 348.7 237.0, 346.8 239.3 Q 344.8 241.5, 341.3 241.5 Q 337.7 241.5, 335.8 239.3 Q 333.9 237.0, 333.9 233.1 M 341.3 239.7 Q 343.8 239.7, 345.1 238.0 Q 346.4 236.3, 346.4 233.1 Q 346.4 229.9, 345.1 228.3 Q 343.8 226.7, 341.3 226.7 Q 338.8 226.7, 337.5 228.3 Q 336.2 229.9, 336.2 233.1 Q 336.2 236.4, 337.5 238.0 Q 338.8 239.7, 341.3 239.7 " fill="#FF0000"/>
<path class="atom-13" d="M 260.4 233.1 Q 260.4 229.2, 262.3 227.0 Q 264.3 224.9, 267.8 224.9 Q 271.4 224.9, 273.4 227.0 Q 275.3 229.2, 275.3 233.1 Q 275.3 237.0, 273.3 239.3 Q 271.4 241.5, 267.8 241.5 Q 264.3 241.5, 262.3 239.3 Q 260.4 237.0, 260.4 233.1 M 267.8 239.7 Q 270.3 239.7, 271.6 238.0 Q 273.0 236.3, 273.0 233.1 Q 273.0 229.9, 271.6 228.3 Q 270.3 226.7, 267.8 226.7 Q 265.4 226.7, 264.0 228.3 Q 262.7 229.9, 262.7 233.1 Q 262.7 236.4, 264.0 238.0 Q 265.4 239.7, 267.8 239.7 " fill="#FF0000"/>
<path class="atom-14" d="M 350.5 152.6 L 355.8 161.2 Q 356.3 162.0, 357.2 163.6 Q 358.0 165.1, 358.0 165.2 L 358.0 152.6 L 360.2 152.6 L 360.2 168.8 L 358.0 168.8 L 352.3 159.4 Q 351.6 158.3, 350.9 157.1 Q 350.2 155.8, 350.0 155.4 L 350.0 168.8 L 347.9 168.8 L 347.9 152.6 L 350.5 152.6 " fill="#0000FF"/>
<path class="atom-14" d="M 363.3 152.6 L 365.5 152.6 L 365.5 159.5 L 373.8 159.5 L 373.8 152.6 L 376.0 152.6 L 376.0 168.8 L 373.8 168.8 L 373.8 161.3 L 365.5 161.3 L 365.5 168.8 L 363.3 168.8 L 363.3 152.6 " fill="#0000FF"/>
<path class="atom-16" d="M 301.0 66.9 L 306.3 75.5 Q 306.8 76.3, 307.7 77.9 Q 308.5 79.4, 308.6 79.5 L 308.6 66.9 L 310.7 66.9 L 310.7 83.1 L 308.5 83.1 L 302.8 73.7 Q 302.1 72.6, 301.4 71.4 Q 300.7 70.1, 300.5 69.7 L 300.5 83.1 L 298.4 83.1 L 298.4 66.9 L 301.0 66.9 " fill="#0000FF"/>
<path class="atom-16" d="M 298.2 49.1 L 300.4 49.1 L 300.4 56.0 L 308.7 56.0 L 308.7 49.1 L 310.9 49.1 L 310.9 65.3 L 308.7 65.3 L 308.7 57.8 L 300.4 57.8 L 300.4 65.3 L 298.2 65.3 L 298.2 49.1 " fill="#0000FF"/>
</svg>