<?xml version="1.0" ?><svg xmlns="http://www.w3.org/2000/svg" xmlns:rdkit="http://www.rdkit.org/xml" xmlns:xlink="http://www.w3.org/1999/xlink" version="1.1" baseProfile="full" xml:space="preserve" width="400px" height="300px" viewBox="0 0 400 300">
<!-- END OF HEADER -->
<ellipse cx="172.4" cy="198.2" rx="18.4" ry="16.0" class="atom-0" style="opacity:0"/>
<ellipse cx="220.8" cy="174.1" rx="16.0" ry="16.0" class="atom-1" style="opacity:0"/>
<ellipse cx="262.5" cy="198.1" rx="16.0" ry="16.0" class="atom-2" style="opacity:0"/>
<ellipse cx="262.5" cy="246.3" rx="16.0" ry="16.0" class="atom-3" style="opacity:0"/>
<ellipse cx="304.2" cy="270.3" rx="16.0" ry="16.0" class="atom-4" style="opacity:0"/>
<ellipse cx="345.9" cy="246.3" rx="16.0" ry="16.0" class="atom-5" style="opacity:0"/>
<ellipse cx="345.9" cy="198.1" rx="16.0" ry="16.0" class="atom-6" style="opacity:0"/>
<ellipse cx="304.2" cy="174.1" rx="16.0" ry="16.0" class="atom-7" style="opacity:0"/>
<ellipse cx="304.2" cy="126.0" rx="16.0" ry="16.0" class="atom-8" style="opacity:0"/>
<ellipse cx="262.5" cy="101.9" rx="16.0" ry="16.0" class="atom-9" style="opacity:0"/>
<ellipse cx="262.5" cy="53.8" rx="16.0" ry="16.0" class="atom-10" style="opacity:0"/>
<ellipse cx="220.8" cy="125.9" rx="16.0" ry="16.0" class="atom-11" style="opacity:0"/>
<ellipse cx="179.2" cy="101.9" rx="16.0" ry="16.0" class="atom-12" style="opacity:0"/>
<ellipse cx="179.2" cy="53.7" rx="16.0" ry="16.0" class="atom-13" style="opacity:0"/>
<ellipse cx="137.5" cy="29.7" rx="16.0" ry="16.0" class="atom-14" style="opacity:0"/>
<ellipse cx="137.5" cy="125.9" rx="16.0" ry="16.0" class="atom-15" style="opacity:0"/>
<ellipse cx="95.8" cy="101.9" rx="16.0" ry="16.0" class="atom-16" style="opacity:0"/>
<ellipse cx="54.1" cy="125.9" rx="16.0" ry="16.0" class="atom-17" style="opacity:0"/>
<ellipse cx="54.1" cy="174.1" rx="16.0" ry="16.0" class="atom-18" style="opacity:0"/>
<ellipse cx="95.8" cy="198.1" rx="16.0" ry="16.0" class="atom-19" style="opacity:0"/>
<ellipse cx="137.5" cy="174.1" rx="16.0" ry="16.0" class="atom-20" style="opacity:0"/>
<path class="bond-0 atom-0 atom-1" d="M 187.0,193.6 L 203.9,183.8" style="fill:none;fill-rule:evenodd;stroke:#FF0000;stroke-width:2.0px;stroke-linecap:butt;stroke-linejoin:miter;stroke-opacity:1"/>
<path class="bond-0 atom-0 atom-1" d="M 203.9,183.8 L 220.8,174.1" style="fill:none;fill-rule:evenodd;stroke:#000000;stroke-width:2.0px;stroke-linecap:butt;stroke-linejoin:miter;stroke-opacity:1"/>
<path class="bond-1 atom-1 atom-2" d="M 220.8,174.1 L 262.5,198.1" style="fill:none;fill-rule:evenodd;stroke:#000000;stroke-width:2.0px;stroke-linecap:butt;stroke-linejoin:miter;stroke-opacity:1"/>
<path class="bond-2 atom-2 atom-3" d="M 262.5,198.1 L 262.5,246.3" style="fill:none;fill-rule:evenodd;stroke:#000000;stroke-width:2.0px;stroke-linecap:butt;stroke-linejoin:miter;stroke-opacity:1"/>
<path class="bond-2 atom-2 atom-3" d="M 269.7,202.3 L 269.7,242.1" style="fill:none;fill-rule:evenodd;stroke:#000000;stroke-width:2.0px;stroke-linecap:butt;stroke-linejoin:miter;stroke-opacity:1"/>
<path class="bond-3 atom-3 atom-4" d="M 262.5,246.3 L 304.2,270.3" style="fill:none;fill-rule:evenodd;stroke:#000000;stroke-width:2.0px;stroke-linecap:butt;stroke-linejoin:miter;stroke-opacity:1"/>
<path class="bond-4 atom-4 atom-5" d="M 304.2,270.3 L 345.9,246.3" style="fill:none;fill-rule:evenodd;stroke:#000000;stroke-width:2.0px;stroke-linecap:butt;stroke-linejoin:miter;stroke-opacity:1"/>
<path class="bond-4 atom-4 atom-5" d="M 304.2,262.0 L 338.7,242.1" style="fill:none;fill-rule:evenodd;stroke:#000000;stroke-width:2.0px;stroke-linecap:butt;stroke-linejoin:miter;stroke-opacity:1"/>
<path class="bond-5 atom-5 atom-6" d="M 345.9,246.3 L 345.9,198.1" style="fill:none;fill-rule:evenodd;stroke:#000000;stroke-width:2.0px;stroke-linecap:butt;stroke-linejoin:miter;stroke-opacity:1"/>
<path class="bond-6 atom-6 atom-7" d="M 345.9,198.1 L 304.2,174.1" style="fill:none;fill-rule:evenodd;stroke:#000000;stroke-width:2.0px;stroke-linecap:butt;stroke-linejoin:miter;stroke-opacity:1"/>
<path class="bond-6 atom-6 atom-7" d="M 338.7,202.3 L 304.2,182.4" style="fill:none;fill-rule:evenodd;stroke:#000000;stroke-width:2.0px;stroke-linecap:butt;stroke-linejoin:miter;stroke-opacity:1"/>
<path class="bond-7 atom-7 atom-8" d="M 304.2,174.1 L 304.2,154.3" style="fill:none;fill-rule:evenodd;stroke:#000000;stroke-width:2.0px;stroke-linecap:butt;stroke-linejoin:miter;stroke-opacity:1"/>
<path class="bond-7 atom-7 atom-8" d="M 304.2,154.3 L 304.2,134.6" style="fill:none;fill-rule:evenodd;stroke:#FF0000;stroke-width:2.0px;stroke-linecap:butt;stroke-linejoin:miter;stroke-opacity:1"/>
<path class="bond-8 atom-8 atom-9" d="M 296.4,121.4 L 279.4,111.6" style="fill:none;fill-rule:evenodd;stroke:#FF0000;stroke-width:2.0px;stroke-linecap:butt;stroke-linejoin:miter;stroke-opacity:1"/>
<path class="bond-8 atom-8 atom-9" d="M 279.4,111.6 L 262.5,101.9" style="fill:none;fill-rule:evenodd;stroke:#000000;stroke-width:2.0px;stroke-linecap:butt;stroke-linejoin:miter;stroke-opacity:1"/>
<path class="bond-9 atom-9 atom-10" d="M 266.1,104.0 L 266.1,83.2" style="fill:none;fill-rule:evenodd;stroke:#000000;stroke-width:2.0px;stroke-linecap:butt;stroke-linejoin:miter;stroke-opacity:1"/>
<path class="bond-9 atom-9 atom-10" d="M 266.1,83.2 L 266.1,62.4" style="fill:none;fill-rule:evenodd;stroke:#FF0000;stroke-width:2.0px;stroke-linecap:butt;stroke-linejoin:miter;stroke-opacity:1"/>
<path class="bond-9 atom-9 atom-10" d="M 258.9,104.0 L 258.9,83.2" style="fill:none;fill-rule:evenodd;stroke:#000000;stroke-width:2.0px;stroke-linecap:butt;stroke-linejoin:miter;stroke-opacity:1"/>
<path class="bond-9 atom-9 atom-10" d="M 258.9,83.2 L 258.9,62.4" style="fill:none;fill-rule:evenodd;stroke:#FF0000;stroke-width:2.0px;stroke-linecap:butt;stroke-linejoin:miter;stroke-opacity:1"/>
<path class="bond-10 atom-9 atom-11" d="M 262.5,101.9 L 220.8,125.9" style="fill:none;fill-rule:evenodd;stroke:#000000;stroke-width:2.0px;stroke-linecap:butt;stroke-linejoin:miter;stroke-opacity:1"/>
<path class="bond-11 atom-11 atom-12" d="M 220.8,125.9 L 179.2,101.9" style="fill:none;fill-rule:evenodd;stroke:#000000;stroke-width:2.0px;stroke-linecap:butt;stroke-linejoin:miter;stroke-opacity:1"/>
<path class="bond-12 atom-12 atom-13" d="M 179.2,101.9 L 179.2,53.7" style="fill:none;fill-rule:evenodd;stroke:#000000;stroke-width:2.0px;stroke-linecap:butt;stroke-linejoin:miter;stroke-opacity:1"/>
<path class="bond-13 atom-13 atom-14" d="M 179.2,53.7 L 137.5,29.7" style="fill:none;fill-rule:evenodd;stroke:#000000;stroke-width:2.0px;stroke-linecap:butt;stroke-linejoin:miter;stroke-opacity:1"/>
<path class="bond-14 atom-12 atom-15" d="M 179.2,101.9 L 137.5,125.9" style="fill:none;fill-rule:evenodd;stroke:#000000;stroke-width:2.0px;stroke-linecap:butt;stroke-linejoin:miter;stroke-opacity:1"/>
<path class="bond-15 atom-15 atom-16" d="M 137.5,125.9 L 95.8,101.9" style="fill:none;fill-rule:evenodd;stroke:#000000;stroke-width:2.0px;stroke-linecap:butt;stroke-linejoin:miter;stroke-opacity:1"/>
<path class="bond-15 atom-15 atom-16" d="M 130.3,130.1 L 95.8,110.2" style="fill:none;fill-rule:evenodd;stroke:#000000;stroke-width:2.0px;stroke-linecap:butt;stroke-linejoin:miter;stroke-opacity:1"/>
<path class="bond-16 atom-16 atom-17" d="M 95.8,101.9 L 54.1,125.9" style="fill:none;fill-rule:evenodd;stroke:#000000;stroke-width:2.0px;stroke-linecap:butt;stroke-linejoin:miter;stroke-opacity:1"/>
<path class="bond-17 atom-17 atom-18" d="M 54.1,125.9 L 54.1,174.1" style="fill:none;fill-rule:evenodd;stroke:#000000;stroke-width:2.0px;stroke-linecap:butt;stroke-linejoin:miter;stroke-opacity:1"/>
<path class="bond-17 atom-17 atom-18" d="M 61.3,130.1 L 61.3,169.9" style="fill:none;fill-rule:evenodd;stroke:#000000;stroke-width:2.0px;stroke-linecap:butt;stroke-linejoin:miter;stroke-opacity:1"/>
<path class="bond-18 atom-18 atom-19" d="M 54.1,174.1 L 95.8,198.1" style="fill:none;fill-rule:evenodd;stroke:#000000;stroke-width:2.0px;stroke-linecap:butt;stroke-linejoin:miter;stroke-opacity:1"/>
<path class="bond-19 atom-19 atom-20" d="M 95.8,198.1 L 137.5,174.1" style="fill:none;fill-rule:evenodd;stroke:#000000;stroke-width:2.0px;stroke-linecap:butt;stroke-linejoin:miter;stroke-opacity:1"/>
<path class="bond-19 atom-19 atom-20" d="M 95.8,189.8 L 130.3,169.9" style="fill:none;fill-rule:evenodd;stroke:#000000;stroke-width:2.0px;stroke-linecap:butt;stroke-linejoin:miter;stroke-opacity:1"/>
<path class="bond-20 atom-1 atom-11" d="M 220.8,174.1 L 220.8,125.9" style="fill:none;fill-rule:evenodd;stroke:#000000;stroke-width:2.0px;stroke-linecap:butt;stroke-linejoin:miter;stroke-opacity:1"/>
<path class="bond-20 atom-1 atom-11" d="M 228.1,169.9 L 228.1,130.1" style="fill:none;fill-rule:evenodd;stroke:#000000;stroke-width:2.0px;stroke-linecap:butt;stroke-linejoin:miter;stroke-opacity:1"/>
<path class="bond-21 atom-20 atom-15" d="M 137.5,174.1 L 137.5,125.9" style="fill:none;fill-rule:evenodd;stroke:#000000;stroke-width:2.0px;stroke-linecap:butt;stroke-linejoin:miter;stroke-opacity:1"/>
<path class="bond-22 atom-7 atom-2" d="M 304.2,174.1 L 262.5,198.1" style="fill:none;fill-rule:evenodd;stroke:#000000;stroke-width:2.0px;stroke-linecap:butt;stroke-linejoin:miter;stroke-opacity:1"/>
<path d="M 262.5,243.9 L 262.5,246.3 L 264.6,247.5" style="fill:none;stroke:#000000;stroke-width:2.0px;stroke-linecap:butt;stroke-linejoin:miter;stroke-opacity:1;"/>
<path d="M 302.1,269.1 L 304.2,270.3 L 306.3,269.1" style="fill:none;stroke:#000000;stroke-width:2.0px;stroke-linecap:butt;stroke-linejoin:miter;stroke-opacity:1;"/>
<path d="M 343.8,247.5 L 345.9,246.3 L 345.9,243.9" style="fill:none;stroke:#000000;stroke-width:2.0px;stroke-linecap:butt;stroke-linejoin:miter;stroke-opacity:1;"/>
<path d="M 345.9,200.5 L 345.9,198.1 L 343.8,196.9" style="fill:none;stroke:#000000;stroke-width:2.0px;stroke-linecap:butt;stroke-linejoin:miter;stroke-opacity:1;"/>
<path d="M 263.4,102.4 L 262.5,101.9 L 260.4,103.1" style="fill:none;stroke:#000000;stroke-width:2.0px;stroke-linecap:butt;stroke-linejoin:miter;stroke-opacity:1;"/>
<path d="M 179.2,56.1 L 179.2,53.7 L 177.1,52.5" style="fill:none;stroke:#000000;stroke-width:2.0px;stroke-linecap:butt;stroke-linejoin:miter;stroke-opacity:1;"/>
<path d="M 97.9,103.1 L 95.8,101.9 L 93.7,103.1" style="fill:none;stroke:#000000;stroke-width:2.0px;stroke-linecap:butt;stroke-linejoin:miter;stroke-opacity:1;"/>
<path d="M 56.2,124.7 L 54.1,125.9 L 54.1,128.3" style="fill:none;stroke:#000000;stroke-width:2.0px;stroke-linecap:butt;stroke-linejoin:miter;stroke-opacity:1;"/>
<path d="M 54.1,171.7 L 54.1,174.1 L 56.2,175.3" style="fill:none;stroke:#000000;stroke-width:2.0px;stroke-linecap:butt;stroke-linejoin:miter;stroke-opacity:1;"/>
<path d="M 93.7,196.9 L 95.8,198.1 L 97.9,196.9" style="fill:none;stroke:#000000;stroke-width:2.0px;stroke-linecap:butt;stroke-linejoin:miter;stroke-opacity:1;"/>
<path d="M 135.4,175.3 L 137.5,174.1 L 137.5,171.7" style="fill:none;stroke:#000000;stroke-width:2.0px;stroke-linecap:butt;stroke-linejoin:miter;stroke-opacity:1;"/>
<path class="atom-0" d="M 159.4 191.4 L 161.3 191.4 L 161.3 197.2 L 168.3 197.2 L 168.3 191.4 L 170.1 191.4 L 170.1 205.0 L 168.3 205.0 L 168.3 198.7 L 161.3 198.7 L 161.3 205.0 L 159.4 205.0 L 159.4 191.4 " fill="#FF0000"/>
<path class="atom-0" d="M 172.9 198.2 Q 172.9 194.9, 174.5 193.1 Q 176.1 191.2, 179.2 191.2 Q 182.2 191.2, 183.8 193.1 Q 185.4 194.9, 185.4 198.2 Q 185.4 201.5, 183.8 203.4 Q 182.1 205.2, 179.2 205.2 Q 176.2 205.2, 174.5 203.4 Q 172.9 201.5, 172.9 198.2 M 179.2 203.7 Q 181.2 203.7, 182.4 202.3 Q 183.5 200.9, 183.5 198.2 Q 183.5 195.5, 182.4 194.1 Q 181.2 192.8, 179.2 192.8 Q 177.1 192.8, 175.9 194.1 Q 174.8 195.5, 174.8 198.2 Q 174.8 200.9, 175.9 202.3 Q 177.1 203.7, 179.2 203.7 " fill="#FF0000"/>
<path class="atom-8" d="M 297.9 126.0 Q 297.9 122.7, 299.6 120.9 Q 301.2 119.0, 304.2 119.0 Q 307.2 119.0, 308.8 120.9 Q 310.5 122.7, 310.5 126.0 Q 310.5 129.3, 308.8 131.2 Q 307.2 133.0, 304.2 133.0 Q 301.2 133.0, 299.6 131.2 Q 297.9 129.3, 297.9 126.0 M 304.2 131.5 Q 306.3 131.5, 307.4 130.1 Q 308.5 128.7, 308.5 126.0 Q 308.5 123.3, 307.4 122.0 Q 306.3 120.6, 304.2 120.6 Q 302.1 120.6, 301.0 121.9 Q 299.9 123.3, 299.9 126.0 Q 299.9 128.7, 301.0 130.1 Q 302.1 131.5, 304.2 131.5 " fill="#FF0000"/>
<path class="atom-10" d="M 256.3 53.8 Q 256.3 50.5, 257.9 48.7 Q 259.5 46.9, 262.5 46.9 Q 265.5 46.9, 267.2 48.7 Q 268.8 50.5, 268.8 53.8 Q 268.8 57.1, 267.1 59.0 Q 265.5 60.8, 262.5 60.8 Q 259.5 60.8, 257.9 59.0 Q 256.3 57.1, 256.3 53.8 M 262.5 59.3 Q 264.6 59.3, 265.7 57.9 Q 266.9 56.5, 266.9 53.8 Q 266.9 51.1, 265.7 49.8 Q 264.6 48.4, 262.5 48.4 Q 260.4 48.4, 259.3 49.7 Q 258.2 51.1, 258.2 53.8 Q 258.2 56.5, 259.3 57.9 Q 260.4 59.3, 262.5 59.3 " fill="#FF0000"/>
</svg>