<?xml version="1.0" ?><svg xmlns="http://www.w3.org/2000/svg" xmlns:rdkit="http://www.rdkit.org/xml" xmlns:xlink="http://www.w3.org/1999/xlink" version="1.1" baseProfile="full" xml:space="preserve" width="400px" height="300px" viewBox="0 0 400 300">
<!-- END OF HEADER -->
<ellipse cx="28.3" cy="157.6" rx="10.2" ry="10.2" class="atom-0" style="opacity:0"/>
<ellipse cx="54.8" cy="142.4" rx="10.2" ry="10.2" class="atom-1" style="opacity:0"/>
<ellipse cx="54.8" cy="111.9" rx="10.2" ry="10.2" class="atom-2" style="opacity:0"/>
<ellipse cx="81.2" cy="96.6" rx="10.2" ry="10.2" class="atom-3" style="opacity:0"/>
<ellipse cx="107.6" cy="111.9" rx="10.2" ry="10.2" class="atom-4" style="opacity:0"/>
<ellipse cx="134.0" cy="96.6" rx="10.2" ry="10.2" class="atom-5" style="opacity:0"/>
<ellipse cx="160.4" cy="111.9" rx="10.2" ry="10.2" class="atom-6" style="opacity:0"/>
<ellipse cx="160.4" cy="142.4" rx="10.2" ry="10.2" class="atom-7" style="opacity:0"/>
<ellipse cx="186.8" cy="157.6" rx="10.2" ry="10.2" class="atom-8" style="opacity:0"/>
<ellipse cx="213.2" cy="142.4" rx="10.2" ry="10.2" class="atom-9" style="opacity:0"/>
<ellipse cx="213.2" cy="111.9" rx="10.2" ry="10.2" class="atom-10" style="opacity:0"/>
<ellipse cx="186.8" cy="96.6" rx="10.2" ry="10.2" class="atom-11" style="opacity:0"/>
<ellipse cx="239.6" cy="157.6" rx="10.2" ry="10.2" class="atom-12" style="opacity:0"/>
<ellipse cx="266.0" cy="142.4" rx="10.2" ry="10.2" class="atom-13" style="opacity:0"/>
<ellipse cx="235.4" cy="188.1" rx="10.6" ry="10.2" class="atom-14" style="opacity:0"/>
<ellipse cx="266.0" cy="203.4" rx="10.2" ry="10.2" class="atom-15" style="opacity:0"/>
<ellipse cx="266.0" cy="233.9" rx="10.2" ry="10.2" class="atom-16" style="opacity:0"/>
<ellipse cx="292.4" cy="249.1" rx="10.2" ry="10.2" class="atom-17" style="opacity:0"/>
<ellipse cx="318.8" cy="233.9" rx="10.2" ry="10.2" class="atom-18" style="opacity:0"/>
<ellipse cx="345.2" cy="249.1" rx="10.2" ry="10.2" class="atom-19" style="opacity:0"/>
<ellipse cx="318.8" cy="203.4" rx="10.2" ry="10.2" class="atom-20" style="opacity:0"/>
<ellipse cx="349.5" cy="188.1" rx="10.6" ry="10.2" class="atom-21" style="opacity:0"/>
<ellipse cx="345.2" cy="157.6" rx="10.2" ry="10.2" class="atom-22" style="opacity:0"/>
<ellipse cx="371.7" cy="142.4" rx="10.2" ry="10.2" class="atom-23" style="opacity:0"/>
<ellipse cx="371.7" cy="111.9" rx="10.2" ry="10.2" class="atom-24" style="opacity:0"/>
<ellipse cx="345.2" cy="96.6" rx="10.2" ry="10.2" class="atom-25" style="opacity:0"/>
<ellipse cx="318.8" cy="111.9" rx="10.2" ry="10.2" class="atom-26" style="opacity:0"/>
<ellipse cx="318.8" cy="142.4" rx="10.2" ry="10.2" class="atom-27" style="opacity:0"/>
<ellipse cx="292.4" cy="96.6" rx="10.2" ry="10.2" class="atom-28" style="opacity:0"/>
<ellipse cx="292.4" cy="66.1" rx="10.2" ry="10.2" class="atom-29" style="opacity:0"/>
<ellipse cx="266.0" cy="50.9" rx="10.2" ry="10.2" class="atom-30" style="opacity:0"/>
<ellipse cx="239.6" cy="66.1" rx="10.2" ry="10.2" class="atom-31" style="opacity:0"/>
<ellipse cx="239.6" cy="96.6" rx="10.2" ry="10.2" class="atom-32" style="opacity:0"/>
<ellipse cx="266.0" cy="111.9" rx="10.2" ry="10.2" class="atom-33" style="opacity:0"/>
<ellipse cx="292.4" cy="188.1" rx="10.2" ry="10.2" class="atom-34" style="opacity:0"/>
<ellipse cx="107.6" cy="142.4" rx="10.2" ry="10.2" class="atom-35" style="opacity:0"/>
<ellipse cx="81.2" cy="157.6" rx="10.2" ry="10.2" class="atom-36" style="opacity:0"/>
<path class="bond-0 atom-0 atom-1" d="M 28.3,157.6 L 39.4,151.2" style="fill:none;fill-rule:evenodd;stroke:#000000;stroke-width:2.0px;stroke-linecap:butt;stroke-linejoin:miter;stroke-opacity:1"/>
<path class="bond-0 atom-0 atom-1" d="M 39.4,151.2 L 50.5,144.8" style="fill:none;fill-rule:evenodd;stroke:#0000FF;stroke-width:2.0px;stroke-linecap:butt;stroke-linejoin:miter;stroke-opacity:1"/>
<path class="bond-1 atom-1 atom-2" d="M 54.8,137.1 L 54.8,124.5" style="fill:none;fill-rule:evenodd;stroke:#0000FF;stroke-width:2.0px;stroke-linecap:butt;stroke-linejoin:miter;stroke-opacity:1"/>
<path class="bond-1 atom-1 atom-2" d="M 54.8,124.5 L 54.8,111.9" style="fill:none;fill-rule:evenodd;stroke:#000000;stroke-width:2.0px;stroke-linecap:butt;stroke-linejoin:miter;stroke-opacity:1"/>
<path class="bond-2 atom-2 atom-3" d="M 54.8,111.9 L 81.2,96.6" style="fill:none;fill-rule:evenodd;stroke:#000000;stroke-width:2.0px;stroke-linecap:butt;stroke-linejoin:miter;stroke-opacity:1"/>
<path class="bond-3 atom-3 atom-4" d="M 81.2,96.6 L 92.2,103.0" style="fill:none;fill-rule:evenodd;stroke:#000000;stroke-width:2.0px;stroke-linecap:butt;stroke-linejoin:miter;stroke-opacity:1"/>
<path class="bond-3 atom-3 atom-4" d="M 92.2,103.0 L 103.3,109.4" style="fill:none;fill-rule:evenodd;stroke:#0000FF;stroke-width:2.0px;stroke-linecap:butt;stroke-linejoin:miter;stroke-opacity:1"/>
<path class="bond-4 atom-4 atom-5" d="M 111.9,109.4 L 122.9,103.0" style="fill:none;fill-rule:evenodd;stroke:#0000FF;stroke-width:2.0px;stroke-linecap:butt;stroke-linejoin:miter;stroke-opacity:1"/>
<path class="bond-4 atom-4 atom-5" d="M 122.9,103.0 L 134.0,96.6" style="fill:none;fill-rule:evenodd;stroke:#000000;stroke-width:2.0px;stroke-linecap:butt;stroke-linejoin:miter;stroke-opacity:1"/>
<path class="bond-5 atom-5 atom-6" d="M 134.0,96.6 L 160.4,111.9" style="fill:none;fill-rule:evenodd;stroke:#000000;stroke-width:2.0px;stroke-linecap:butt;stroke-linejoin:miter;stroke-opacity:1"/>
<path class="bond-6 atom-6 atom-7" d="M 160.4,111.9 L 160.4,142.4" style="fill:none;fill-rule:evenodd;stroke:#000000;stroke-width:2.0px;stroke-linecap:butt;stroke-linejoin:miter;stroke-opacity:1"/>
<path class="bond-6 atom-6 atom-7" d="M 165.0,114.5 L 165.0,139.7" style="fill:none;fill-rule:evenodd;stroke:#000000;stroke-width:2.0px;stroke-linecap:butt;stroke-linejoin:miter;stroke-opacity:1"/>
<path class="bond-7 atom-7 atom-8" d="M 160.4,142.4 L 186.8,157.6" style="fill:none;fill-rule:evenodd;stroke:#000000;stroke-width:2.0px;stroke-linecap:butt;stroke-linejoin:miter;stroke-opacity:1"/>
<path class="bond-8 atom-8 atom-9" d="M 186.8,157.6 L 213.2,142.4" style="fill:none;fill-rule:evenodd;stroke:#000000;stroke-width:2.0px;stroke-linecap:butt;stroke-linejoin:miter;stroke-opacity:1"/>
<path class="bond-8 atom-8 atom-9" d="M 186.8,152.3 L 208.6,139.7" style="fill:none;fill-rule:evenodd;stroke:#000000;stroke-width:2.0px;stroke-linecap:butt;stroke-linejoin:miter;stroke-opacity:1"/>
<path class="bond-9 atom-9 atom-10" d="M 213.2,142.4 L 213.2,111.9" style="fill:none;fill-rule:evenodd;stroke:#000000;stroke-width:2.0px;stroke-linecap:butt;stroke-linejoin:miter;stroke-opacity:1"/>
<path class="bond-10 atom-10 atom-11" d="M 213.2,111.9 L 186.8,96.6" style="fill:none;fill-rule:evenodd;stroke:#000000;stroke-width:2.0px;stroke-linecap:butt;stroke-linejoin:miter;stroke-opacity:1"/>
<path class="bond-10 atom-10 atom-11" d="M 208.6,114.5 L 186.8,101.9" style="fill:none;fill-rule:evenodd;stroke:#000000;stroke-width:2.0px;stroke-linecap:butt;stroke-linejoin:miter;stroke-opacity:1"/>
<path class="bond-11 atom-9 atom-12" d="M 213.2,142.4 L 239.6,157.6" style="fill:none;fill-rule:evenodd;stroke:#000000;stroke-width:2.0px;stroke-linecap:butt;stroke-linejoin:miter;stroke-opacity:1"/>
<path class="bond-12 atom-12 atom-13" d="M 239.6,160.3 L 250.9,153.7" style="fill:none;fill-rule:evenodd;stroke:#000000;stroke-width:2.0px;stroke-linecap:butt;stroke-linejoin:miter;stroke-opacity:1"/>
<path class="bond-12 atom-12 atom-13" d="M 250.9,153.7 L 262.2,147.2" style="fill:none;fill-rule:evenodd;stroke:#FF0000;stroke-width:2.0px;stroke-linecap:butt;stroke-linejoin:miter;stroke-opacity:1"/>
<path class="bond-12 atom-12 atom-13" d="M 237.3,156.3 L 248.6,149.8" style="fill:none;fill-rule:evenodd;stroke:#000000;stroke-width:2.0px;stroke-linecap:butt;stroke-linejoin:miter;stroke-opacity:1"/>
<path class="bond-12 atom-12 atom-13" d="M 248.6,149.8 L 259.9,143.3" style="fill:none;fill-rule:evenodd;stroke:#FF0000;stroke-width:2.0px;stroke-linecap:butt;stroke-linejoin:miter;stroke-opacity:1"/>
<path class="bond-13 atom-12 atom-14" d="M 239.6,157.6 L 239.6,170.2" style="fill:none;fill-rule:evenodd;stroke:#000000;stroke-width:2.0px;stroke-linecap:butt;stroke-linejoin:miter;stroke-opacity:1"/>
<path class="bond-13 atom-12 atom-14" d="M 239.6,170.2 L 239.6,182.8" style="fill:none;fill-rule:evenodd;stroke:#0000FF;stroke-width:2.0px;stroke-linecap:butt;stroke-linejoin:miter;stroke-opacity:1"/>
<path class="bond-14 atom-14 atom-15" d="M 243.9,190.6 L 255.0,197.0" style="fill:none;fill-rule:evenodd;stroke:#0000FF;stroke-width:2.0px;stroke-linecap:butt;stroke-linejoin:miter;stroke-opacity:1"/>
<path class="bond-14 atom-14 atom-15" d="M 255.0,197.0 L 266.0,203.4" style="fill:none;fill-rule:evenodd;stroke:#000000;stroke-width:2.0px;stroke-linecap:butt;stroke-linejoin:miter;stroke-opacity:1"/>
<path class="bond-15 atom-15 atom-16" d="M 266.0,203.4 L 266.0,233.9" style="fill:none;fill-rule:evenodd;stroke:#000000;stroke-width:2.0px;stroke-linecap:butt;stroke-linejoin:miter;stroke-opacity:1"/>
<path class="bond-15 atom-15 atom-16" d="M 270.6,206.0 L 270.6,231.2" style="fill:none;fill-rule:evenodd;stroke:#000000;stroke-width:2.0px;stroke-linecap:butt;stroke-linejoin:miter;stroke-opacity:1"/>
<path class="bond-16 atom-16 atom-17" d="M 266.0,233.9 L 292.4,249.1" style="fill:none;fill-rule:evenodd;stroke:#000000;stroke-width:2.0px;stroke-linecap:butt;stroke-linejoin:miter;stroke-opacity:1"/>
<path class="bond-17 atom-17 atom-18" d="M 292.4,249.1 L 318.8,233.9" style="fill:none;fill-rule:evenodd;stroke:#000000;stroke-width:2.0px;stroke-linecap:butt;stroke-linejoin:miter;stroke-opacity:1"/>
<path class="bond-17 atom-17 atom-18" d="M 292.4,243.8 L 314.3,231.2" style="fill:none;fill-rule:evenodd;stroke:#000000;stroke-width:2.0px;stroke-linecap:butt;stroke-linejoin:miter;stroke-opacity:1"/>
<path class="bond-18 atom-18 atom-19" d="M 318.8,233.9 L 345.2,249.1" style="fill:none;fill-rule:evenodd;stroke:#000000;stroke-width:2.0px;stroke-linecap:butt;stroke-linejoin:miter;stroke-opacity:1"/>
<path class="bond-19 atom-18 atom-20" d="M 318.8,233.9 L 318.8,203.4" style="fill:none;fill-rule:evenodd;stroke:#000000;stroke-width:2.0px;stroke-linecap:butt;stroke-linejoin:miter;stroke-opacity:1"/>
<path class="bond-20 atom-20 atom-21" d="M 318.8,203.4 L 329.9,197.0" style="fill:none;fill-rule:evenodd;stroke:#000000;stroke-width:2.0px;stroke-linecap:butt;stroke-linejoin:miter;stroke-opacity:1"/>
<path class="bond-20 atom-20 atom-21" d="M 329.9,197.0 L 341.0,190.6" style="fill:none;fill-rule:evenodd;stroke:#0000FF;stroke-width:2.0px;stroke-linecap:butt;stroke-linejoin:miter;stroke-opacity:1"/>
<path class="bond-21 atom-21 atom-22" d="M 345.2,182.8 L 345.2,170.2" style="fill:none;fill-rule:evenodd;stroke:#0000FF;stroke-width:2.0px;stroke-linecap:butt;stroke-linejoin:miter;stroke-opacity:1"/>
<path class="bond-21 atom-21 atom-22" d="M 345.2,170.2 L 345.2,157.6" style="fill:none;fill-rule:evenodd;stroke:#000000;stroke-width:2.0px;stroke-linecap:butt;stroke-linejoin:miter;stroke-opacity:1"/>
<path class="bond-22 atom-22 atom-23" d="M 345.2,157.6 L 356.3,151.2" style="fill:none;fill-rule:evenodd;stroke:#000000;stroke-width:2.0px;stroke-linecap:butt;stroke-linejoin:miter;stroke-opacity:1"/>
<path class="bond-22 atom-22 atom-23" d="M 356.3,151.2 L 367.4,144.8" style="fill:none;fill-rule:evenodd;stroke:#0000FF;stroke-width:2.0px;stroke-linecap:butt;stroke-linejoin:miter;stroke-opacity:1"/>
<path class="bond-22 atom-22 atom-23" d="M 345.2,152.3 L 355.2,146.6" style="fill:none;fill-rule:evenodd;stroke:#000000;stroke-width:2.0px;stroke-linecap:butt;stroke-linejoin:miter;stroke-opacity:1"/>
<path class="bond-22 atom-22 atom-23" d="M 355.2,146.6 L 365.1,140.9" style="fill:none;fill-rule:evenodd;stroke:#0000FF;stroke-width:2.0px;stroke-linecap:butt;stroke-linejoin:miter;stroke-opacity:1"/>
<path class="bond-23 atom-23 atom-24" d="M 371.7,137.1 L 371.7,124.5" style="fill:none;fill-rule:evenodd;stroke:#0000FF;stroke-width:2.0px;stroke-linecap:butt;stroke-linejoin:miter;stroke-opacity:1"/>
<path class="bond-23 atom-23 atom-24" d="M 371.7,124.5 L 371.7,111.9" style="fill:none;fill-rule:evenodd;stroke:#000000;stroke-width:2.0px;stroke-linecap:butt;stroke-linejoin:miter;stroke-opacity:1"/>
<path class="bond-24 atom-24 atom-25" d="M 371.7,111.9 L 345.2,96.6" style="fill:none;fill-rule:evenodd;stroke:#000000;stroke-width:2.0px;stroke-linecap:butt;stroke-linejoin:miter;stroke-opacity:1"/>
<path class="bond-24 atom-24 atom-25" d="M 367.1,114.5 L 345.2,101.9" style="fill:none;fill-rule:evenodd;stroke:#000000;stroke-width:2.0px;stroke-linecap:butt;stroke-linejoin:miter;stroke-opacity:1"/>
<path class="bond-25 atom-25 atom-26" d="M 345.2,96.6 L 318.8,111.9" style="fill:none;fill-rule:evenodd;stroke:#000000;stroke-width:2.0px;stroke-linecap:butt;stroke-linejoin:miter;stroke-opacity:1"/>
<path class="bond-26 atom-26 atom-27" d="M 318.8,111.9 L 318.8,124.5" style="fill:none;fill-rule:evenodd;stroke:#000000;stroke-width:2.0px;stroke-linecap:butt;stroke-linejoin:miter;stroke-opacity:1"/>
<path class="bond-26 atom-26 atom-27" d="M 318.8,124.5 L 318.8,137.1" style="fill:none;fill-rule:evenodd;stroke:#0000FF;stroke-width:2.0px;stroke-linecap:butt;stroke-linejoin:miter;stroke-opacity:1"/>
<path class="bond-26 atom-26 atom-27" d="M 323.4,114.5 L 323.4,125.8" style="fill:none;fill-rule:evenodd;stroke:#000000;stroke-width:2.0px;stroke-linecap:butt;stroke-linejoin:miter;stroke-opacity:1"/>
<path class="bond-26 atom-26 atom-27" d="M 323.4,125.8 L 323.4,137.1" style="fill:none;fill-rule:evenodd;stroke:#0000FF;stroke-width:2.0px;stroke-linecap:butt;stroke-linejoin:miter;stroke-opacity:1"/>
<path class="bond-27 atom-26 atom-28" d="M 318.8,111.9 L 292.4,96.6" style="fill:none;fill-rule:evenodd;stroke:#000000;stroke-width:2.0px;stroke-linecap:butt;stroke-linejoin:miter;stroke-opacity:1"/>
<path class="bond-28 atom-28 atom-29" d="M 292.4,96.6 L 292.4,66.1" style="fill:none;fill-rule:evenodd;stroke:#000000;stroke-width:2.0px;stroke-linecap:butt;stroke-linejoin:miter;stroke-opacity:1"/>
<path class="bond-28 atom-28 atom-29" d="M 287.9,94.0 L 287.9,68.8" style="fill:none;fill-rule:evenodd;stroke:#000000;stroke-width:2.0px;stroke-linecap:butt;stroke-linejoin:miter;stroke-opacity:1"/>
<path class="bond-29 atom-29 atom-30" d="M 292.4,66.1 L 266.0,50.9" style="fill:none;fill-rule:evenodd;stroke:#000000;stroke-width:2.0px;stroke-linecap:butt;stroke-linejoin:miter;stroke-opacity:1"/>
<path class="bond-30 atom-30 atom-31" d="M 266.0,50.9 L 239.6,66.1" style="fill:none;fill-rule:evenodd;stroke:#000000;stroke-width:2.0px;stroke-linecap:butt;stroke-linejoin:miter;stroke-opacity:1"/>
<path class="bond-30 atom-30 atom-31" d="M 266.0,56.2 L 244.2,68.8" style="fill:none;fill-rule:evenodd;stroke:#000000;stroke-width:2.0px;stroke-linecap:butt;stroke-linejoin:miter;stroke-opacity:1"/>
<path class="bond-31 atom-31 atom-32" d="M 239.6,66.1 L 239.6,78.7" style="fill:none;fill-rule:evenodd;stroke:#000000;stroke-width:2.0px;stroke-linecap:butt;stroke-linejoin:miter;stroke-opacity:1"/>
<path class="bond-31 atom-31 atom-32" d="M 239.6,78.7 L 239.6,91.3" style="fill:none;fill-rule:evenodd;stroke:#0000FF;stroke-width:2.0px;stroke-linecap:butt;stroke-linejoin:miter;stroke-opacity:1"/>
<path class="bond-32 atom-32 atom-33" d="M 243.9,99.1 L 255.0,105.5" style="fill:none;fill-rule:evenodd;stroke:#0000FF;stroke-width:2.0px;stroke-linecap:butt;stroke-linejoin:miter;stroke-opacity:1"/>
<path class="bond-32 atom-32 atom-33" d="M 255.0,105.5 L 266.0,111.9" style="fill:none;fill-rule:evenodd;stroke:#000000;stroke-width:2.0px;stroke-linecap:butt;stroke-linejoin:miter;stroke-opacity:1"/>
<path class="bond-32 atom-32 atom-33" d="M 246.2,95.1 L 256.1,100.9" style="fill:none;fill-rule:evenodd;stroke:#0000FF;stroke-width:2.0px;stroke-linecap:butt;stroke-linejoin:miter;stroke-opacity:1"/>
<path class="bond-32 atom-32 atom-33" d="M 256.1,100.9 L 266.0,106.6" style="fill:none;fill-rule:evenodd;stroke:#000000;stroke-width:2.0px;stroke-linecap:butt;stroke-linejoin:miter;stroke-opacity:1"/>
<path class="bond-33 atom-20 atom-34" d="M 318.8,203.4 L 292.4,188.1" style="fill:none;fill-rule:evenodd;stroke:#000000;stroke-width:2.0px;stroke-linecap:butt;stroke-linejoin:miter;stroke-opacity:1"/>
<path class="bond-33 atom-20 atom-34" d="M 314.3,206.0 L 292.4,193.4" style="fill:none;fill-rule:evenodd;stroke:#000000;stroke-width:2.0px;stroke-linecap:butt;stroke-linejoin:miter;stroke-opacity:1"/>
<path class="bond-34 atom-4 atom-35" d="M 107.6,117.2 L 107.6,129.8" style="fill:none;fill-rule:evenodd;stroke:#0000FF;stroke-width:2.0px;stroke-linecap:butt;stroke-linejoin:miter;stroke-opacity:1"/>
<path class="bond-34 atom-4 atom-35" d="M 107.6,129.8 L 107.6,142.4" style="fill:none;fill-rule:evenodd;stroke:#000000;stroke-width:2.0px;stroke-linecap:butt;stroke-linejoin:miter;stroke-opacity:1"/>
<path class="bond-35 atom-35 atom-36" d="M 107.6,142.4 L 81.2,157.6" style="fill:none;fill-rule:evenodd;stroke:#000000;stroke-width:2.0px;stroke-linecap:butt;stroke-linejoin:miter;stroke-opacity:1"/>
<path class="bond-36 atom-36 atom-1" d="M 81.2,157.6 L 70.1,151.2" style="fill:none;fill-rule:evenodd;stroke:#000000;stroke-width:2.0px;stroke-linecap:butt;stroke-linejoin:miter;stroke-opacity:1"/>
<path class="bond-36 atom-36 atom-1" d="M 70.1,151.2 L 59.0,144.8" style="fill:none;fill-rule:evenodd;stroke:#0000FF;stroke-width:2.0px;stroke-linecap:butt;stroke-linejoin:miter;stroke-opacity:1"/>
<path class="bond-37 atom-11 atom-6" d="M 186.8,96.6 L 160.4,111.9" style="fill:none;fill-rule:evenodd;stroke:#000000;stroke-width:2.0px;stroke-linecap:butt;stroke-linejoin:miter;stroke-opacity:1"/>
<path class="bond-38 atom-34 atom-15" d="M 292.4,188.1 L 266.0,203.4" style="fill:none;fill-rule:evenodd;stroke:#000000;stroke-width:2.0px;stroke-linecap:butt;stroke-linejoin:miter;stroke-opacity:1"/>
<path class="bond-39 atom-27 atom-22" d="M 323.1,144.8 L 334.2,151.2" style="fill:none;fill-rule:evenodd;stroke:#0000FF;stroke-width:2.0px;stroke-linecap:butt;stroke-linejoin:miter;stroke-opacity:1"/>
<path class="bond-39 atom-27 atom-22" d="M 334.2,151.2 L 345.2,157.6" style="fill:none;fill-rule:evenodd;stroke:#000000;stroke-width:2.0px;stroke-linecap:butt;stroke-linejoin:miter;stroke-opacity:1"/>
<path class="bond-40 atom-33 atom-28" d="M 266.0,111.9 L 292.4,96.6" style="fill:none;fill-rule:evenodd;stroke:#000000;stroke-width:2.0px;stroke-linecap:butt;stroke-linejoin:miter;stroke-opacity:1"/>
<path d="M 54.8,112.5 L 54.8,111.9 L 56.1,111.1" style="fill:none;stroke:#000000;stroke-width:2.0px;stroke-linecap:butt;stroke-linejoin:miter;stroke-opacity:1;"/>
<path d="M 79.8,97.4 L 81.2,96.6 L 81.7,97.0" style="fill:none;stroke:#000000;stroke-width:2.0px;stroke-linecap:butt;stroke-linejoin:miter;stroke-opacity:1;"/>
<path d="M 133.4,97.0 L 134.0,96.6 L 135.3,97.4" style="fill:none;stroke:#000000;stroke-width:2.0px;stroke-linecap:butt;stroke-linejoin:miter;stroke-opacity:1;"/>
<path d="M 160.4,140.9 L 160.4,142.4 L 161.7,143.1" style="fill:none;stroke:#000000;stroke-width:2.0px;stroke-linecap:butt;stroke-linejoin:miter;stroke-opacity:1;"/>
<path d="M 185.5,156.9 L 186.8,157.6 L 188.1,156.9" style="fill:none;stroke:#000000;stroke-width:2.0px;stroke-linecap:butt;stroke-linejoin:miter;stroke-opacity:1;"/>
<path d="M 213.2,113.4 L 213.2,111.9 L 211.9,111.1" style="fill:none;stroke:#000000;stroke-width:2.0px;stroke-linecap:butt;stroke-linejoin:miter;stroke-opacity:1;"/>
<path d="M 188.1,97.4 L 186.8,96.6 L 185.5,97.4" style="fill:none;stroke:#000000;stroke-width:2.0px;stroke-linecap:butt;stroke-linejoin:miter;stroke-opacity:1;"/>
<path d="M 238.3,156.9 L 239.6,157.6 L 239.6,158.3" style="fill:none;stroke:#000000;stroke-width:2.0px;stroke-linecap:butt;stroke-linejoin:miter;stroke-opacity:1;"/>
<path d="M 266.0,232.3 L 266.0,233.9 L 267.3,234.6" style="fill:none;stroke:#000000;stroke-width:2.0px;stroke-linecap:butt;stroke-linejoin:miter;stroke-opacity:1;"/>
<path d="M 291.1,248.3 L 292.4,249.1 L 293.7,248.3" style="fill:none;stroke:#000000;stroke-width:2.0px;stroke-linecap:butt;stroke-linejoin:miter;stroke-opacity:1;"/>
<path d="M 371.7,112.5 L 371.7,111.9 L 370.3,111.1" style="fill:none;stroke:#000000;stroke-width:2.0px;stroke-linecap:butt;stroke-linejoin:miter;stroke-opacity:1;"/>
<path d="M 346.6,97.4 L 345.2,96.6 L 343.9,97.4" style="fill:none;stroke:#000000;stroke-width:2.0px;stroke-linecap:butt;stroke-linejoin:miter;stroke-opacity:1;"/>
<path d="M 292.4,67.7 L 292.4,66.1 L 291.1,65.4" style="fill:none;stroke:#000000;stroke-width:2.0px;stroke-linecap:butt;stroke-linejoin:miter;stroke-opacity:1;"/>
<path d="M 267.3,51.7 L 266.0,50.9 L 264.7,51.7" style="fill:none;stroke:#000000;stroke-width:2.0px;stroke-linecap:butt;stroke-linejoin:miter;stroke-opacity:1;"/>
<path d="M 240.9,65.4 L 239.6,66.1 L 239.6,66.8" style="fill:none;stroke:#000000;stroke-width:2.0px;stroke-linecap:butt;stroke-linejoin:miter;stroke-opacity:1;"/>
<path d="M 265.5,111.6 L 266.0,111.9 L 267.3,111.1" style="fill:none;stroke:#000000;stroke-width:2.0px;stroke-linecap:butt;stroke-linejoin:miter;stroke-opacity:1;"/>
<path d="M 293.7,188.9 L 292.4,188.1 L 291.1,188.9" style="fill:none;stroke:#000000;stroke-width:2.0px;stroke-linecap:butt;stroke-linejoin:miter;stroke-opacity:1;"/>
<path d="M 107.6,141.7 L 107.6,142.4 L 106.3,143.1" style="fill:none;stroke:#000000;stroke-width:2.0px;stroke-linecap:butt;stroke-linejoin:miter;stroke-opacity:1;"/>
<path d="M 82.5,156.9 L 81.2,157.6 L 80.6,157.3" style="fill:none;stroke:#000000;stroke-width:2.0px;stroke-linecap:butt;stroke-linejoin:miter;stroke-opacity:1;"/>
<path class="atom-1" d="M 52.8 138.1 L 55.7 142.6 Q 56.0 143.1, 56.4 143.9 Q 56.9 144.7, 56.9 144.8 L 56.9 138.1 L 58.0 138.1 L 58.0 146.7 L 56.8 146.7 L 53.8 141.7 Q 53.5 141.1, 53.1 140.4 Q 52.7 139.8, 52.6 139.6 L 52.6 146.7 L 51.5 146.7 L 51.5 138.1 L 52.8 138.1 " fill="#0000FF"/>
<path class="atom-4" d="M 105.7 107.6 L 108.5 112.1 Q 108.8 112.6, 109.2 113.4 Q 109.7 114.2, 109.7 114.3 L 109.7 107.6 L 110.8 107.6 L 110.8 116.2 L 109.7 116.2 L 106.6 111.2 Q 106.3 110.6, 105.9 109.9 Q 105.5 109.3, 105.4 109.1 L 105.4 116.2 L 104.3 116.2 L 104.3 107.6 L 105.7 107.6 " fill="#0000FF"/>
<path class="atom-13" d="M 262.1 142.4 Q 262.1 140.3, 263.1 139.2 Q 264.1 138.0, 266.0 138.0 Q 267.9 138.0, 269.0 139.2 Q 270.0 140.3, 270.0 142.4 Q 270.0 144.5, 268.9 145.7 Q 267.9 146.9, 266.0 146.9 Q 264.1 146.9, 263.1 145.7 Q 262.1 144.5, 262.1 142.4 M 266.0 145.9 Q 267.3 145.9, 268.0 145.0 Q 268.8 144.1, 268.8 142.4 Q 268.8 140.7, 268.0 139.9 Q 267.3 139.0, 266.0 139.0 Q 264.7 139.0, 264.0 139.8 Q 263.3 140.7, 263.3 142.4 Q 263.3 144.1, 264.0 145.0 Q 264.7 145.9, 266.0 145.9 " fill="#FF0000"/>
<path class="atom-14" d="M 227.9 183.8 L 229.0 183.8 L 229.0 187.5 L 233.5 187.5 L 233.5 183.8 L 234.6 183.8 L 234.6 192.4 L 233.5 192.4 L 233.5 188.4 L 229.0 188.4 L 229.0 192.4 L 227.9 192.4 L 227.9 183.8 " fill="#0000FF"/>
<path class="atom-14" d="M 237.7 183.8 L 240.5 188.4 Q 240.8 188.8, 241.3 189.6 Q 241.7 190.5, 241.7 190.5 L 241.7 183.8 L 242.9 183.8 L 242.9 192.4 L 241.7 192.4 L 238.7 187.4 Q 238.3 186.8, 237.9 186.2 Q 237.6 185.5, 237.5 185.3 L 237.5 192.4 L 236.3 192.4 L 236.3 183.8 L 237.7 183.8 " fill="#0000FF"/>
<path class="atom-21" d="M 343.3 183.8 L 346.2 188.4 Q 346.4 188.8, 346.9 189.6 Q 347.3 190.5, 347.4 190.5 L 347.4 183.8 L 348.5 183.8 L 348.5 192.4 L 347.3 192.4 L 344.3 187.4 Q 343.9 186.8, 343.6 186.2 Q 343.2 185.5, 343.1 185.3 L 343.1 192.4 L 342.0 192.4 L 342.0 183.8 L 343.3 183.8 " fill="#0000FF"/>
<path class="atom-21" d="M 350.2 183.8 L 351.4 183.8 L 351.4 187.5 L 355.8 187.5 L 355.8 183.8 L 357.0 183.8 L 357.0 192.4 L 355.8 192.4 L 355.8 188.4 L 351.4 188.4 L 351.4 192.4 L 350.2 192.4 L 350.2 183.8 " fill="#0000FF"/>
<path class="atom-23" d="M 369.7 138.1 L 372.6 142.6 Q 372.9 143.1, 373.3 143.9 Q 373.8 144.7, 373.8 144.8 L 373.8 138.1 L 374.9 138.1 L 374.9 146.7 L 373.7 146.7 L 370.7 141.7 Q 370.4 141.1, 370.0 140.4 Q 369.6 139.8, 369.5 139.6 L 369.5 146.7 L 368.4 146.7 L 368.4 138.1 L 369.7 138.1 " fill="#0000FF"/>
<path class="atom-27" d="M 316.9 138.1 L 319.8 142.6 Q 320.0 143.1, 320.5 143.9 Q 320.9 144.7, 321.0 144.8 L 321.0 138.1 L 322.1 138.1 L 322.1 146.7 L 320.9 146.7 L 317.9 141.7 Q 317.5 141.1, 317.2 140.4 Q 316.8 139.8, 316.7 139.6 L 316.7 146.7 L 315.6 146.7 L 315.6 138.1 L 316.9 138.1 " fill="#0000FF"/>
<path class="atom-32" d="M 237.7 92.3 L 240.5 96.9 Q 240.8 97.3, 241.3 98.2 Q 241.7 99.0, 241.7 99.0 L 241.7 92.3 L 242.9 92.3 L 242.9 101.0 L 241.7 101.0 L 238.7 96.0 Q 238.3 95.4, 237.9 94.7 Q 237.6 94.0, 237.5 93.8 L 237.5 101.0 L 236.3 101.0 L 236.3 92.3 L 237.7 92.3 " fill="#0000FF"/>
</svg>