<?xml version="1.0" ?><svg xmlns="http://www.w3.org/2000/svg" xmlns:rdkit="http://www.rdkit.org/xml" xmlns:xlink="http://www.w3.org/1999/xlink" version="1.1" baseProfile="full" xml:space="preserve" width="400px" height="300px" viewBox="0 0 400 300">
<!-- END OF HEADER -->
<ellipse cx="148.4" cy="117.6" rx="14.0" ry="14.0" class="atom-0" style="opacity:0"/>
<ellipse cx="179.7" cy="145.8" rx="14.0" ry="14.0" class="atom-1" style="opacity:0"/>
<ellipse cx="175.3" cy="187.7" rx="14.0" ry="14.0" class="atom-2" style="opacity:0"/>
<ellipse cx="213.8" cy="204.9" rx="14.0" ry="14.0" class="atom-3" style="opacity:0"/>
<ellipse cx="222.6" cy="246.2" rx="14.0" ry="14.0" class="atom-4" style="opacity:0"/>
<ellipse cx="242.0" cy="173.5" rx="14.0" ry="14.0" class="atom-5" style="opacity:0"/>
<ellipse cx="221.0" cy="137.0" rx="14.0" ry="14.0" class="atom-6" style="opacity:0"/>
<ellipse cx="238.1" cy="98.5" rx="14.0" ry="14.0" class="atom-7" style="opacity:0"/>
<ellipse cx="283.9" cy="177.9" rx="14.0" ry="14.0" class="atom-8" style="opacity:0"/>
<ellipse cx="301.1" cy="216.4" rx="14.0" ry="14.0" class="atom-9" style="opacity:0"/>
<ellipse cx="343.0" cy="220.9" rx="14.0" ry="14.0" class="atom-10" style="opacity:0"/>
<ellipse cx="367.8" cy="186.8" rx="14.0" ry="14.0" class="atom-11" style="opacity:0"/>
<ellipse cx="350.6" cy="148.3" rx="14.0" ry="14.0" class="atom-12" style="opacity:0"/>
<ellipse cx="308.7" cy="143.9" rx="14.0" ry="14.0" class="atom-13" style="opacity:0"/>
<ellipse cx="138.8" cy="208.8" rx="14.0" ry="14.0" class="atom-14" style="opacity:0"/>
<ellipse cx="138.8" cy="250.9" rx="14.0" ry="14.0" class="atom-15" style="opacity:0"/>
<ellipse cx="102.3" cy="187.7" rx="14.0" ry="14.0" class="atom-16" style="opacity:0"/>
<ellipse cx="65.8" cy="209.0" rx="14.0" ry="14.0" class="atom-17" style="opacity:0"/>
<ellipse cx="44.8" cy="172.4" rx="14.0" ry="14.0" class="atom-18" style="opacity:0"/>
<ellipse cx="86.9" cy="245.4" rx="14.0" ry="14.0" class="atom-19" style="opacity:0"/>
<ellipse cx="32.2" cy="230.0" rx="14.0" ry="14.0" class="atom-20" style="opacity:0"/>
<ellipse cx="176.9" cy="79.8" rx="20.9" ry="14.0" class="atom-21" style="opacity:0"/>
<ellipse cx="191.0" cy="49.1" rx="18.2" ry="14.0" class="atom-22" style="opacity:0"/>
<path class="bond-0 atom-0 atom-1" d="M 148.4,117.6 L 179.7,145.8" style="fill:none;fill-rule:evenodd;stroke:#000000;stroke-width:2.0px;stroke-linecap:butt;stroke-linejoin:miter;stroke-opacity:1"/>
<path class="bond-1 atom-1 atom-2" d="M 179.7,145.8 L 175.3,187.7" style="fill:none;fill-rule:evenodd;stroke:#000000;stroke-width:2.0px;stroke-linecap:butt;stroke-linejoin:miter;stroke-opacity:1"/>
<path class="bond-1 atom-1 atom-2" d="M 185.5,151.0 L 182.1,183.8" style="fill:none;fill-rule:evenodd;stroke:#000000;stroke-width:2.0px;stroke-linecap:butt;stroke-linejoin:miter;stroke-opacity:1"/>
<path class="bond-2 atom-2 atom-3" d="M 175.3,187.7 L 213.8,204.9" style="fill:none;fill-rule:evenodd;stroke:#000000;stroke-width:2.0px;stroke-linecap:butt;stroke-linejoin:miter;stroke-opacity:1"/>
<path class="bond-3 atom-3 atom-4" d="M 210.3,203.3 L 214.1,221.3" style="fill:none;fill-rule:evenodd;stroke:#000000;stroke-width:2.0px;stroke-linecap:butt;stroke-linejoin:miter;stroke-opacity:1"/>
<path class="bond-3 atom-3 atom-4" d="M 214.1,221.3 L 217.9,239.3" style="fill:none;fill-rule:evenodd;stroke:#FF0000;stroke-width:2.0px;stroke-linecap:butt;stroke-linejoin:miter;stroke-opacity:1"/>
<path class="bond-3 atom-3 atom-4" d="M 216.4,202.0 L 220.3,220.0" style="fill:none;fill-rule:evenodd;stroke:#000000;stroke-width:2.0px;stroke-linecap:butt;stroke-linejoin:miter;stroke-opacity:1"/>
<path class="bond-3 atom-3 atom-4" d="M 220.3,220.0 L 224.1,238.0" style="fill:none;fill-rule:evenodd;stroke:#FF0000;stroke-width:2.0px;stroke-linecap:butt;stroke-linejoin:miter;stroke-opacity:1"/>
<path class="bond-4 atom-3 atom-5" d="M 213.8,204.9 L 225.0,192.5" style="fill:none;fill-rule:evenodd;stroke:#000000;stroke-width:2.0px;stroke-linecap:butt;stroke-linejoin:miter;stroke-opacity:1"/>
<path class="bond-4 atom-3 atom-5" d="M 225.0,192.5 L 236.1,180.1" style="fill:none;fill-rule:evenodd;stroke:#0000FF;stroke-width:2.0px;stroke-linecap:butt;stroke-linejoin:miter;stroke-opacity:1"/>
<path class="bond-5 atom-5 atom-6" d="M 237.8,166.2 L 225.2,144.4" style="fill:none;fill-rule:evenodd;stroke:#0000FF;stroke-width:2.0px;stroke-linecap:butt;stroke-linejoin:miter;stroke-opacity:1"/>
<path class="bond-6 atom-6 atom-7" d="M 224.2,129.7 L 231.2,114.1" style="fill:none;fill-rule:evenodd;stroke:#0000FF;stroke-width:2.0px;stroke-linecap:butt;stroke-linejoin:miter;stroke-opacity:1"/>
<path class="bond-6 atom-6 atom-7" d="M 231.2,114.1 L 238.1,98.5" style="fill:none;fill-rule:evenodd;stroke:#000000;stroke-width:2.0px;stroke-linecap:butt;stroke-linejoin:miter;stroke-opacity:1"/>
<path class="bond-7 atom-5 atom-8" d="M 247.9,174.2 L 265.9,176.1" style="fill:none;fill-rule:evenodd;stroke:#0000FF;stroke-width:2.0px;stroke-linecap:butt;stroke-linejoin:miter;stroke-opacity:1"/>
<path class="bond-7 atom-5 atom-8" d="M 265.9,176.1 L 283.9,177.9" style="fill:none;fill-rule:evenodd;stroke:#000000;stroke-width:2.0px;stroke-linecap:butt;stroke-linejoin:miter;stroke-opacity:1"/>
<path class="bond-8 atom-8 atom-9" d="M 283.9,177.9 L 301.1,216.4" style="fill:none;fill-rule:evenodd;stroke:#000000;stroke-width:2.0px;stroke-linecap:butt;stroke-linejoin:miter;stroke-opacity:1"/>
<path class="bond-8 atom-8 atom-9" d="M 291.2,178.7 L 305.4,210.5" style="fill:none;fill-rule:evenodd;stroke:#000000;stroke-width:2.0px;stroke-linecap:butt;stroke-linejoin:miter;stroke-opacity:1"/>
<path class="bond-9 atom-9 atom-10" d="M 301.1,216.4 L 343.0,220.9" style="fill:none;fill-rule:evenodd;stroke:#000000;stroke-width:2.0px;stroke-linecap:butt;stroke-linejoin:miter;stroke-opacity:1"/>
<path class="bond-10 atom-10 atom-11" d="M 343.0,220.9 L 367.8,186.8" style="fill:none;fill-rule:evenodd;stroke:#000000;stroke-width:2.0px;stroke-linecap:butt;stroke-linejoin:miter;stroke-opacity:1"/>
<path class="bond-10 atom-10 atom-11" d="M 340.0,214.2 L 360.5,186.0" style="fill:none;fill-rule:evenodd;stroke:#000000;stroke-width:2.0px;stroke-linecap:butt;stroke-linejoin:miter;stroke-opacity:1"/>
<path class="bond-11 atom-11 atom-12" d="M 367.8,186.8 L 350.6,148.3" style="fill:none;fill-rule:evenodd;stroke:#000000;stroke-width:2.0px;stroke-linecap:butt;stroke-linejoin:miter;stroke-opacity:1"/>
<path class="bond-12 atom-12 atom-13" d="M 350.6,148.3 L 308.7,143.9" style="fill:none;fill-rule:evenodd;stroke:#000000;stroke-width:2.0px;stroke-linecap:butt;stroke-linejoin:miter;stroke-opacity:1"/>
<path class="bond-12 atom-12 atom-13" d="M 346.3,154.2 L 311.7,150.5" style="fill:none;fill-rule:evenodd;stroke:#000000;stroke-width:2.0px;stroke-linecap:butt;stroke-linejoin:miter;stroke-opacity:1"/>
<path class="bond-13 atom-2 atom-14" d="M 175.3,187.7 L 160.0,196.5" style="fill:none;fill-rule:evenodd;stroke:#000000;stroke-width:2.0px;stroke-linecap:butt;stroke-linejoin:miter;stroke-opacity:1"/>
<path class="bond-13 atom-2 atom-14" d="M 160.0,196.5 L 144.7,205.4" style="fill:none;fill-rule:evenodd;stroke:#0000FF;stroke-width:2.0px;stroke-linecap:butt;stroke-linejoin:miter;stroke-opacity:1"/>
<path class="bond-14 atom-14 atom-15" d="M 138.8,216.1 L 138.8,233.5" style="fill:none;fill-rule:evenodd;stroke:#0000FF;stroke-width:2.0px;stroke-linecap:butt;stroke-linejoin:miter;stroke-opacity:1"/>
<path class="bond-14 atom-14 atom-15" d="M 138.8,233.5 L 138.8,250.9" style="fill:none;fill-rule:evenodd;stroke:#000000;stroke-width:2.0px;stroke-linecap:butt;stroke-linejoin:miter;stroke-opacity:1"/>
<path class="bond-15 atom-14 atom-16" d="M 132.9,205.4 L 117.6,196.5" style="fill:none;fill-rule:evenodd;stroke:#0000FF;stroke-width:2.0px;stroke-linecap:butt;stroke-linejoin:miter;stroke-opacity:1"/>
<path class="bond-15 atom-14 atom-16" d="M 117.6,196.5 L 102.3,187.7" style="fill:none;fill-rule:evenodd;stroke:#000000;stroke-width:2.0px;stroke-linecap:butt;stroke-linejoin:miter;stroke-opacity:1"/>
<path class="bond-16 atom-16 atom-17" d="M 102.3,187.7 L 86.7,196.7" style="fill:none;fill-rule:evenodd;stroke:#000000;stroke-width:2.0px;stroke-linecap:butt;stroke-linejoin:miter;stroke-opacity:1"/>
<path class="bond-16 atom-16 atom-17" d="M 86.7,196.7 L 71.1,205.8" style="fill:none;fill-rule:evenodd;stroke:#CCCC00;stroke-width:2.0px;stroke-linecap:butt;stroke-linejoin:miter;stroke-opacity:1"/>
<path class="bond-17 atom-17 atom-18" d="M 64.3,199.9 L 58.1,189.1" style="fill:none;fill-rule:evenodd;stroke:#CCCC00;stroke-width:2.0px;stroke-linecap:butt;stroke-linejoin:miter;stroke-opacity:1"/>
<path class="bond-17 atom-17 atom-18" d="M 58.1,189.1 L 51.9,178.3" style="fill:none;fill-rule:evenodd;stroke:#FF0000;stroke-width:2.0px;stroke-linecap:butt;stroke-linejoin:miter;stroke-opacity:1"/>
<path class="bond-17 atom-17 atom-18" d="M 58.9,203.0 L 52.6,192.3" style="fill:none;fill-rule:evenodd;stroke:#CCCC00;stroke-width:2.0px;stroke-linecap:butt;stroke-linejoin:miter;stroke-opacity:1"/>
<path class="bond-17 atom-17 atom-18" d="M 52.6,192.3 L 46.4,181.5" style="fill:none;fill-rule:evenodd;stroke:#FF0000;stroke-width:2.0px;stroke-linecap:butt;stroke-linejoin:miter;stroke-opacity:1"/>
<path class="bond-18 atom-17 atom-19" d="M 67.5,218.0 L 73.7,228.7" style="fill:none;fill-rule:evenodd;stroke:#CCCC00;stroke-width:2.0px;stroke-linecap:butt;stroke-linejoin:miter;stroke-opacity:1"/>
<path class="bond-18 atom-17 atom-19" d="M 73.7,228.7 L 79.9,239.4" style="fill:none;fill-rule:evenodd;stroke:#FF0000;stroke-width:2.0px;stroke-linecap:butt;stroke-linejoin:miter;stroke-opacity:1"/>
<path class="bond-18 atom-17 atom-19" d="M 73.0,214.9 L 79.2,225.6" style="fill:none;fill-rule:evenodd;stroke:#CCCC00;stroke-width:2.0px;stroke-linecap:butt;stroke-linejoin:miter;stroke-opacity:1"/>
<path class="bond-18 atom-17 atom-19" d="M 79.2,225.6 L 85.4,236.3" style="fill:none;fill-rule:evenodd;stroke:#FF0000;stroke-width:2.0px;stroke-linecap:butt;stroke-linejoin:miter;stroke-opacity:1"/>
<path class="bond-19 atom-17 atom-20" d="M 60.6,211.8 L 49.7,218.1" style="fill:none;fill-rule:evenodd;stroke:#CCCC00;stroke-width:2.0px;stroke-linecap:butt;stroke-linejoin:miter;stroke-opacity:1"/>
<path class="bond-19 atom-17 atom-20" d="M 49.7,218.1 L 38.8,224.4" style="fill:none;fill-rule:evenodd;stroke:#FF0000;stroke-width:2.0px;stroke-linecap:butt;stroke-linejoin:miter;stroke-opacity:1"/>
<path class="bond-20 atom-6 atom-1" d="M 215.0,138.3 L 197.4,142.1" style="fill:none;fill-rule:evenodd;stroke:#0000FF;stroke-width:2.0px;stroke-linecap:butt;stroke-linejoin:miter;stroke-opacity:1"/>
<path class="bond-20 atom-6 atom-1" d="M 197.4,142.1 L 179.7,145.8" style="fill:none;fill-rule:evenodd;stroke:#000000;stroke-width:2.0px;stroke-linecap:butt;stroke-linejoin:miter;stroke-opacity:1"/>
<path class="bond-21 atom-13 atom-8" d="M 308.7,143.9 L 283.9,177.9" style="fill:none;fill-rule:evenodd;stroke:#000000;stroke-width:2.0px;stroke-linecap:butt;stroke-linejoin:miter;stroke-opacity:1"/>
<path d="M 211.9,204.0 L 213.8,204.9 L 214.4,204.2" style="fill:none;stroke:#000000;stroke-width:2.0px;stroke-linecap:butt;stroke-linejoin:miter;stroke-opacity:1;"/>
<path d="M 300.2,214.5 L 301.1,216.4 L 303.2,216.7" style="fill:none;stroke:#000000;stroke-width:2.0px;stroke-linecap:butt;stroke-linejoin:miter;stroke-opacity:1;"/>
<path d="M 340.9,220.6 L 343.0,220.9 L 344.2,219.1" style="fill:none;stroke:#000000;stroke-width:2.0px;stroke-linecap:butt;stroke-linejoin:miter;stroke-opacity:1;"/>
<path d="M 366.5,188.5 L 367.8,186.8 L 366.9,184.8" style="fill:none;stroke:#000000;stroke-width:2.0px;stroke-linecap:butt;stroke-linejoin:miter;stroke-opacity:1;"/>
<path d="M 351.5,150.2 L 350.6,148.3 L 348.5,148.0" style="fill:none;stroke:#000000;stroke-width:2.0px;stroke-linecap:butt;stroke-linejoin:miter;stroke-opacity:1;"/>
<path d="M 310.8,144.1 L 308.7,143.9 L 307.5,145.6" style="fill:none;stroke:#000000;stroke-width:2.0px;stroke-linecap:butt;stroke-linejoin:miter;stroke-opacity:1;"/>
<path d="M 103.1,188.2 L 102.3,187.7 L 101.6,188.2" style="fill:none;stroke:#000000;stroke-width:2.0px;stroke-linecap:butt;stroke-linejoin:miter;stroke-opacity:1;"/>
<path class="atom-4" d="M 217.1 246.1 Q 217.1 243.3, 218.5 241.7 Q 219.9 240.0, 222.6 240.0 Q 225.2 240.0, 226.7 241.7 Q 228.1 243.3, 228.1 246.1 Q 228.1 249.0, 226.6 250.7 Q 225.2 252.3, 222.6 252.3 Q 220.0 252.3, 218.5 250.7 Q 217.1 249.0, 217.1 246.1 M 222.6 251.0 Q 224.4 251.0, 225.4 249.7 Q 226.4 248.5, 226.4 246.1 Q 226.4 243.8, 225.4 242.6 Q 224.4 241.4, 222.6 241.4 Q 220.8 241.4, 219.8 242.6 Q 218.8 243.8, 218.8 246.1 Q 218.8 248.5, 219.8 249.7 Q 220.8 251.0, 222.6 251.0 " fill="#FF0000"/>
<path class="atom-5" d="M 239.4 167.6 L 243.3 173.9 Q 243.7 174.5, 244.3 175.6 Q 244.9 176.8, 245.0 176.8 L 245.0 167.6 L 246.6 167.6 L 246.6 179.5 L 244.9 179.5 L 240.7 172.6 Q 240.2 171.8, 239.7 170.9 Q 239.2 169.9, 239.1 169.6 L 239.1 179.5 L 237.5 179.5 L 237.5 167.6 L 239.4 167.6 " fill="#0000FF"/>
<path class="atom-6" d="M 218.3 131.1 L 222.2 137.4 Q 222.6 138.0, 223.2 139.2 Q 223.9 140.3, 223.9 140.3 L 223.9 131.1 L 225.5 131.1 L 225.5 143.0 L 223.8 143.0 L 219.7 136.1 Q 219.2 135.3, 218.6 134.4 Q 218.1 133.4, 218.0 133.1 L 218.0 143.0 L 216.4 143.0 L 216.4 131.1 L 218.3 131.1 " fill="#0000FF"/>
<path class="atom-14" d="M 136.2 202.8 L 140.1 209.1 Q 140.5 209.8, 141.1 210.9 Q 141.7 212.0, 141.8 212.1 L 141.8 202.8 L 143.4 202.8 L 143.4 214.8 L 141.7 214.8 L 137.5 207.8 Q 137.0 207.0, 136.5 206.1 Q 136.0 205.2, 135.9 204.9 L 135.9 214.8 L 134.3 214.8 L 134.3 202.8 L 136.2 202.8 " fill="#0000FF"/>
<path class="atom-17" d="M 62.5 212.9 Q 62.6 212.9, 63.2 213.2 Q 63.7 213.4, 64.3 213.6 Q 64.9 213.7, 65.5 213.7 Q 66.7 213.7, 67.3 213.2 Q 68.0 212.6, 68.0 211.6 Q 68.0 211.0, 67.7 210.6 Q 67.3 210.2, 66.8 210.0 Q 66.3 209.7, 65.5 209.5 Q 64.4 209.2, 63.8 208.9 Q 63.2 208.6, 62.7 207.9 Q 62.3 207.3, 62.3 206.2 Q 62.3 204.7, 63.3 203.8 Q 64.3 202.8, 66.3 202.8 Q 67.7 202.8, 69.3 203.5 L 68.9 204.8 Q 67.5 204.2, 66.4 204.2 Q 65.2 204.2, 64.6 204.7 Q 63.9 205.2, 63.9 206.0 Q 63.9 206.6, 64.3 207.0 Q 64.6 207.4, 65.1 207.6 Q 65.6 207.8, 66.4 208.1 Q 67.5 208.4, 68.1 208.8 Q 68.7 209.1, 69.2 209.8 Q 69.7 210.5, 69.7 211.6 Q 69.7 213.3, 68.6 214.2 Q 67.5 215.1, 65.6 215.1 Q 64.6 215.1, 63.7 214.8 Q 63.0 214.6, 62.0 214.2 L 62.5 212.9 " fill="#CCCC00"/>
<path class="atom-18" d="M 39.3 172.3 Q 39.3 169.5, 40.7 167.9 Q 42.1 166.3, 44.8 166.3 Q 47.4 166.3, 48.8 167.9 Q 50.2 169.5, 50.2 172.3 Q 50.2 175.2, 48.8 176.9 Q 47.4 178.5, 44.8 178.5 Q 42.1 178.5, 40.7 176.9 Q 39.3 175.2, 39.3 172.3 M 44.8 177.2 Q 46.6 177.2, 47.6 176.0 Q 48.6 174.7, 48.6 172.3 Q 48.6 170.0, 47.6 168.8 Q 46.6 167.6, 44.8 167.6 Q 42.9 167.6, 41.9 168.8 Q 41.0 170.0, 41.0 172.3 Q 41.0 174.7, 41.9 176.0 Q 42.9 177.2, 44.8 177.2 " fill="#FF0000"/>
<path class="atom-19" d="M 81.4 245.3 Q 81.4 242.5, 82.8 240.9 Q 84.3 239.3, 86.9 239.3 Q 89.6 239.3, 91.0 240.9 Q 92.4 242.5, 92.4 245.3 Q 92.4 248.2, 91.0 249.9 Q 89.5 251.5, 86.9 251.5 Q 84.3 251.5, 82.8 249.9 Q 81.4 248.2, 81.4 245.3 M 86.9 250.2 Q 88.7 250.2, 89.7 248.9 Q 90.7 247.7, 90.7 245.3 Q 90.7 243.0, 89.7 241.8 Q 88.7 240.6, 86.9 240.6 Q 85.1 240.6, 84.1 241.8 Q 83.1 243.0, 83.1 245.3 Q 83.1 247.7, 84.1 248.9 Q 85.1 250.2, 86.9 250.2 " fill="#FF0000"/>
<path class="atom-20" d="M 23.9 229.9 Q 23.9 227.0, 25.3 225.4 Q 26.7 223.8, 29.3 223.8 Q 32.0 223.8, 33.4 225.4 Q 34.8 227.0, 34.8 229.9 Q 34.8 232.8, 33.4 234.4 Q 32.0 236.1, 29.3 236.1 Q 26.7 236.1, 25.3 234.4 Q 23.9 232.8, 23.9 229.9 M 29.3 234.7 Q 31.2 234.7, 32.1 233.5 Q 33.1 232.3, 33.1 229.9 Q 33.1 227.6, 32.1 226.4 Q 31.2 225.2, 29.3 225.2 Q 27.5 225.2, 26.5 226.4 Q 25.5 227.5, 25.5 229.9 Q 25.5 232.3, 26.5 233.5 Q 27.5 234.7, 29.3 234.7 " fill="#FF0000"/>
<path class="atom-20" d="M 36.5 225.8 L 40.6 225.8 L 40.6 226.7 L 36.5 226.7 L 36.5 225.8 " fill="#FF0000"/>
<path class="atom-21" d="M 162.1 70.9 L 163.7 70.9 L 163.7 76.0 L 169.8 76.0 L 169.8 70.9 L 171.4 70.9 L 171.4 82.9 L 169.8 82.9 L 169.8 77.4 L 163.7 77.4 L 163.7 82.9 L 162.1 82.9 L 162.1 70.9 " fill="#FF0000"/>
<path class="atom-21" d="M 173.8 82.5 Q 174.1 81.7, 174.8 81.3 Q 175.5 80.9, 176.5 80.9 Q 177.7 80.9, 178.3 81.5 Q 179.0 82.2, 179.0 83.3 Q 179.0 84.5, 178.1 85.6 Q 177.3 86.7, 175.5 87.9 L 179.1 87.9 L 179.1 88.8 L 173.8 88.8 L 173.8 88.1 Q 175.3 87.0, 176.1 86.3 Q 177.0 85.5, 177.4 84.8 Q 177.9 84.1, 177.9 83.4 Q 177.9 82.6, 177.5 82.2 Q 177.1 81.8, 176.5 81.8 Q 175.8 81.8, 175.4 82.0 Q 175.0 82.3, 174.7 82.8 L 173.8 82.5 " fill="#FF0000"/>
<path class="atom-21" d="M 180.7 76.9 Q 180.7 74.0, 182.1 72.4 Q 183.6 70.8, 186.2 70.8 Q 188.9 70.8, 190.3 72.4 Q 191.7 74.0, 191.7 76.9 Q 191.7 79.8, 190.3 81.4 Q 188.8 83.1, 186.2 83.1 Q 183.6 83.1, 182.1 81.4 Q 180.7 79.8, 180.7 76.9 M 186.2 81.7 Q 188.0 81.7, 189.0 80.5 Q 190.0 79.3, 190.0 76.9 Q 190.0 74.5, 189.0 73.3 Q 188.0 72.1, 186.2 72.1 Q 184.4 72.1, 183.4 73.3 Q 182.4 74.5, 182.4 76.9 Q 182.4 79.3, 183.4 80.5 Q 184.4 81.7, 186.2 81.7 " fill="#FF0000"/>
<path class="atom-22" d="M 180.0 43.0 L 183.9 49.3 Q 184.3 49.9, 184.9 51.1 Q 185.6 52.2, 185.6 52.3 L 185.6 43.0 L 187.2 43.0 L 187.2 54.9 L 185.5 54.9 L 181.4 48.0 Q 180.9 47.2, 180.3 46.3 Q 179.8 45.4, 179.7 45.1 L 179.7 54.9 L 178.1 54.9 L 178.1 43.0 L 180.0 43.0 " fill="#000000"/>
<path class="atom-22" d="M 189.4 52.6 Q 189.4 51.2, 190.5 50.4 Q 191.6 49.7, 193.6 49.7 L 194.9 49.7 L 194.9 49.4 Q 194.9 48.3, 194.5 47.8 Q 194.0 47.4, 193.0 47.4 Q 192.3 47.4, 191.7 47.5 Q 191.2 47.6, 190.3 48.0 L 189.9 46.9 Q 191.5 46.1, 193.0 46.1 Q 194.8 46.1, 195.7 46.9 Q 196.5 47.7, 196.5 49.4 L 196.5 54.9 L 195.3 54.9 Q 195.3 54.9, 195.2 54.6 Q 195.2 54.3, 195.1 53.9 Q 193.9 55.1, 192.2 55.1 Q 190.9 55.1, 190.2 54.4 Q 189.4 53.8, 189.4 52.6 M 191.0 52.6 Q 191.0 53.2, 191.4 53.5 Q 191.8 53.9, 192.5 53.9 Q 193.2 53.9, 193.9 53.6 Q 194.5 53.3, 194.9 52.7 L 194.9 50.9 L 193.8 50.9 Q 192.4 50.9, 191.7 51.3 Q 191.0 51.7, 191.0 52.6 " fill="#000000"/>
<path class="atom-22" d="M 198.6 46.6 L 200.7 46.6 L 200.7 44.4 L 201.7 44.4 L 201.7 46.6 L 203.8 46.6 L 203.8 47.4 L 201.7 47.4 L 201.7 49.6 L 200.7 49.6 L 200.7 47.4 L 198.6 47.4 L 198.6 46.6 " fill="#000000"/>
</svg>