<svg xmlns="http://www.w3.org/2000/svg" xmlns:xlink="http://www.w3.org/1999/xlink" width="263" zoomAndPan="magnify" viewBox="0 0 197.25 116.249996" height="155" preserveAspectRatio="xMidYMid meet" version="1.0"><defs><clipPath id="67762c7492"><path d="M 2.085938 10.902344 L 91.511719 10.902344 L 91.511719 100.324219 L 2.085938 100.324219 Z M 2.085938 10.902344 " clip-rule="nonzero"/></clipPath><clipPath id="3f1b9d0755"><path d="M 20.679688 54.175781 L 72.839844 54.175781 L 72.839844 115.0625 L 20.679688 115.0625 Z M 20.679688 54.175781 " clip-rule="nonzero"/></clipPath><clipPath id="934bf22866"><path d="M 46.839844 54.175781 L 73.003906 69.394531 L 73.003906 99.839844 L 46.839844 115.0625 L 20.679688 99.839844 L 20.679688 69.394531 Z M 46.839844 54.175781 " clip-rule="nonzero"/></clipPath><clipPath id="77856778ee"><path d="M 69.003906 54.175781 L 121.167969 54.175781 L 121.167969 115.0625 L 69.003906 115.0625 Z M 69.003906 54.175781 " clip-rule="nonzero"/></clipPath><clipPath id="0233f5b90d"><path d="M 95.167969 54.175781 L 121.328125 69.394531 L 121.328125 99.839844 L 95.167969 115.0625 L 69.003906 99.839844 L 69.003906 69.394531 Z M 95.167969 54.175781 " clip-rule="nonzero"/></clipPath><clipPath id="d1652af93a"><path d="M 93.507812 12.636719 L 145.671875 12.636719 L 145.671875 73.527344 L 93.507812 73.527344 Z M 93.507812 12.636719 " clip-rule="nonzero"/></clipPath><clipPath id="9e70ec9d86"><path d="M 119.671875 12.636719 L 145.835938 27.859375 L 145.835938 58.304688 L 119.671875 73.527344 L 93.507812 58.304688 L 93.507812 27.859375 Z M 119.671875 12.636719 " clip-rule="nonzero"/></clipPath><clipPath id="4337de0dfb"><path d="M 141 14 L 191 14 L 191 68 L 141 68 Z M 141 14 " clip-rule="nonzero"/></clipPath><clipPath id="7e816a51ec"><path d="M 147.269531 7.070312 L 195.890625 21.34375 L 181.613281 69.964844 L 132.992188 55.6875 Z M 147.269531 7.070312 " clip-rule="nonzero"/></clipPath><clipPath id="56cf57ca9b"><path d="M 147.269531 7.070312 L 195.722656 21.296875 L 181.496094 69.75 L 133.042969 55.519531 Z M 147.269531 7.070312 " clip-rule="nonzero"/></clipPath><clipPath id="2ca791e688"><path d="M 171.496094 14.183594 L 190.289062 39.804688 L 172.242188 67.03125 L 142.296875 58.238281 L 141.835938 25.574219 Z M 171.496094 14.183594 " clip-rule="nonzero"/></clipPath><clipPath id="f5e53a36bb"><path d="M 0.257812 76 L 47 76 L 47 115.503906 L 0.257812 115.503906 Z M 0.257812 76 " clip-rule="nonzero"/></clipPath><clipPath id="d75d22b858"><path d="M 147.078125 41.167969 L 195.515625 41.167969 L 195.515625 89.605469 L 147.078125 89.605469 Z M 147.078125 41.167969 " clip-rule="nonzero"/></clipPath></defs><g clip-path="url(#67762c7492)"><path fill="#0264a6" d="M 46.84375 74.171875 C 36.640625 74.171875 28.332031 65.863281 28.332031 55.660156 C 28.332031 45.453125 36.640625 37.148438 46.84375 37.148438 C 57.050781 37.148438 65.355469 45.453125 65.355469 55.660156 C 65.355469 65.863281 57.050781 74.171875 46.84375 74.171875 Z M 46.84375 38.777344 C 37.535156 38.777344 29.960938 46.347656 29.960938 55.660156 C 29.960938 64.96875 37.535156 72.542969 46.84375 72.542969 C 56.15625 72.542969 63.726562 64.96875 63.726562 55.660156 C 63.726562 46.347656 56.15625 38.777344 46.84375 38.777344 Z M 46.84375 83.570312 C 31.449219 83.570312 18.933594 71.054688 18.933594 55.660156 C 18.933594 40.261719 31.449219 27.746094 46.84375 27.746094 C 62.242188 27.746094 74.757812 40.261719 74.757812 55.660156 C 74.757812 71.054688 62.242188 83.570312 46.84375 83.570312 Z M 46.84375 29.375 C 32.34375 29.375 20.5625 41.175781 20.5625 55.660156 C 20.5625 70.140625 32.34375 81.941406 46.84375 81.941406 C 61.347656 81.941406 73.125 70.160156 73.125 55.660156 C 73.125 41.15625 61.347656 29.375 46.84375 29.375 Z M 46.84375 92.269531 C 26.667969 92.269531 10.234375 75.855469 10.234375 55.660156 C 10.234375 35.464844 26.667969 19.046875 46.84375 19.046875 C 67.023438 19.046875 83.457031 35.480469 83.457031 55.660156 C 83.457031 75.835938 67.023438 92.269531 46.84375 92.269531 Z M 46.84375 20.675781 C 27.5625 20.675781 11.863281 36.378906 11.863281 55.660156 C 11.863281 74.941406 27.5625 90.640625 46.84375 90.640625 C 66.125 90.640625 81.828125 74.941406 81.828125 55.660156 C 81.828125 36.378906 66.125 20.675781 46.84375 20.675781 Z M 46.84375 100.417969 C 22.15625 100.417969 2.085938 80.347656 2.085938 55.660156 C 2.085938 30.96875 22.15625 10.902344 46.84375 10.902344 C 71.535156 10.902344 91.601562 30.96875 91.601562 55.660156 C 91.601562 80.347656 71.535156 100.417969 46.84375 100.417969 Z M 46.84375 12.53125 C 23.070312 12.53125 3.714844 31.882812 3.714844 55.660156 C 3.714844 79.433594 23.070312 98.789062 46.84375 98.789062 C 70.621094 98.789062 89.972656 79.433594 89.972656 55.660156 C 89.972656 31.882812 70.621094 12.53125 46.84375 12.53125 Z M 46.84375 12.53125 " fill-opacity="1" fill-rule="nonzero"/></g><g clip-path="url(#3f1b9d0755)"><g clip-path="url(#934bf22866)"><path stroke-linecap="butt" transform="matrix(0.745192, 0, 0, 0.745192, 20.678172, 54.173989)" fill="none" stroke-linejoin="miter" d="M 35.107276 0.00240524 L 70.21776 20.424986 L 70.21776 61.280632 L 35.107276 81.708454 L 0.00203399 61.280632 L 0.00203399 20.424986 Z M 35.107276 0.00240524 " stroke="#000000" stroke-width="10" stroke-opacity="1" stroke-miterlimit="4"/></g></g><g clip-path="url(#77856778ee)"><g clip-path="url(#0233f5b90d)"><path stroke-linecap="butt" transform="matrix(0.745192, 0, 0, 0.745192, 69.003408, 54.173989)" fill="none" stroke-linejoin="miter" d="M 35.111152 0.00240524 L 70.216395 20.424986 L 70.216395 61.280632 L 35.111152 81.708454 L 0.000668273 61.280632 L 0.000668273 20.424986 Z M 35.111152 0.00240524 " stroke="#000000" stroke-width="10" stroke-opacity="1" stroke-miterlimit="4"/></g></g><g clip-path="url(#d1652af93a)"><g clip-path="url(#9e70ec9d86)"><path stroke-linecap="butt" transform="matrix(0.745192, 0, 0, 0.745192, 93.508437, 12.63759)" fill="none" stroke-linejoin="miter" d="M 35.109646 -0.00116917 L 70.220131 20.426654 L 70.220131 61.282299 L 35.109646 81.710122 L -0.000837677 61.282299 L -0.000837677 20.426654 Z M 35.109646 -0.00116917 " stroke="#000000" stroke-width="10" stroke-opacity="1" stroke-miterlimit="4"/></g></g><g clip-path="url(#4337de0dfb)"><g clip-path="url(#7e816a51ec)"><g clip-path="url(#56cf57ca9b)"><g clip-path="url(#2ca791e688)"><path stroke-linecap="butt" transform="matrix(0.715005, 0.209953, -0.209953, 0.715005, 147.269763, 7.068523)" fill="none" stroke-linejoin="miter" d="M 33.883255 0.00166258 L 67.767431 25.885441 L 54.824598 67.764822 L 12.943352 67.76498 L 0.00020111 25.88187 Z M 33.883255 0.00166258 " stroke="#000000" stroke-width="10" stroke-opacity="1" stroke-miterlimit="4"/></g></g></g></g><g clip-path="url(#f5e53a36bb)"><path stroke-linecap="butt" transform="matrix(0.645355, -0.372596, 0.372596, 0.645355, 0.258873, 110.156756)" fill="none" stroke-linejoin="miter" d="M 0.00162363 2.499987 L 37.450534 2.500288 " stroke="#000000" stroke-width="5" stroke-opacity="1" stroke-miterlimit="4"/></g><path stroke-linecap="butt" transform="matrix(0, -0.745192, 0.745192, 0, 69.656717, 70.114813)" fill="none" stroke-linejoin="miter" d="M 0.00205485 2.499777 L 37.450445 2.499777 " stroke="#000000" stroke-width="5" stroke-opacity="1" stroke-miterlimit="4"/><path stroke-linecap="butt" transform="matrix(-0.602868, -0.43802, 0.43802, -0.602868, 95.92275, 30.874778)" fill="none" stroke-linejoin="miter" d="M -0.00154758 2.501822 L 37.455362 2.500773 " stroke="#000000" stroke-width="5" stroke-opacity="1" stroke-miterlimit="4"/><path stroke-linecap="butt" transform="matrix(0, -0.745192, 0.745192, 0, 142.488743, 27.903698)" fill="none" stroke-linejoin="miter" d="M 0.00181791 2.499783 L 37.450208 2.499783 " stroke="#000000" stroke-width="5" stroke-opacity="1" stroke-miterlimit="4"/><g clip-path="url(#d75d22b858)"><path fill="#7abaec" d="M 171.402344 75.550781 C 165.855469 75.550781 161.34375 71.035156 161.34375 65.488281 C 161.34375 59.945312 165.855469 55.429688 171.402344 55.429688 C 176.949219 55.429688 181.464844 59.945312 181.464844 65.488281 C 181.464844 71.035156 176.949219 75.550781 171.402344 75.550781 Z M 171.402344 56.316406 C 166.34375 56.316406 162.226562 60.429688 162.226562 65.488281 C 162.226562 70.550781 166.34375 74.664062 171.402344 74.664062 C 176.460938 74.664062 180.578125 70.550781 180.578125 65.488281 C 180.578125 60.429688 176.460938 56.316406 171.402344 56.316406 Z M 171.402344 80.660156 C 163.035156 80.660156 156.234375 73.859375 156.234375 65.488281 C 156.234375 57.121094 163.035156 50.320312 171.402344 50.320312 C 179.769531 50.320312 186.570312 57.121094 186.570312 65.488281 C 186.570312 73.859375 179.769531 80.660156 171.402344 80.660156 Z M 171.402344 51.207031 C 163.523438 51.207031 157.121094 57.617188 157.121094 65.488281 C 157.121094 73.359375 163.523438 79.773438 171.402344 79.773438 C 179.285156 79.773438 185.6875 73.371094 185.6875 65.488281 C 185.6875 57.609375 179.285156 51.207031 171.402344 51.207031 Z M 171.402344 85.386719 C 160.4375 85.386719 151.507812 76.464844 151.507812 65.488281 C 151.507812 54.515625 160.4375 45.59375 171.402344 45.59375 C 182.367188 45.59375 191.300781 54.523438 191.300781 65.488281 C 191.300781 76.457031 182.367188 85.386719 171.402344 85.386719 Z M 171.402344 46.480469 C 160.925781 46.480469 152.390625 55.011719 152.390625 65.488281 C 152.390625 75.96875 160.925781 84.5 171.402344 84.5 C 181.882812 84.5 190.414062 75.96875 190.414062 65.488281 C 190.414062 55.011719 181.882812 46.480469 171.402344 46.480469 Z M 171.402344 89.8125 C 157.984375 89.8125 147.078125 78.90625 147.078125 65.488281 C 147.078125 52.074219 157.984375 41.167969 171.402344 41.167969 C 184.820312 41.167969 195.726562 52.074219 195.726562 65.488281 C 195.726562 78.90625 184.820312 89.8125 171.402344 89.8125 Z M 171.402344 42.050781 C 158.480469 42.050781 147.964844 52.570312 147.964844 65.488281 C 147.964844 78.410156 158.480469 88.929688 171.402344 88.929688 C 184.324219 88.929688 194.839844 78.410156 194.839844 65.488281 C 194.839844 52.570312 184.324219 42.050781 171.402344 42.050781 Z M 171.402344 42.050781 " fill-opacity="1" fill-rule="nonzero"/></g></svg>