<svg xmlns="http://www.w3.org/2000/svg" xmlns:xlink="http://www.w3.org/1999/xlink" width="279" zoomAndPan="magnify" viewBox="0 0 209.25 220.499992" height="294" preserveAspectRatio="xMidYMid meet" version="1.0"><defs><clipPath id="6547c89665"><path d="M 110.371094 68.171875 L 206.351562 68.171875 L 206.351562 219.601562 L 110.371094 219.601562 Z M 110.371094 68.171875 " clip-rule="nonzero"/></clipPath><clipPath id="fd0be61e58"><path d="M 192.113281 165.207031 L 208.289062 165.207031 L 208.289062 183.136719 L 192.113281 183.136719 Z M 192.113281 165.207031 " clip-rule="nonzero"/></clipPath><clipPath id="e0027497ad"><path d="M 93 0.144531 L 115 0.144531 L 115 13 L 93 13 Z M 93 0.144531 " clip-rule="nonzero"/></clipPath><clipPath id="9fe5f7e00e"><path d="M 2 76 L 106.679688 76 L 106.679688 219.601562 L 2 219.601562 Z M 2 76 " clip-rule="nonzero"/></clipPath><clipPath id="0e4f729d90"><path d="M 87.984375 98.011719 L 120.839844 98.011719 L 120.839844 136.125 L 87.984375 136.125 Z M 87.984375 98.011719 " clip-rule="nonzero"/></clipPath><clipPath id="a5ca803abf"><path d="M 104.410156 98.011719 L 120.839844 107.570312 L 120.839844 126.6875 L 104.410156 136.242188 L 87.984375 126.6875 L 87.984375 107.570312 Z M 104.410156 98.011719 " clip-rule="nonzero"/></clipPath><clipPath id="2370f6a530"><path d="M 73.046875 70.851562 L 105.902344 70.851562 L 105.902344 108.964844 L 73.046875 108.964844 Z M 73.046875 70.851562 " clip-rule="nonzero"/></clipPath><clipPath id="f7740cd881"><path d="M 89.476562 70.851562 L 105.902344 80.410156 L 105.902344 99.523438 L 89.476562 109.082031 L 73.046875 99.523438 L 73.046875 80.410156 Z M 89.476562 70.851562 " clip-rule="nonzero"/></clipPath><clipPath id="6793036664"><path d="M 73.046875 124.851562 L 105.902344 124.851562 L 105.902344 162.964844 L 73.046875 162.964844 Z M 73.046875 124.851562 " clip-rule="nonzero"/></clipPath><clipPath id="b9809892d8"><path d="M 89.476562 124.851562 L 105.902344 134.410156 L 105.902344 153.527344 L 89.476562 163.082031 L 73.046875 153.527344 L 73.046875 134.410156 Z M 89.476562 124.851562 " clip-rule="nonzero"/></clipPath><clipPath id="7f326ebaba"><path d="M 104.085938 124.851562 L 136.941406 124.851562 L 136.941406 162.964844 L 104.085938 162.964844 Z M 104.085938 124.851562 " clip-rule="nonzero"/></clipPath><clipPath id="edf9cd7c6d"><path d="M 120.511719 124.851562 L 136.941406 134.410156 L 136.941406 153.527344 L 120.511719 163.082031 L 104.085938 153.527344 L 104.085938 134.410156 Z M 120.511719 124.851562 " clip-rule="nonzero"/></clipPath></defs><g clip-path="url(#6547c89665)"><path fill="#aedbfd" d="M 115.046875 219.601562 L 110.449219 219.601562 L 110.449219 199.605469 L 112.507812 199.386719 C 137.746094 196.710938 160.375 182.011719 173.046875 160.066406 C 187.195312 135.5625 187.199219 105.09375 173.058594 80.550781 L 171.910156 78.5625 L 189.058594 68.667969 L 190.207031 70.660156 C 199.078125 86.023438 203.683594 103.46875 203.523438 121.113281 C 203.375 137.472656 199.171875 153.621094 191.34375 167.964844 L 206.324219 176.613281 L 204.027344 180.59375 L 185.089844 169.664062 L 186.238281 167.671875 C 202.699219 139.101562 203.070312 103.792969 187.351562 74.964844 L 178.160156 80.261719 C 184.679688 92.335938 188.183594 105.898438 188.308594 119.632812 C 188.441406 134.578125 184.542969 149.351562 177.027344 162.363281 C 170.285156 174.042969 160.75 184.019531 149.453125 191.21875 C 139.101562 197.8125 127.246094 202.113281 115.046875 203.714844 L 115.046875 219.601562 " fill-opacity="1" fill-rule="nonzero"/></g><g clip-path="url(#fd0be61e58)"><path fill="#aedbfd" d="M 201.789062 176.066406 L 201.285156 176.9375 L 202.0625 176.804688 Z M 192.402344 183.128906 L 202.710938 165.277344 L 208.289062 180.402344 L 192.402344 183.128906 " fill-opacity="1" fill-rule="nonzero"/></g><path fill="#aedbfd" d="M 184.800781 61.296875 L 187.101562 65.277344 L 169.78125 75.277344 L 168.5625 73.601562 C 153.628906 53.085938 129.582031 40.835938 104.238281 40.835938 C 75.949219 40.835938 49.558594 56.066406 35.375 80.582031 L 34.222656 82.570312 L 17.082031 72.667969 L 18.234375 70.675781 C 27.101562 55.3125 39.90625 42.601562 55.265625 33.917969 C 69.507812 25.867188 85.59375 21.433594 101.933594 21.039062 L 101.929688 3.742188 L 106.53125 3.742188 L 106.53125 25.605469 L 104.234375 25.609375 C 71.261719 25.636719 40.496094 42.972656 23.386719 71 L 32.574219 76.304688 C 39.765625 64.625 49.761719 54.808594 61.59375 47.835938 C 74.46875 40.25 89.214844 36.238281 104.238281 36.238281 C 117.726562 36.238281 131.132812 39.507812 143.015625 45.691406 C 153.90625 51.359375 163.554688 59.472656 171.039062 69.238281 L 184.800781 61.296875 " fill-opacity="1" fill-rule="nonzero"/><g clip-path="url(#e0027497ad)"><path fill="#aedbfd" d="M 103.726562 7.941406 L 104.734375 7.941406 L 104.230469 7.335938 Z M 114.535156 12.539062 L 93.925781 12.539062 L 104.230469 0.148438 L 114.535156 12.539062 " fill-opacity="1" fill-rule="nonzero"/></g><g clip-path="url(#9fe5f7e00e)"><path fill="#0065a6" d="M 12.824219 80.039062 L 15.125 76.058594 L 32.441406 86.058594 L 31.605469 87.949219 C 21.300781 111.140625 22.714844 138.089844 35.386719 160.039062 C 49.535156 184.542969 75.917969 199.777344 104.242188 199.804688 L 106.539062 199.804688 L 106.53125 219.601562 L 104.234375 219.601562 C 86.496094 219.601562 69.082031 214.867188 53.882812 205.910156 C 39.789062 197.601562 27.90625 185.886719 19.398438 171.9375 L 4.417969 180.585938 L 2.121094 176.605469 L 21.054688 165.671875 L 22.203125 167.660156 C 38.714844 196.199219 69.109375 214.175781 101.9375 214.976562 L 101.941406 204.367188 C 88.226562 203.980469 74.730469 200.234375 62.773438 193.46875 C 49.765625 186.117188 38.917969 175.351562 31.40625 162.339844 C 24.664062 150.660156 20.789062 137.410156 20.203125 124.027344 C 19.667969 111.765625 21.871094 99.351562 26.585938 87.984375 L 12.824219 80.039062 " fill-opacity="1" fill-rule="nonzero"/></g><path fill="#0065a6" d="M 7.15625 176.929688 L 6.652344 176.058594 L 6.382812 176.796875 Z M 5.734375 165.269531 L 16.042969 183.121094 L 0.15625 180.390625 L 5.734375 165.269531 " fill-opacity="1" fill-rule="nonzero"/><g clip-path="url(#0e4f729d90)"><g clip-path="url(#a5ca803abf)"><path stroke-linecap="butt" transform="matrix(0.747321, 0, 0, 0.747321, 87.984599, 98.013113)" fill="none" stroke-linejoin="miter" d="M 21.979241 -0.001865 L 43.964009 12.788607 L 43.964009 38.369552 L 21.979241 51.154798 L -0.000300184 38.369552 L -0.000300184 12.788607 Z M 21.979241 -0.001865 " stroke="#000000" stroke-width="8" stroke-opacity="1" stroke-miterlimit="4"/></g></g><g clip-path="url(#2370f6a530)"><g clip-path="url(#f7740cd881)"><path stroke-linecap="butt" transform="matrix(0.747321, 0, 0, 0.747321, 73.048624, 70.850869)" fill="none" stroke-linejoin="miter" d="M 21.982427 0.000928578 L 43.961968 12.791401 L 43.961968 38.367119 L 21.982427 51.157591 L -0.00234079 38.367119 L -0.00234079 12.791401 Z M 21.982427 0.000928578 " stroke="#000000" stroke-width="8" stroke-opacity="1" stroke-miterlimit="4"/></g></g><g clip-path="url(#6793036664)"><g clip-path="url(#b9809892d8)"><path stroke-linecap="butt" transform="matrix(0.747321, 0, 0, 0.747321, 73.048624, 124.853095)" fill="none" stroke-linejoin="miter" d="M 21.982427 -0.0020503 L 43.961968 12.788422 L 43.961968 38.369367 L 21.982427 51.154613 L -0.00234079 38.369367 L -0.00234079 12.788422 Z M 21.982427 -0.0020503 " stroke="#000000" stroke-width="8" stroke-opacity="1" stroke-miterlimit="4"/></g></g><path stroke-linecap="butt" transform="matrix(0.647199, -0.373661, 0.373661, 0.647199, 58.530178, 106.774594)" fill="none" stroke-linejoin="miter" d="M -0.00142584 1.50026 L 24.411665 1.501989 " stroke="#000000" stroke-width="3" stroke-opacity="1" stroke-miterlimit="4"/><path stroke-linecap="butt" transform="matrix(-0.606394, -0.436779, 0.436779, -0.606394, 74.489187, 136.553548)" fill="none" stroke-linejoin="miter" d="M -0.000638957 1.499514 L 26.661005 1.498335 " stroke="#000000" stroke-width="3" stroke-opacity="1" stroke-miterlimit="4"/><g clip-path="url(#7f326ebaba)"><g clip-path="url(#edf9cd7c6d)"><path stroke-linecap="butt" transform="matrix(0.747321, 0, 0, 0.747321, 104.086544, 124.853095)" fill="none" stroke-linejoin="miter" d="M 21.978729 -0.0020503 L 43.963497 12.788422 L 43.963497 38.369367 L 21.978729 51.154613 L -0.000811562 38.369367 L -0.000811562 12.788422 Z M 21.978729 -0.0020503 " stroke="#000000" stroke-width="8" stroke-opacity="1" stroke-miterlimit="4"/></g></g><path stroke-linecap="butt" transform="matrix(0.634647, 0.394604, -0.394604, 0.634647, 60.74478, 71.239404)" fill="none" stroke-linejoin="miter" d="M -0.00057909 1.50041 L 24.414746 1.497917 " stroke="#000000" stroke-width="3" stroke-opacity="1" stroke-miterlimit="4"/><path stroke-linecap="butt" transform="matrix(0.634647, 0.394604, -0.394604, 0.634647, 136.634187, 151.555457)" fill="none" stroke-linejoin="miter" d="M 0.00105427 1.499951 L 24.411941 1.500218 " stroke="#000000" stroke-width="3" stroke-opacity="1" stroke-miterlimit="4"/><path stroke-linecap="butt" transform="matrix(-0.528436, 0.528436, -0.528436, -0.528436, 75.642609, 154.093213)" fill="none" stroke-linejoin="miter" d="M -0.00131018 1.498268 L 24.414784 1.498268 " stroke="#000000" stroke-width="3" stroke-opacity="1" stroke-miterlimit="4"/></svg>