<?xml version="1.0" ?><svg xmlns="http://www.w3.org/2000/svg" xmlns:rdkit="http://www.rdkit.org/xml" xmlns:xlink="http://www.w3.org/1999/xlink" version="1.1" baseProfile="full" xml:space="preserve" width="400px" height="300px" viewBox="0 0 400 300">
<!-- END OF HEADER -->
<ellipse cx="43.8" cy="122.8" rx="11.2" ry="11.2" class="atom-0" style="opacity:0"/>
<ellipse cx="72.8" cy="106.1" rx="11.2" ry="11.2" class="atom-1" style="opacity:0"/>
<ellipse cx="72.8" cy="72.6" rx="11.2" ry="11.2" class="atom-2" style="opacity:0"/>
<ellipse cx="101.7" cy="55.9" rx="11.2" ry="11.2" class="atom-3" style="opacity:0"/>
<ellipse cx="130.7" cy="72.6" rx="11.2" ry="11.2" class="atom-4" style="opacity:0"/>
<ellipse cx="130.7" cy="106.1" rx="11.2" ry="11.2" class="atom-5" style="opacity:0"/>
<ellipse cx="101.7" cy="122.9" rx="11.2" ry="11.2" class="atom-6" style="opacity:0"/>
<ellipse cx="159.7" cy="122.9" rx="11.2" ry="11.2" class="atom-7" style="opacity:0"/>
<ellipse cx="159.7" cy="156.3" rx="11.2" ry="11.2" class="atom-8" style="opacity:0"/>
<ellipse cx="130.7" cy="173.0" rx="11.2" ry="11.2" class="atom-9" style="opacity:0"/>
<ellipse cx="130.7" cy="206.4" rx="11.2" ry="11.2" class="atom-10" style="opacity:0"/>
<ellipse cx="159.7" cy="223.2" rx="11.2" ry="11.2" class="atom-11" style="opacity:0"/>
<ellipse cx="188.7" cy="206.4" rx="11.2" ry="11.2" class="atom-12" style="opacity:0"/>
<ellipse cx="188.7" cy="173.0" rx="11.2" ry="11.2" class="atom-13" style="opacity:0"/>
<ellipse cx="217.6" cy="156.3" rx="11.2" ry="11.2" class="atom-14" style="opacity:0"/>
<ellipse cx="246.6" cy="173.0" rx="11.2" ry="11.2" class="atom-15" style="opacity:0"/>
<ellipse cx="246.6" cy="206.4" rx="11.2" ry="11.2" class="atom-16" style="opacity:0"/>
<ellipse cx="217.6" cy="223.2" rx="11.2" ry="11.2" class="atom-17" style="opacity:0"/>
<ellipse cx="222.1" cy="256.7" rx="12.4" ry="11.2" class="atom-18" style="opacity:0"/>
<ellipse cx="275.6" cy="223.2" rx="11.2" ry="11.2" class="atom-19" style="opacity:0"/>
<ellipse cx="275.6" cy="256.7" rx="11.2" ry="11.2" class="atom-20" style="opacity:0"/>
<ellipse cx="304.6" cy="206.4" rx="11.2" ry="11.2" class="atom-21" style="opacity:0"/>
<ellipse cx="333.5" cy="223.2" rx="11.2" ry="11.2" class="atom-22" style="opacity:0"/>
<ellipse cx="362.5" cy="206.4" rx="11.2" ry="11.2" class="atom-23" style="opacity:0"/>
<ellipse cx="362.5" cy="173.0" rx="11.2" ry="11.2" class="atom-24" style="opacity:0"/>
<ellipse cx="333.5" cy="156.3" rx="11.2" ry="11.2" class="atom-25" style="opacity:0"/>
<ellipse cx="304.6" cy="173.0" rx="11.2" ry="11.2" class="atom-26" style="opacity:0"/>
<ellipse cx="275.6" cy="156.3" rx="11.2" ry="11.2" class="atom-27" style="opacity:0"/>
<ellipse cx="275.6" cy="122.9" rx="11.2" ry="11.2" class="atom-28" style="opacity:0"/>
<ellipse cx="333.5" cy="122.9" rx="11.2" ry="11.2" class="atom-29" style="opacity:0"/>
<ellipse cx="362.5" cy="106.1" rx="11.2" ry="11.2" class="atom-30" style="opacity:0"/>
<ellipse cx="222.1" cy="122.9" rx="12.4" ry="11.2" class="atom-31" style="opacity:0"/>
<ellipse cx="119.3" cy="237.9" rx="11.2" ry="11.2" class="atom-32" style="opacity:0"/>
<ellipse cx="140.8" cy="263.6" rx="11.2" ry="11.2" class="atom-33" style="opacity:0"/>
<ellipse cx="86.3" cy="243.7" rx="11.2" ry="11.2" class="atom-34" style="opacity:0"/>
<ellipse cx="79.3" cy="275.2" rx="12.4" ry="11.2" class="atom-35" style="opacity:0"/>
<ellipse cx="93.1" cy="200.7" rx="12.8" ry="11.2" class="atom-36" style="opacity:0"/>
<ellipse cx="109.4" cy="24.8" rx="15.9" ry="11.2" class="atom-37" style="opacity:0"/>
<ellipse cx="39.1" cy="56.0" rx="12.8" ry="11.2" class="atom-38" style="opacity:0"/>
<path class="bond-0 atom-1 atom-0" d="M 72.8,106.1 L 45.0,125.0 L 42.5,120.6 Z" style="fill:#000000;fill-rule:evenodd;fill-opacity:1;stroke:#000000;stroke-width:0.5px;stroke-linecap:butt;stroke-linejoin:miter;stroke-opacity:1;"/>
<path class="bond-1 atom-1 atom-2" d="M 72.8,106.1 L 72.8,72.6" style="fill:none;fill-rule:evenodd;stroke:#000000;stroke-width:2.0px;stroke-linecap:butt;stroke-linejoin:miter;stroke-opacity:1"/>
<path class="bond-2 atom-2 atom-3" d="M 72.8,72.6 L 101.7,55.9" style="fill:none;fill-rule:evenodd;stroke:#000000;stroke-width:2.0px;stroke-linecap:butt;stroke-linejoin:miter;stroke-opacity:1"/>
<path class="bond-3 atom-3 atom-4" d="M 101.7,55.9 L 130.7,72.6" style="fill:none;fill-rule:evenodd;stroke:#000000;stroke-width:2.0px;stroke-linecap:butt;stroke-linejoin:miter;stroke-opacity:1"/>
<path class="bond-4 atom-4 atom-5" d="M 130.7,72.6 L 130.7,106.1" style="fill:none;fill-rule:evenodd;stroke:#000000;stroke-width:2.0px;stroke-linecap:butt;stroke-linejoin:miter;stroke-opacity:1"/>
<path class="bond-5 atom-5 atom-6" d="M 130.7,106.1 L 118.9,112.9" style="fill:none;fill-rule:evenodd;stroke:#000000;stroke-width:2.0px;stroke-linecap:butt;stroke-linejoin:miter;stroke-opacity:1"/>
<path class="bond-5 atom-5 atom-6" d="M 118.9,112.9 L 107.2,119.6" style="fill:none;fill-rule:evenodd;stroke:#FF0000;stroke-width:2.0px;stroke-linecap:butt;stroke-linejoin:miter;stroke-opacity:1"/>
<path class="bond-6 atom-5 atom-7" d="M 133.7,108.3 L 134.1,107.6" style="fill:none;fill-rule:evenodd;stroke:#000000;stroke-width:1.0px;stroke-linecap:butt;stroke-linejoin:miter;stroke-opacity:1"/>
<path class="bond-6 atom-5 atom-7" d="M 136.7,110.5 L 137.5,109.0" style="fill:none;fill-rule:evenodd;stroke:#000000;stroke-width:1.0px;stroke-linecap:butt;stroke-linejoin:miter;stroke-opacity:1"/>
<path class="bond-6 atom-5 atom-7" d="M 139.7,112.7 L 140.9,110.5" style="fill:none;fill-rule:evenodd;stroke:#000000;stroke-width:1.0px;stroke-linecap:butt;stroke-linejoin:miter;stroke-opacity:1"/>
<path class="bond-6 atom-5 atom-7" d="M 142.7,114.9 L 144.3,112.0" style="fill:none;fill-rule:evenodd;stroke:#FF0000;stroke-width:1.0px;stroke-linecap:butt;stroke-linejoin:miter;stroke-opacity:1"/>
<path class="bond-6 atom-5 atom-7" d="M 145.6,117.1 L 147.7,113.5" style="fill:none;fill-rule:evenodd;stroke:#FF0000;stroke-width:1.0px;stroke-linecap:butt;stroke-linejoin:miter;stroke-opacity:1"/>
<path class="bond-6 atom-5 atom-7" d="M 148.6,119.3 L 151.1,115.0" style="fill:none;fill-rule:evenodd;stroke:#FF0000;stroke-width:1.0px;stroke-linecap:butt;stroke-linejoin:miter;stroke-opacity:1"/>
<path class="bond-7 atom-8 atom-7" d="M 160.0,153.0 L 159.3,153.0" style="fill:none;fill-rule:evenodd;stroke:#000000;stroke-width:1.0px;stroke-linecap:butt;stroke-linejoin:miter;stroke-opacity:1"/>
<path class="bond-7 atom-8 atom-7" d="M 160.4,149.7 L 159.0,149.7" style="fill:none;fill-rule:evenodd;stroke:#000000;stroke-width:1.0px;stroke-linecap:butt;stroke-linejoin:miter;stroke-opacity:1"/>
<path class="bond-7 atom-8 atom-7" d="M 160.8,146.4 L 158.6,146.4" style="fill:none;fill-rule:evenodd;stroke:#000000;stroke-width:1.0px;stroke-linecap:butt;stroke-linejoin:miter;stroke-opacity:1"/>
<path class="bond-7 atom-8 atom-7" d="M 161.1,143.1 L 158.3,143.1" style="fill:none;fill-rule:evenodd;stroke:#000000;stroke-width:1.0px;stroke-linecap:butt;stroke-linejoin:miter;stroke-opacity:1"/>
<path class="bond-7 atom-8 atom-7" d="M 161.5,139.8 L 157.9,139.8" style="fill:none;fill-rule:evenodd;stroke:#FF0000;stroke-width:1.0px;stroke-linecap:butt;stroke-linejoin:miter;stroke-opacity:1"/>
<path class="bond-7 atom-8 atom-7" d="M 161.8,136.5 L 157.5,136.5" style="fill:none;fill-rule:evenodd;stroke:#FF0000;stroke-width:1.0px;stroke-linecap:butt;stroke-linejoin:miter;stroke-opacity:1"/>
<path class="bond-7 atom-8 atom-7" d="M 162.2,133.3 L 157.2,133.3" style="fill:none;fill-rule:evenodd;stroke:#FF0000;stroke-width:1.0px;stroke-linecap:butt;stroke-linejoin:miter;stroke-opacity:1"/>
<path class="bond-8 atom-8 atom-9" d="M 159.7,156.3 L 130.7,173.0" style="fill:none;fill-rule:evenodd;stroke:#000000;stroke-width:2.0px;stroke-linecap:butt;stroke-linejoin:miter;stroke-opacity:1"/>
<path class="bond-9 atom-9 atom-10" d="M 130.7,173.0 L 130.7,206.4" style="fill:none;fill-rule:evenodd;stroke:#000000;stroke-width:2.0px;stroke-linecap:butt;stroke-linejoin:miter;stroke-opacity:1"/>
<path class="bond-10 atom-10 atom-11" d="M 130.7,206.4 L 159.7,223.2" style="fill:none;fill-rule:evenodd;stroke:#000000;stroke-width:2.0px;stroke-linecap:butt;stroke-linejoin:miter;stroke-opacity:1"/>
<path class="bond-11 atom-11 atom-12" d="M 159.7,223.2 L 188.7,206.4" style="fill:none;fill-rule:evenodd;stroke:#000000;stroke-width:2.0px;stroke-linecap:butt;stroke-linejoin:miter;stroke-opacity:1"/>
<path class="bond-12 atom-12 atom-13" d="M 188.7,206.4 L 188.7,173.0" style="fill:none;fill-rule:evenodd;stroke:#000000;stroke-width:2.0px;stroke-linecap:butt;stroke-linejoin:miter;stroke-opacity:1"/>
<path class="bond-12 atom-12 atom-13" d="M 193.7,203.5 L 193.7,175.9" style="fill:none;fill-rule:evenodd;stroke:#000000;stroke-width:2.0px;stroke-linecap:butt;stroke-linejoin:miter;stroke-opacity:1"/>
<path class="bond-13 atom-13 atom-14" d="M 188.7,173.0 L 217.6,156.3" style="fill:none;fill-rule:evenodd;stroke:#000000;stroke-width:2.0px;stroke-linecap:butt;stroke-linejoin:miter;stroke-opacity:1"/>
<path class="bond-14 atom-14 atom-15" d="M 217.6,156.3 L 246.6,173.0" style="fill:none;fill-rule:evenodd;stroke:#000000;stroke-width:2.0px;stroke-linecap:butt;stroke-linejoin:miter;stroke-opacity:1"/>
<path class="bond-14 atom-14 atom-15" d="M 217.6,162.1 L 241.6,175.9" style="fill:none;fill-rule:evenodd;stroke:#000000;stroke-width:2.0px;stroke-linecap:butt;stroke-linejoin:miter;stroke-opacity:1"/>
<path class="bond-15 atom-15 atom-16" d="M 246.6,173.0 L 246.6,206.4" style="fill:none;fill-rule:evenodd;stroke:#000000;stroke-width:2.0px;stroke-linecap:butt;stroke-linejoin:miter;stroke-opacity:1"/>
<path class="bond-16 atom-16 atom-17" d="M 246.6,206.4 L 217.6,223.2" style="fill:none;fill-rule:evenodd;stroke:#000000;stroke-width:2.0px;stroke-linecap:butt;stroke-linejoin:miter;stroke-opacity:1"/>
<path class="bond-16 atom-16 atom-17" d="M 241.6,203.5 L 217.6,217.4" style="fill:none;fill-rule:evenodd;stroke:#000000;stroke-width:2.0px;stroke-linecap:butt;stroke-linejoin:miter;stroke-opacity:1"/>
<path class="bond-17 atom-17 atom-18" d="M 217.6,223.2 L 217.6,237.0" style="fill:none;fill-rule:evenodd;stroke:#000000;stroke-width:2.0px;stroke-linecap:butt;stroke-linejoin:miter;stroke-opacity:1"/>
<path class="bond-17 atom-17 atom-18" d="M 217.6,237.0 L 217.6,250.7" style="fill:none;fill-rule:evenodd;stroke:#FF0000;stroke-width:2.0px;stroke-linecap:butt;stroke-linejoin:miter;stroke-opacity:1"/>
<path class="bond-18 atom-16 atom-19" d="M 246.6,206.4 L 275.6,223.2" style="fill:none;fill-rule:evenodd;stroke:#000000;stroke-width:2.0px;stroke-linecap:butt;stroke-linejoin:miter;stroke-opacity:1"/>
<path class="bond-19 atom-19 atom-20" d="M 273.1,221.7 L 273.1,236.2" style="fill:none;fill-rule:evenodd;stroke:#000000;stroke-width:2.0px;stroke-linecap:butt;stroke-linejoin:miter;stroke-opacity:1"/>
<path class="bond-19 atom-19 atom-20" d="M 273.1,236.2 L 273.1,250.7" style="fill:none;fill-rule:evenodd;stroke:#FF0000;stroke-width:2.0px;stroke-linecap:butt;stroke-linejoin:miter;stroke-opacity:1"/>
<path class="bond-19 atom-19 atom-20" d="M 278.1,221.7 L 278.1,236.2" style="fill:none;fill-rule:evenodd;stroke:#000000;stroke-width:2.0px;stroke-linecap:butt;stroke-linejoin:miter;stroke-opacity:1"/>
<path class="bond-19 atom-19 atom-20" d="M 278.1,236.2 L 278.1,250.7" style="fill:none;fill-rule:evenodd;stroke:#FF0000;stroke-width:2.0px;stroke-linecap:butt;stroke-linejoin:miter;stroke-opacity:1"/>
<path class="bond-20 atom-19 atom-21" d="M 275.6,223.2 L 304.6,206.4" style="fill:none;fill-rule:evenodd;stroke:#000000;stroke-width:2.0px;stroke-linecap:butt;stroke-linejoin:miter;stroke-opacity:1"/>
<path class="bond-21 atom-21 atom-22" d="M 304.6,206.4 L 333.5,223.2" style="fill:none;fill-rule:evenodd;stroke:#000000;stroke-width:2.0px;stroke-linecap:butt;stroke-linejoin:miter;stroke-opacity:1"/>
<path class="bond-21 atom-21 atom-22" d="M 309.6,203.5 L 333.5,217.4" style="fill:none;fill-rule:evenodd;stroke:#000000;stroke-width:2.0px;stroke-linecap:butt;stroke-linejoin:miter;stroke-opacity:1"/>
<path class="bond-22 atom-22 atom-23" d="M 333.5,223.2 L 362.5,206.4" style="fill:none;fill-rule:evenodd;stroke:#000000;stroke-width:2.0px;stroke-linecap:butt;stroke-linejoin:miter;stroke-opacity:1"/>
<path class="bond-23 atom-23 atom-24" d="M 362.5,206.4 L 362.5,173.0" style="fill:none;fill-rule:evenodd;stroke:#000000;stroke-width:2.0px;stroke-linecap:butt;stroke-linejoin:miter;stroke-opacity:1"/>
<path class="bond-23 atom-23 atom-24" d="M 357.5,203.5 L 357.5,175.9" style="fill:none;fill-rule:evenodd;stroke:#000000;stroke-width:2.0px;stroke-linecap:butt;stroke-linejoin:miter;stroke-opacity:1"/>
<path class="bond-24 atom-24 atom-25" d="M 362.5,173.0 L 333.5,156.3" style="fill:none;fill-rule:evenodd;stroke:#000000;stroke-width:2.0px;stroke-linecap:butt;stroke-linejoin:miter;stroke-opacity:1"/>
<path class="bond-25 atom-25 atom-26" d="M 333.5,156.3 L 304.6,173.0" style="fill:none;fill-rule:evenodd;stroke:#000000;stroke-width:2.0px;stroke-linecap:butt;stroke-linejoin:miter;stroke-opacity:1"/>
<path class="bond-25 atom-25 atom-26" d="M 333.5,162.1 L 309.6,175.9" style="fill:none;fill-rule:evenodd;stroke:#000000;stroke-width:2.0px;stroke-linecap:butt;stroke-linejoin:miter;stroke-opacity:1"/>
<path class="bond-26 atom-26 atom-27" d="M 304.6,173.0 L 275.6,156.3" style="fill:none;fill-rule:evenodd;stroke:#000000;stroke-width:2.0px;stroke-linecap:butt;stroke-linejoin:miter;stroke-opacity:1"/>
<path class="bond-27 atom-27 atom-28" d="M 278.1,157.7 L 278.1,143.3" style="fill:none;fill-rule:evenodd;stroke:#000000;stroke-width:2.0px;stroke-linecap:butt;stroke-linejoin:miter;stroke-opacity:1"/>
<path class="bond-27 atom-27 atom-28" d="M 278.1,143.3 L 278.1,128.8" style="fill:none;fill-rule:evenodd;stroke:#FF0000;stroke-width:2.0px;stroke-linecap:butt;stroke-linejoin:miter;stroke-opacity:1"/>
<path class="bond-27 atom-27 atom-28" d="M 273.1,157.7 L 273.1,143.3" style="fill:none;fill-rule:evenodd;stroke:#000000;stroke-width:2.0px;stroke-linecap:butt;stroke-linejoin:miter;stroke-opacity:1"/>
<path class="bond-27 atom-27 atom-28" d="M 273.1,143.3 L 273.1,128.8" style="fill:none;fill-rule:evenodd;stroke:#FF0000;stroke-width:2.0px;stroke-linecap:butt;stroke-linejoin:miter;stroke-opacity:1"/>
<path class="bond-28 atom-25 atom-29" d="M 333.5,156.3 L 333.5,142.5" style="fill:none;fill-rule:evenodd;stroke:#000000;stroke-width:2.0px;stroke-linecap:butt;stroke-linejoin:miter;stroke-opacity:1"/>
<path class="bond-28 atom-25 atom-29" d="M 333.5,142.5 L 333.5,128.8" style="fill:none;fill-rule:evenodd;stroke:#FF0000;stroke-width:2.0px;stroke-linecap:butt;stroke-linejoin:miter;stroke-opacity:1"/>
<path class="bond-29 atom-29 atom-30" d="M 339.0,119.6 L 350.8,112.9" style="fill:none;fill-rule:evenodd;stroke:#FF0000;stroke-width:2.0px;stroke-linecap:butt;stroke-linejoin:miter;stroke-opacity:1"/>
<path class="bond-29 atom-29 atom-30" d="M 350.8,112.9 L 362.5,106.1" style="fill:none;fill-rule:evenodd;stroke:#000000;stroke-width:2.0px;stroke-linecap:butt;stroke-linejoin:miter;stroke-opacity:1"/>
<path class="bond-30 atom-14 atom-31" d="M 217.6,156.3 L 217.6,142.5" style="fill:none;fill-rule:evenodd;stroke:#000000;stroke-width:2.0px;stroke-linecap:butt;stroke-linejoin:miter;stroke-opacity:1"/>
<path class="bond-30 atom-14 atom-31" d="M 217.6,142.5 L 217.6,128.8" style="fill:none;fill-rule:evenodd;stroke:#FF0000;stroke-width:2.0px;stroke-linecap:butt;stroke-linejoin:miter;stroke-opacity:1"/>
<path class="bond-31 atom-10 atom-32" d="M 130.7,206.4 L 119.3,237.9" style="fill:none;fill-rule:evenodd;stroke:#000000;stroke-width:2.0px;stroke-linecap:butt;stroke-linejoin:miter;stroke-opacity:1"/>
<path class="bond-32 atom-32 atom-33" d="M 116.4,238.4 L 125.2,248.8" style="fill:none;fill-rule:evenodd;stroke:#000000;stroke-width:2.0px;stroke-linecap:butt;stroke-linejoin:miter;stroke-opacity:1"/>
<path class="bond-32 atom-32 atom-33" d="M 125.2,248.8 L 133.9,259.2" style="fill:none;fill-rule:evenodd;stroke:#FF0000;stroke-width:2.0px;stroke-linecap:butt;stroke-linejoin:miter;stroke-opacity:1"/>
<path class="bond-32 atom-32 atom-33" d="M 120.3,235.2 L 129.0,245.6" style="fill:none;fill-rule:evenodd;stroke:#000000;stroke-width:2.0px;stroke-linecap:butt;stroke-linejoin:miter;stroke-opacity:1"/>
<path class="bond-32 atom-32 atom-33" d="M 129.0,245.6 L 137.7,256.0" style="fill:none;fill-rule:evenodd;stroke:#FF0000;stroke-width:2.0px;stroke-linecap:butt;stroke-linejoin:miter;stroke-opacity:1"/>
<path class="bond-33 atom-32 atom-34" d="M 119.3,237.9 L 86.3,243.7" style="fill:none;fill-rule:evenodd;stroke:#000000;stroke-width:2.0px;stroke-linecap:butt;stroke-linejoin:miter;stroke-opacity:1"/>
<path class="bond-34 atom-34 atom-35" d="M 86.3,243.7 L 81.7,256.5" style="fill:none;fill-rule:evenodd;stroke:#000000;stroke-width:2.0px;stroke-linecap:butt;stroke-linejoin:miter;stroke-opacity:1"/>
<path class="bond-34 atom-34 atom-35" d="M 81.7,256.5 L 77.0,269.2" style="fill:none;fill-rule:evenodd;stroke:#FF0000;stroke-width:2.0px;stroke-linecap:butt;stroke-linejoin:miter;stroke-opacity:1"/>
<path class="bond-35 atom-10 atom-36" d="M 127.4,206.2 L 127.5,205.6" style="fill:none;fill-rule:evenodd;stroke:#000000;stroke-width:1.0px;stroke-linecap:butt;stroke-linejoin:miter;stroke-opacity:1"/>
<path class="bond-35 atom-10 atom-36" d="M 124.0,205.9 L 124.2,204.7" style="fill:none;fill-rule:evenodd;stroke:#000000;stroke-width:1.0px;stroke-linecap:butt;stroke-linejoin:miter;stroke-opacity:1"/>
<path class="bond-35 atom-10 atom-36" d="M 120.6,205.6 L 121.0,203.8" style="fill:none;fill-rule:evenodd;stroke:#000000;stroke-width:1.0px;stroke-linecap:butt;stroke-linejoin:miter;stroke-opacity:1"/>
<path class="bond-35 atom-10 atom-36" d="M 117.3,205.4 L 117.7,202.9" style="fill:none;fill-rule:evenodd;stroke:#000000;stroke-width:1.0px;stroke-linecap:butt;stroke-linejoin:miter;stroke-opacity:1"/>
<path class="bond-35 atom-10 atom-36" d="M 113.9,205.1 L 114.5,202.0" style="fill:none;fill-rule:evenodd;stroke:#FF0000;stroke-width:1.0px;stroke-linecap:butt;stroke-linejoin:miter;stroke-opacity:1"/>
<path class="bond-35 atom-10 atom-36" d="M 110.6,204.8 L 111.2,201.1" style="fill:none;fill-rule:evenodd;stroke:#FF0000;stroke-width:1.0px;stroke-linecap:butt;stroke-linejoin:miter;stroke-opacity:1"/>
<path class="bond-35 atom-10 atom-36" d="M 107.2,204.5 L 108.0,200.2" style="fill:none;fill-rule:evenodd;stroke:#FF0000;stroke-width:1.0px;stroke-linecap:butt;stroke-linejoin:miter;stroke-opacity:1"/>
<path class="bond-35 atom-10 atom-36" d="M 103.9,204.3 L 104.7,199.3" style="fill:none;fill-rule:evenodd;stroke:#FF0000;stroke-width:1.0px;stroke-linecap:butt;stroke-linejoin:miter;stroke-opacity:1"/>
<path class="bond-36 atom-3 atom-37" d="M 101.7,55.9 L 100.5,42.6 L 103.0,42.6 Z" style="fill:#000000;fill-rule:evenodd;fill-opacity:1;stroke:#000000;stroke-width:0.5px;stroke-linecap:butt;stroke-linejoin:miter;stroke-opacity:1;"/>
<path class="bond-36 atom-3 atom-37" d="M 100.5,42.6 L 104.2,29.4 L 99.2,29.4 Z" style="fill:#0000FF;fill-rule:evenodd;fill-opacity:1;stroke:#0000FF;stroke-width:0.5px;stroke-linecap:butt;stroke-linejoin:miter;stroke-opacity:1;"/>
<path class="bond-36 atom-3 atom-37" d="M 100.5,42.6 L 103.0,42.6 L 104.2,29.4 Z" style="fill:#0000FF;fill-rule:evenodd;fill-opacity:1;stroke:#0000FF;stroke-width:0.5px;stroke-linecap:butt;stroke-linejoin:miter;stroke-opacity:1;"/>
<path class="bond-37 atom-2 atom-38" d="M 72.8,72.6 L 60.9,67.2 L 62.2,65.1 Z" style="fill:#000000;fill-rule:evenodd;fill-opacity:1;stroke:#000000;stroke-width:0.5px;stroke-linecap:butt;stroke-linejoin:miter;stroke-opacity:1;"/>
<path class="bond-37 atom-2 atom-38" d="M 60.9,67.2 L 51.6,57.5 L 49.1,61.8 Z" style="fill:#FF0000;fill-rule:evenodd;fill-opacity:1;stroke:#FF0000;stroke-width:0.5px;stroke-linecap:butt;stroke-linejoin:miter;stroke-opacity:1;"/>
<path class="bond-37 atom-2 atom-38" d="M 60.9,67.2 L 62.2,65.1 L 51.6,57.5 Z" style="fill:#FF0000;fill-rule:evenodd;fill-opacity:1;stroke:#FF0000;stroke-width:0.5px;stroke-linecap:butt;stroke-linejoin:miter;stroke-opacity:1;"/>
<path class="bond-38 atom-6 atom-1" d="M 96.3,119.6 L 84.5,112.9" style="fill:none;fill-rule:evenodd;stroke:#FF0000;stroke-width:2.0px;stroke-linecap:butt;stroke-linejoin:miter;stroke-opacity:1"/>
<path class="bond-38 atom-6 atom-1" d="M 84.5,112.9 L 72.8,106.1" style="fill:none;fill-rule:evenodd;stroke:#000000;stroke-width:2.0px;stroke-linecap:butt;stroke-linejoin:miter;stroke-opacity:1"/>
<path class="bond-39 atom-13 atom-8" d="M 188.7,173.0 L 159.7,156.3" style="fill:none;fill-rule:evenodd;stroke:#000000;stroke-width:2.0px;stroke-linecap:butt;stroke-linejoin:miter;stroke-opacity:1"/>
<path class="bond-40 atom-17 atom-12" d="M 217.6,223.2 L 188.7,206.4" style="fill:none;fill-rule:evenodd;stroke:#000000;stroke-width:2.0px;stroke-linecap:butt;stroke-linejoin:miter;stroke-opacity:1"/>
<path class="bond-41 atom-27 atom-15" d="M 275.6,156.3 L 246.6,173.0" style="fill:none;fill-rule:evenodd;stroke:#000000;stroke-width:2.0px;stroke-linecap:butt;stroke-linejoin:miter;stroke-opacity:1"/>
<path class="bond-42 atom-26 atom-21" d="M 304.6,173.0 L 304.6,206.4" style="fill:none;fill-rule:evenodd;stroke:#000000;stroke-width:2.0px;stroke-linecap:butt;stroke-linejoin:miter;stroke-opacity:1"/>
<path d="M 72.8,104.4 L 72.8,106.1 L 73.3,106.4" style="fill:none;stroke:#000000;stroke-width:2.0px;stroke-linecap:butt;stroke-linejoin:miter;stroke-opacity:1;"/>
<path d="M 72.8,74.3 L 72.8,72.6 L 74.2,71.8" style="fill:none;stroke:#000000;stroke-width:2.0px;stroke-linecap:butt;stroke-linejoin:miter;stroke-opacity:1;"/>
<path d="M 100.3,56.7 L 101.7,55.9 L 103.2,56.7" style="fill:none;stroke:#000000;stroke-width:2.0px;stroke-linecap:butt;stroke-linejoin:miter;stroke-opacity:1;"/>
<path d="M 129.3,71.8 L 130.7,72.6 L 130.7,74.3" style="fill:none;stroke:#000000;stroke-width:2.0px;stroke-linecap:butt;stroke-linejoin:miter;stroke-opacity:1;"/>
<path d="M 130.7,104.4 L 130.7,106.1 L 130.1,106.4" style="fill:none;stroke:#000000;stroke-width:2.0px;stroke-linecap:butt;stroke-linejoin:miter;stroke-opacity:1;"/>
<path d="M 158.2,157.1 L 159.7,156.3 L 161.1,157.1" style="fill:none;stroke:#000000;stroke-width:2.0px;stroke-linecap:butt;stroke-linejoin:miter;stroke-opacity:1;"/>
<path d="M 132.2,172.1 L 130.7,173.0 L 130.7,174.7" style="fill:none;stroke:#000000;stroke-width:2.0px;stroke-linecap:butt;stroke-linejoin:miter;stroke-opacity:1;"/>
<path d="M 158.2,222.3 L 159.7,223.2 L 161.1,222.3" style="fill:none;stroke:#000000;stroke-width:2.0px;stroke-linecap:butt;stroke-linejoin:miter;stroke-opacity:1;"/>
<path d="M 274.1,222.3 L 275.6,223.2 L 277.0,222.3" style="fill:none;stroke:#000000;stroke-width:2.0px;stroke-linecap:butt;stroke-linejoin:miter;stroke-opacity:1;"/>
<path d="M 332.1,222.3 L 333.5,223.2 L 335.0,222.3" style="fill:none;stroke:#000000;stroke-width:2.0px;stroke-linecap:butt;stroke-linejoin:miter;stroke-opacity:1;"/>
<path d="M 361.1,207.3 L 362.5,206.4 L 362.5,204.8" style="fill:none;stroke:#000000;stroke-width:2.0px;stroke-linecap:butt;stroke-linejoin:miter;stroke-opacity:1;"/>
<path d="M 362.5,174.7 L 362.5,173.0 L 361.1,172.1" style="fill:none;stroke:#000000;stroke-width:2.0px;stroke-linecap:butt;stroke-linejoin:miter;stroke-opacity:1;"/>
<path d="M 277.0,157.1 L 275.6,156.3 L 274.1,157.1" style="fill:none;stroke:#000000;stroke-width:2.0px;stroke-linecap:butt;stroke-linejoin:miter;stroke-opacity:1;"/>
<path d="M 119.8,236.3 L 119.3,237.9 L 117.6,238.2" style="fill:none;stroke:#000000;stroke-width:2.0px;stroke-linecap:butt;stroke-linejoin:miter;stroke-opacity:1;"/>
<path d="M 88.0,243.4 L 86.3,243.7 L 86.1,244.3" style="fill:none;stroke:#000000;stroke-width:2.0px;stroke-linecap:butt;stroke-linejoin:miter;stroke-opacity:1;"/>
<path class="atom-6" d="M 97.4 122.8 Q 97.4 120.5, 98.5 119.3 Q 99.6 118.0, 101.7 118.0 Q 103.8 118.0, 105.0 119.3 Q 106.1 120.5, 106.1 122.8 Q 106.1 125.1, 104.9 126.4 Q 103.8 127.7, 101.7 127.7 Q 99.6 127.7, 98.5 126.4 Q 97.4 125.1, 97.4 122.8 M 101.7 126.7 Q 103.2 126.7, 104.0 125.7 Q 104.7 124.7, 104.7 122.8 Q 104.7 121.0, 104.0 120.0 Q 103.2 119.1, 101.7 119.1 Q 100.3 119.1, 99.5 120.0 Q 98.7 121.0, 98.7 122.8 Q 98.7 124.7, 99.5 125.7 Q 100.3 126.7, 101.7 126.7 " fill="#FF0000"/>
<path class="atom-7" d="M 155.3 122.8 Q 155.3 120.5, 156.5 119.3 Q 157.6 118.0, 159.7 118.0 Q 161.8 118.0, 162.9 119.3 Q 164.0 120.5, 164.0 122.8 Q 164.0 125.1, 162.9 126.4 Q 161.8 127.7, 159.7 127.7 Q 157.6 127.7, 156.5 126.4 Q 155.3 125.1, 155.3 122.8 M 159.7 126.7 Q 161.1 126.7, 161.9 125.7 Q 162.7 124.7, 162.7 122.8 Q 162.7 121.0, 161.9 120.0 Q 161.1 119.1, 159.7 119.1 Q 158.2 119.1, 157.4 120.0 Q 156.7 121.0, 156.7 122.8 Q 156.7 124.7, 157.4 125.7 Q 158.2 126.7, 159.7 126.7 " fill="#FF0000"/>
<path class="atom-18" d="M 213.3 256.7 Q 213.3 254.4, 214.4 253.1 Q 215.5 251.8, 217.6 251.8 Q 219.7 251.8, 220.9 253.1 Q 222.0 254.4, 222.0 256.7 Q 222.0 259.0, 220.8 260.3 Q 219.7 261.6, 217.6 261.6 Q 215.5 261.6, 214.4 260.3 Q 213.3 259.0, 213.3 256.7 M 217.6 260.5 Q 219.1 260.5, 219.9 259.5 Q 220.6 258.6, 220.6 256.7 Q 220.6 254.8, 219.9 253.9 Q 219.1 252.9, 217.6 252.9 Q 216.2 252.9, 215.4 253.8 Q 214.6 254.8, 214.6 256.7 Q 214.6 258.6, 215.4 259.5 Q 216.2 260.5, 217.6 260.5 " fill="#FF0000"/>
<path class="atom-18" d="M 223.5 251.9 L 224.7 251.9 L 224.7 256.0 L 229.6 256.0 L 229.6 251.9 L 230.9 251.9 L 230.9 261.4 L 229.6 261.4 L 229.6 257.0 L 224.7 257.0 L 224.7 261.4 L 223.5 261.4 L 223.5 251.9 " fill="#FF0000"/>
<path class="atom-20" d="M 271.2 256.7 Q 271.2 254.4, 272.4 253.1 Q 273.5 251.8, 275.6 251.8 Q 277.7 251.8, 278.8 253.1 Q 279.9 254.4, 279.9 256.7 Q 279.9 259.0, 278.8 260.3 Q 277.7 261.6, 275.6 261.6 Q 273.5 261.6, 272.4 260.3 Q 271.2 259.0, 271.2 256.7 M 275.6 260.5 Q 277.0 260.5, 277.8 259.5 Q 278.6 258.6, 278.6 256.7 Q 278.6 254.8, 277.8 253.9 Q 277.0 252.9, 275.6 252.9 Q 274.1 252.9, 273.4 253.8 Q 272.6 254.8, 272.6 256.7 Q 272.6 258.6, 273.4 259.5 Q 274.1 260.5, 275.6 260.5 " fill="#FF0000"/>
<path class="atom-28" d="M 271.2 122.8 Q 271.2 120.5, 272.4 119.3 Q 273.5 118.0, 275.6 118.0 Q 277.7 118.0, 278.8 119.3 Q 279.9 120.5, 279.9 122.8 Q 279.9 125.1, 278.8 126.4 Q 277.7 127.7, 275.6 127.7 Q 273.5 127.7, 272.4 126.4 Q 271.2 125.1, 271.2 122.8 M 275.6 126.7 Q 277.0 126.7, 277.8 125.7 Q 278.6 124.7, 278.6 122.8 Q 278.6 121.0, 277.8 120.0 Q 277.0 119.1, 275.6 119.1 Q 274.1 119.1, 273.4 120.0 Q 272.6 121.0, 272.6 122.8 Q 272.6 124.7, 273.4 125.7 Q 274.1 126.7, 275.6 126.7 " fill="#FF0000"/>
<path class="atom-29" d="M 329.2 122.8 Q 329.2 120.5, 330.3 119.3 Q 331.4 118.0, 333.5 118.0 Q 335.6 118.0, 336.8 119.3 Q 337.9 120.5, 337.9 122.8 Q 337.9 125.1, 336.8 126.4 Q 335.6 127.7, 333.5 127.7 Q 331.5 127.7, 330.3 126.4 Q 329.2 125.1, 329.2 122.8 M 333.5 126.7 Q 335.0 126.7, 335.8 125.7 Q 336.6 124.7, 336.6 122.8 Q 336.6 121.0, 335.8 120.0 Q 335.0 119.1, 333.5 119.1 Q 332.1 119.1, 331.3 120.0 Q 330.5 121.0, 330.5 122.8 Q 330.5 124.7, 331.3 125.7 Q 332.1 126.7, 333.5 126.7 " fill="#FF0000"/>
<path class="atom-31" d="M 213.3 122.8 Q 213.3 120.5, 214.4 119.3 Q 215.5 118.0, 217.6 118.0 Q 219.7 118.0, 220.9 119.3 Q 222.0 120.5, 222.0 122.8 Q 222.0 125.1, 220.8 126.4 Q 219.7 127.7, 217.6 127.7 Q 215.5 127.7, 214.4 126.4 Q 213.3 125.1, 213.3 122.8 M 217.6 126.7 Q 219.1 126.7, 219.9 125.7 Q 220.6 124.7, 220.6 122.8 Q 220.6 121.0, 219.9 120.0 Q 219.1 119.1, 217.6 119.1 Q 216.2 119.1, 215.4 120.0 Q 214.6 121.0, 214.6 122.8 Q 214.6 124.7, 215.4 125.7 Q 216.2 126.7, 217.6 126.7 " fill="#FF0000"/>
<path class="atom-31" d="M 223.5 118.1 L 224.7 118.1 L 224.7 122.1 L 229.6 122.1 L 229.6 118.1 L 230.9 118.1 L 230.9 127.6 L 229.6 127.6 L 229.6 123.2 L 224.7 123.2 L 224.7 127.6 L 223.5 127.6 L 223.5 118.1 " fill="#FF0000"/>
<path class="atom-33" d="M 136.4 263.5 Q 136.4 261.3, 137.5 260.0 Q 138.7 258.7, 140.8 258.7 Q 142.9 258.7, 144.0 260.0 Q 145.1 261.3, 145.1 263.5 Q 145.1 265.8, 144.0 267.2 Q 142.8 268.5, 140.8 268.5 Q 138.7 268.5, 137.5 267.2 Q 136.4 265.9, 136.4 263.5 M 140.8 267.4 Q 142.2 267.4, 143.0 266.4 Q 143.8 265.4, 143.8 263.5 Q 143.8 261.7, 143.0 260.7 Q 142.2 259.8, 140.8 259.8 Q 139.3 259.8, 138.5 260.7 Q 137.8 261.7, 137.8 263.5 Q 137.8 265.5, 138.5 266.4 Q 139.3 267.4, 140.8 267.4 " fill="#FF0000"/>
<path class="atom-35" d="M 70.5 275.2 Q 70.5 272.9, 71.6 271.6 Q 72.8 270.3, 74.9 270.3 Q 77.0 270.3, 78.1 271.6 Q 79.2 272.9, 79.2 275.2 Q 79.2 277.5, 78.1 278.8 Q 76.9 280.1, 74.9 280.1 Q 72.8 280.1, 71.6 278.8 Q 70.5 277.5, 70.5 275.2 M 74.9 279.0 Q 76.3 279.0, 77.1 278.0 Q 77.9 277.1, 77.9 275.2 Q 77.9 273.3, 77.1 272.4 Q 76.3 271.4, 74.9 271.4 Q 73.4 271.4, 72.6 272.4 Q 71.9 273.3, 71.9 275.2 Q 71.9 277.1, 72.6 278.0 Q 73.4 279.0, 74.9 279.0 " fill="#FF0000"/>
<path class="atom-35" d="M 80.7 270.5 L 82.0 270.5 L 82.0 274.5 L 86.8 274.5 L 86.8 270.5 L 88.1 270.5 L 88.1 279.9 L 86.8 279.9 L 86.8 275.6 L 82.0 275.6 L 82.0 279.9 L 80.7 279.9 L 80.7 270.5 " fill="#FF0000"/>
<path class="atom-36" d="M 84.0 196.0 L 85.3 196.0 L 85.3 200.0 L 90.2 200.0 L 90.2 196.0 L 91.5 196.0 L 91.5 205.4 L 90.2 205.4 L 90.2 201.0 L 85.3 201.0 L 85.3 205.4 L 84.0 205.4 L 84.0 196.0 " fill="#FF0000"/>
<path class="atom-36" d="M 93.4 200.7 Q 93.4 198.4, 94.5 197.1 Q 95.7 195.8, 97.8 195.8 Q 99.9 195.8, 101.0 197.1 Q 102.1 198.4, 102.1 200.7 Q 102.1 203.0, 101.0 204.3 Q 99.8 205.6, 97.8 205.6 Q 95.7 205.6, 94.5 204.3 Q 93.4 203.0, 93.4 200.7 M 97.8 204.5 Q 99.2 204.5, 100.0 203.5 Q 100.8 202.6, 100.8 200.7 Q 100.8 198.8, 100.0 197.9 Q 99.2 196.9, 97.8 196.9 Q 96.3 196.9, 95.5 197.9 Q 94.7 198.8, 94.7 200.7 Q 94.7 202.6, 95.5 203.5 Q 96.3 204.5, 97.8 204.5 " fill="#FF0000"/>
<path class="atom-37" d="M 99.6 17.7 L 102.7 22.7 Q 103.0 23.2, 103.5 24.1 Q 104.0 25.0, 104.1 25.0 L 104.1 17.7 L 105.3 17.7 L 105.3 27.2 L 104.0 27.2 L 100.7 21.7 Q 100.3 21.0, 99.9 20.3 Q 99.5 19.6, 99.4 19.3 L 99.4 27.2 L 98.1 27.2 L 98.1 17.7 L 99.6 17.7 " fill="#0000FF"/>
<path class="atom-37" d="M 107.1 17.7 L 108.4 17.7 L 108.4 21.7 L 113.3 21.7 L 113.3 17.7 L 114.5 17.7 L 114.5 27.2 L 113.3 27.2 L 113.3 22.8 L 108.4 22.8 L 108.4 27.2 L 107.1 27.2 L 107.1 17.7 " fill="#0000FF"/>
<path class="atom-37" d="M 116.4 26.8 Q 116.6 26.2, 117.2 25.9 Q 117.7 25.6, 118.5 25.6 Q 119.4 25.6, 120.0 26.1 Q 120.5 26.6, 120.5 27.5 Q 120.5 28.4, 119.8 29.3 Q 119.1 30.2, 117.7 31.2 L 120.6 31.2 L 120.6 31.9 L 116.4 31.9 L 116.4 31.3 Q 117.6 30.5, 118.2 29.9 Q 118.9 29.2, 119.3 28.7 Q 119.6 28.1, 119.6 27.6 Q 119.6 26.9, 119.3 26.6 Q 119.0 26.3, 118.5 26.3 Q 118.0 26.3, 117.6 26.5 Q 117.3 26.7, 117.1 27.1 L 116.4 26.8 " fill="#0000FF"/>
<path class="atom-38" d="M 30.1 51.2 L 31.4 51.2 L 31.4 55.2 L 36.2 55.2 L 36.2 51.2 L 37.5 51.2 L 37.5 60.7 L 36.2 60.7 L 36.2 56.3 L 31.4 56.3 L 31.4 60.7 L 30.1 60.7 L 30.1 51.2 " fill="#FF0000"/>
<path class="atom-38" d="M 39.4 55.9 Q 39.4 53.6, 40.6 52.4 Q 41.7 51.1, 43.8 51.1 Q 45.9 51.1, 47.0 52.4 Q 48.1 53.6, 48.1 55.9 Q 48.1 58.2, 47.0 59.5 Q 45.9 60.8, 43.8 60.8 Q 41.7 60.8, 40.6 59.5 Q 39.4 58.2, 39.4 55.9 M 43.8 59.7 Q 45.2 59.7, 46.0 58.8 Q 46.8 57.8, 46.8 55.9 Q 46.8 54.0, 46.0 53.1 Q 45.2 52.2, 43.8 52.2 Q 42.3 52.2, 41.5 53.1 Q 40.8 54.0, 40.8 55.9 Q 40.8 57.8, 41.5 58.8 Q 42.3 59.7, 43.8 59.7 " fill="#FF0000"/>
</svg>