<?xml version="1.0" ?><svg xmlns="http://www.w3.org/2000/svg" xmlns:rdkit="http://www.rdkit.org/xml" xmlns:xlink="http://www.w3.org/1999/xlink" version="1.1" baseProfile="full" xml:space="preserve" width="400px" height="300px" viewBox="0 0 400 300">
<!-- END OF HEADER -->
<ellipse cx="29.3" cy="204.7" rx="11.1" ry="11.1" class="atom-0" style="opacity:0"/>
<ellipse cx="58.1" cy="221.3" rx="11.1" ry="11.1" class="atom-1" style="opacity:0"/>
<ellipse cx="87.0" cy="204.7" rx="11.1" ry="11.1" class="atom-2" style="opacity:0"/>
<ellipse cx="87.0" cy="171.4" rx="11.1" ry="11.1" class="atom-3" style="opacity:0"/>
<ellipse cx="58.1" cy="154.7" rx="11.1" ry="11.1" class="atom-4" style="opacity:0"/>
<ellipse cx="115.8" cy="221.3" rx="11.1" ry="11.1" class="atom-5" style="opacity:0"/>
<ellipse cx="144.7" cy="204.7" rx="11.1" ry="11.1" class="atom-6" style="opacity:0"/>
<ellipse cx="173.5" cy="221.4" rx="11.1" ry="11.1" class="atom-7" style="opacity:0"/>
<ellipse cx="202.4" cy="204.7" rx="11.1" ry="11.1" class="atom-8" style="opacity:0"/>
<ellipse cx="202.4" cy="171.4" rx="11.1" ry="11.1" class="atom-9" style="opacity:0"/>
<ellipse cx="173.5" cy="154.7" rx="11.1" ry="11.1" class="atom-10" style="opacity:0"/>
<ellipse cx="231.2" cy="154.7" rx="11.1" ry="11.1" class="atom-11" style="opacity:0"/>
<ellipse cx="260.1" cy="171.4" rx="11.1" ry="11.1" class="atom-12" style="opacity:0"/>
<ellipse cx="260.1" cy="204.7" rx="11.1" ry="11.1" class="atom-13" style="opacity:0"/>
<ellipse cx="231.2" cy="221.3" rx="11.1" ry="11.1" class="atom-14" style="opacity:0"/>
<ellipse cx="231.2" cy="254.6" rx="11.1" ry="11.1" class="atom-15" style="opacity:0"/>
<ellipse cx="288.9" cy="154.7" rx="11.1" ry="11.1" class="atom-16" style="opacity:0"/>
<ellipse cx="317.7" cy="171.4" rx="11.1" ry="11.1" class="atom-17" style="opacity:0"/>
<ellipse cx="288.9" cy="121.4" rx="11.1" ry="11.1" class="atom-18" style="opacity:0"/>
<ellipse cx="315.8" cy="101.8" rx="11.1" ry="11.1" class="atom-19" style="opacity:0"/>
<ellipse cx="348.4" cy="108.7" rx="11.1" ry="11.1" class="atom-20" style="opacity:0"/>
<ellipse cx="370.7" cy="84.0" rx="11.1" ry="11.1" class="atom-21" style="opacity:0"/>
<ellipse cx="360.4" cy="52.3" rx="11.1" ry="11.1" class="atom-22" style="opacity:0"/>
<ellipse cx="327.8" cy="45.4" rx="11.1" ry="11.1" class="atom-23" style="opacity:0"/>
<ellipse cx="305.6" cy="70.1" rx="11.1" ry="11.1" class="atom-24" style="opacity:0"/>
<ellipse cx="272.2" cy="70.2" rx="11.1" ry="11.1" class="atom-25" style="opacity:0"/>
<ellipse cx="262.0" cy="101.8" rx="11.1" ry="11.1" class="atom-26" style="opacity:0"/>
<ellipse cx="230.3" cy="112.1" rx="11.1" ry="11.1" class="atom-27" style="opacity:0"/>
<ellipse cx="205.5" cy="89.8" rx="11.1" ry="11.1" class="atom-28" style="opacity:0"/>
<ellipse cx="173.8" cy="100.1" rx="11.1" ry="11.1" class="atom-29" style="opacity:0"/>
<ellipse cx="149.1" cy="77.8" rx="11.1" ry="11.1" class="atom-30" style="opacity:0"/>
<path class="bond-0 atom-0 atom-1" d="M 29.3,204.7 L 58.1,221.3" style="fill:none;fill-rule:evenodd;stroke:#000000;stroke-width:2.0px;stroke-linecap:butt;stroke-linejoin:miter;stroke-opacity:1"/>
<path class="bond-1 atom-1 atom-2" d="M 58.1,221.3 L 70.2,214.3" style="fill:none;fill-rule:evenodd;stroke:#000000;stroke-width:2.0px;stroke-linecap:butt;stroke-linejoin:miter;stroke-opacity:1"/>
<path class="bond-1 atom-1 atom-2" d="M 70.2,214.3 L 82.3,207.4" style="fill:none;fill-rule:evenodd;stroke:#0000FF;stroke-width:2.0px;stroke-linecap:butt;stroke-linejoin:miter;stroke-opacity:1"/>
<path class="bond-2 atom-2 atom-3" d="M 87.0,198.8 L 87.0,185.1" style="fill:none;fill-rule:evenodd;stroke:#0000FF;stroke-width:2.0px;stroke-linecap:butt;stroke-linejoin:miter;stroke-opacity:1"/>
<path class="bond-2 atom-2 atom-3" d="M 87.0,185.1 L 87.0,171.4" style="fill:none;fill-rule:evenodd;stroke:#000000;stroke-width:2.0px;stroke-linecap:butt;stroke-linejoin:miter;stroke-opacity:1"/>
<path class="bond-3 atom-3 atom-4" d="M 87.0,171.4 L 58.1,154.7" style="fill:none;fill-rule:evenodd;stroke:#000000;stroke-width:2.0px;stroke-linecap:butt;stroke-linejoin:miter;stroke-opacity:1"/>
<path class="bond-4 atom-2 atom-5" d="M 91.7,207.4 L 103.7,214.3" style="fill:none;fill-rule:evenodd;stroke:#0000FF;stroke-width:2.0px;stroke-linecap:butt;stroke-linejoin:miter;stroke-opacity:1"/>
<path class="bond-4 atom-2 atom-5" d="M 103.7,214.3 L 115.8,221.3" style="fill:none;fill-rule:evenodd;stroke:#000000;stroke-width:2.0px;stroke-linecap:butt;stroke-linejoin:miter;stroke-opacity:1"/>
<path class="bond-5 atom-5 atom-6" d="M 115.8,221.3 L 144.7,204.7" style="fill:none;fill-rule:evenodd;stroke:#000000;stroke-width:2.0px;stroke-linecap:butt;stroke-linejoin:miter;stroke-opacity:1"/>
<path class="bond-6 atom-6 atom-7" d="M 144.7,204.7 L 156.4,211.4" style="fill:none;fill-rule:evenodd;stroke:#000000;stroke-width:2.0px;stroke-linecap:butt;stroke-linejoin:miter;stroke-opacity:1"/>
<path class="bond-6 atom-6 atom-7" d="M 156.4,211.4 L 168.1,218.2" style="fill:none;fill-rule:evenodd;stroke:#FF0000;stroke-width:2.0px;stroke-linecap:butt;stroke-linejoin:miter;stroke-opacity:1"/>
<path class="bond-7 atom-7 atom-8" d="M 178.9,218.2 L 190.7,211.4" style="fill:none;fill-rule:evenodd;stroke:#FF0000;stroke-width:2.0px;stroke-linecap:butt;stroke-linejoin:miter;stroke-opacity:1"/>
<path class="bond-7 atom-7 atom-8" d="M 190.7,211.4 L 202.4,204.7" style="fill:none;fill-rule:evenodd;stroke:#000000;stroke-width:2.0px;stroke-linecap:butt;stroke-linejoin:miter;stroke-opacity:1"/>
<path class="bond-8 atom-8 atom-9" d="M 202.4,204.7 L 202.4,171.4" style="fill:none;fill-rule:evenodd;stroke:#000000;stroke-width:2.0px;stroke-linecap:butt;stroke-linejoin:miter;stroke-opacity:1"/>
<path class="bond-8 atom-8 atom-9" d="M 207.4,201.8 L 207.4,174.2" style="fill:none;fill-rule:evenodd;stroke:#000000;stroke-width:2.0px;stroke-linecap:butt;stroke-linejoin:miter;stroke-opacity:1"/>
<path class="bond-9 atom-9 atom-10" d="M 202.4,171.4 L 188.8,163.5" style="fill:none;fill-rule:evenodd;stroke:#000000;stroke-width:2.0px;stroke-linecap:butt;stroke-linejoin:miter;stroke-opacity:1"/>
<path class="bond-9 atom-9 atom-10" d="M 188.8,163.5 L 175.2,155.7" style="fill:none;fill-rule:evenodd;stroke:#A01EEF;stroke-width:2.0px;stroke-linecap:butt;stroke-linejoin:miter;stroke-opacity:1"/>
<path class="bond-10 atom-9 atom-11" d="M 202.4,171.4 L 231.2,154.7" style="fill:none;fill-rule:evenodd;stroke:#000000;stroke-width:2.0px;stroke-linecap:butt;stroke-linejoin:miter;stroke-opacity:1"/>
<path class="bond-11 atom-11 atom-12" d="M 231.2,154.7 L 260.1,171.4" style="fill:none;fill-rule:evenodd;stroke:#000000;stroke-width:2.0px;stroke-linecap:butt;stroke-linejoin:miter;stroke-opacity:1"/>
<path class="bond-11 atom-11 atom-12" d="M 231.2,160.5 L 255.1,174.2" style="fill:none;fill-rule:evenodd;stroke:#000000;stroke-width:2.0px;stroke-linecap:butt;stroke-linejoin:miter;stroke-opacity:1"/>
<path class="bond-12 atom-12 atom-13" d="M 260.1,171.4 L 260.1,204.7" style="fill:none;fill-rule:evenodd;stroke:#000000;stroke-width:2.0px;stroke-linecap:butt;stroke-linejoin:miter;stroke-opacity:1"/>
<path class="bond-13 atom-13 atom-14" d="M 260.1,204.7 L 231.2,221.3" style="fill:none;fill-rule:evenodd;stroke:#000000;stroke-width:2.0px;stroke-linecap:butt;stroke-linejoin:miter;stroke-opacity:1"/>
<path class="bond-13 atom-13 atom-14" d="M 255.1,201.8 L 231.2,215.5" style="fill:none;fill-rule:evenodd;stroke:#000000;stroke-width:2.0px;stroke-linecap:butt;stroke-linejoin:miter;stroke-opacity:1"/>
<path class="bond-14 atom-14 atom-15" d="M 231.2,221.3 L 231.2,235.0" style="fill:none;fill-rule:evenodd;stroke:#000000;stroke-width:2.0px;stroke-linecap:butt;stroke-linejoin:miter;stroke-opacity:1"/>
<path class="bond-14 atom-14 atom-15" d="M 231.2,235.0 L 231.2,248.8" style="fill:none;fill-rule:evenodd;stroke:#A01EEF;stroke-width:2.0px;stroke-linecap:butt;stroke-linejoin:miter;stroke-opacity:1"/>
<path class="bond-15 atom-12 atom-16" d="M 260.1,171.4 L 288.9,154.7" style="fill:none;fill-rule:evenodd;stroke:#000000;stroke-width:2.0px;stroke-linecap:butt;stroke-linejoin:miter;stroke-opacity:1"/>
<path class="bond-16 atom-16 atom-17" d="M 286.4,156.1 L 298.7,163.3" style="fill:none;fill-rule:evenodd;stroke:#000000;stroke-width:2.0px;stroke-linecap:butt;stroke-linejoin:miter;stroke-opacity:1"/>
<path class="bond-16 atom-16 atom-17" d="M 298.7,163.3 L 311.1,170.4" style="fill:none;fill-rule:evenodd;stroke:#FF0000;stroke-width:2.0px;stroke-linecap:butt;stroke-linejoin:miter;stroke-opacity:1"/>
<path class="bond-16 atom-16 atom-17" d="M 288.9,151.8 L 301.2,158.9" style="fill:none;fill-rule:evenodd;stroke:#000000;stroke-width:2.0px;stroke-linecap:butt;stroke-linejoin:miter;stroke-opacity:1"/>
<path class="bond-16 atom-16 atom-17" d="M 301.2,158.9 L 313.6,166.1" style="fill:none;fill-rule:evenodd;stroke:#FF0000;stroke-width:2.0px;stroke-linecap:butt;stroke-linejoin:miter;stroke-opacity:1"/>
<path class="bond-17 atom-16 atom-18" d="M 288.9,154.7 L 288.9,121.4" style="fill:none;fill-rule:evenodd;stroke:#000000;stroke-width:2.0px;stroke-linecap:butt;stroke-linejoin:miter;stroke-opacity:1"/>
<path class="bond-18 atom-18 atom-19" d="M 288.9,121.4 L 315.8,101.8" style="fill:none;fill-rule:evenodd;stroke:#000000;stroke-width:2.0px;stroke-linecap:butt;stroke-linejoin:miter;stroke-opacity:1"/>
<path class="bond-19 atom-19 atom-20" d="M 315.8,101.8 L 348.4,108.7" style="fill:none;fill-rule:evenodd;stroke:#000000;stroke-width:2.0px;stroke-linecap:butt;stroke-linejoin:miter;stroke-opacity:1"/>
<path class="bond-19 atom-19 atom-20" d="M 319.7,97.5 L 346.6,103.2" style="fill:none;fill-rule:evenodd;stroke:#000000;stroke-width:2.0px;stroke-linecap:butt;stroke-linejoin:miter;stroke-opacity:1"/>
<path class="bond-20 atom-20 atom-21" d="M 348.4,108.7 L 370.7,84.0" style="fill:none;fill-rule:evenodd;stroke:#000000;stroke-width:2.0px;stroke-linecap:butt;stroke-linejoin:miter;stroke-opacity:1"/>
<path class="bond-21 atom-21 atom-22" d="M 370.7,84.0 L 360.4,52.3" style="fill:none;fill-rule:evenodd;stroke:#000000;stroke-width:2.0px;stroke-linecap:butt;stroke-linejoin:miter;stroke-opacity:1"/>
<path class="bond-21 atom-21 atom-22" d="M 365.1,82.8 L 356.6,56.6" style="fill:none;fill-rule:evenodd;stroke:#000000;stroke-width:2.0px;stroke-linecap:butt;stroke-linejoin:miter;stroke-opacity:1"/>
<path class="bond-22 atom-22 atom-23" d="M 360.4,52.3 L 327.8,45.4" style="fill:none;fill-rule:evenodd;stroke:#000000;stroke-width:2.0px;stroke-linecap:butt;stroke-linejoin:miter;stroke-opacity:1"/>
<path class="bond-23 atom-23 atom-24" d="M 327.8,45.4 L 305.6,70.1" style="fill:none;fill-rule:evenodd;stroke:#000000;stroke-width:2.0px;stroke-linecap:butt;stroke-linejoin:miter;stroke-opacity:1"/>
<path class="bond-23 atom-23 atom-24" d="M 329.6,50.9 L 311.2,71.3" style="fill:none;fill-rule:evenodd;stroke:#000000;stroke-width:2.0px;stroke-linecap:butt;stroke-linejoin:miter;stroke-opacity:1"/>
<path class="bond-24 atom-24 atom-25" d="M 305.6,70.1 L 291.6,70.1" style="fill:none;fill-rule:evenodd;stroke:#000000;stroke-width:2.0px;stroke-linecap:butt;stroke-linejoin:miter;stroke-opacity:1"/>
<path class="bond-24 atom-24 atom-25" d="M 291.6,70.1 L 277.7,70.1" style="fill:none;fill-rule:evenodd;stroke:#FF0000;stroke-width:2.0px;stroke-linecap:butt;stroke-linejoin:miter;stroke-opacity:1"/>
<path class="bond-25 atom-25 atom-26" d="M 270.3,76.1 L 266.1,89.0" style="fill:none;fill-rule:evenodd;stroke:#FF0000;stroke-width:2.0px;stroke-linecap:butt;stroke-linejoin:miter;stroke-opacity:1"/>
<path class="bond-25 atom-25 atom-26" d="M 266.1,89.0 L 262.0,101.8" style="fill:none;fill-rule:evenodd;stroke:#000000;stroke-width:2.0px;stroke-linecap:butt;stroke-linejoin:miter;stroke-opacity:1"/>
<path class="bond-26 atom-26 atom-27" d="M 262.0,101.8 L 230.3,112.1" style="fill:none;fill-rule:evenodd;stroke:#000000;stroke-width:2.0px;stroke-linecap:butt;stroke-linejoin:miter;stroke-opacity:1"/>
<path class="bond-27 atom-27 atom-28" d="M 230.3,112.1 L 205.5,89.8" style="fill:none;fill-rule:evenodd;stroke:#000000;stroke-width:2.0px;stroke-linecap:butt;stroke-linejoin:miter;stroke-opacity:1"/>
<path class="bond-28 atom-28 atom-29" d="M 205.5,89.8 L 173.8,100.1" style="fill:none;fill-rule:evenodd;stroke:#000000;stroke-width:2.0px;stroke-linecap:butt;stroke-linejoin:miter;stroke-opacity:1"/>
<path class="bond-29 atom-29 atom-30" d="M 173.8,100.1 L 149.1,77.8" style="fill:none;fill-rule:evenodd;stroke:#000000;stroke-width:2.0px;stroke-linecap:butt;stroke-linejoin:miter;stroke-opacity:1"/>
<path class="bond-30 atom-14 atom-8" d="M 231.2,221.3 L 202.4,204.7" style="fill:none;fill-rule:evenodd;stroke:#000000;stroke-width:2.0px;stroke-linecap:butt;stroke-linejoin:miter;stroke-opacity:1"/>
<path class="bond-31 atom-26 atom-18" d="M 262.0,101.8 L 288.9,121.4" style="fill:none;fill-rule:evenodd;stroke:#000000;stroke-width:2.0px;stroke-linecap:butt;stroke-linejoin:miter;stroke-opacity:1"/>
<path class="bond-31 atom-26 atom-18" d="M 267.8,99.9 L 288.9,115.2" style="fill:none;fill-rule:evenodd;stroke:#000000;stroke-width:2.0px;stroke-linecap:butt;stroke-linejoin:miter;stroke-opacity:1"/>
<path class="bond-32 atom-24 atom-19" d="M 305.6,70.1 L 315.8,101.8" style="fill:none;fill-rule:evenodd;stroke:#000000;stroke-width:2.0px;stroke-linecap:butt;stroke-linejoin:miter;stroke-opacity:1"/>
<path d="M 56.7,220.5 L 58.1,221.3 L 58.7,221.0" style="fill:none;stroke:#000000;stroke-width:2.0px;stroke-linecap:butt;stroke-linejoin:miter;stroke-opacity:1;"/>
<path d="M 87.0,172.0 L 87.0,171.4 L 85.5,170.5" style="fill:none;stroke:#000000;stroke-width:2.0px;stroke-linecap:butt;stroke-linejoin:miter;stroke-opacity:1;"/>
<path d="M 115.2,221.0 L 115.8,221.3 L 117.3,220.5" style="fill:none;stroke:#000000;stroke-width:2.0px;stroke-linecap:butt;stroke-linejoin:miter;stroke-opacity:1;"/>
<path d="M 143.2,205.5 L 144.7,204.7 L 145.3,205.0" style="fill:none;stroke:#000000;stroke-width:2.0px;stroke-linecap:butt;stroke-linejoin:miter;stroke-opacity:1;"/>
<path d="M 229.8,155.5 L 231.2,154.7 L 232.6,155.5" style="fill:none;stroke:#000000;stroke-width:2.0px;stroke-linecap:butt;stroke-linejoin:miter;stroke-opacity:1;"/>
<path d="M 260.1,203.0 L 260.1,204.7 L 258.6,205.5" style="fill:none;stroke:#000000;stroke-width:2.0px;stroke-linecap:butt;stroke-linejoin:miter;stroke-opacity:1;"/>
<path d="M 287.5,155.5 L 288.9,154.7 L 288.9,153.0" style="fill:none;stroke:#000000;stroke-width:2.0px;stroke-linecap:butt;stroke-linejoin:miter;stroke-opacity:1;"/>
<path d="M 346.8,108.4 L 348.4,108.7 L 349.5,107.5" style="fill:none;stroke:#000000;stroke-width:2.0px;stroke-linecap:butt;stroke-linejoin:miter;stroke-opacity:1;"/>
<path d="M 369.6,85.2 L 370.7,84.0 L 370.2,82.4" style="fill:none;stroke:#000000;stroke-width:2.0px;stroke-linecap:butt;stroke-linejoin:miter;stroke-opacity:1;"/>
<path d="M 360.9,53.9 L 360.4,52.3 L 358.8,52.0" style="fill:none;stroke:#000000;stroke-width:2.0px;stroke-linecap:butt;stroke-linejoin:miter;stroke-opacity:1;"/>
<path d="M 329.5,45.7 L 327.8,45.4 L 326.7,46.6" style="fill:none;stroke:#000000;stroke-width:2.0px;stroke-linecap:butt;stroke-linejoin:miter;stroke-opacity:1;"/>
<path d="M 231.9,111.6 L 230.3,112.1 L 229.0,111.0" style="fill:none;stroke:#000000;stroke-width:2.0px;stroke-linecap:butt;stroke-linejoin:miter;stroke-opacity:1;"/>
<path d="M 206.8,90.9 L 205.5,89.8 L 203.9,90.3" style="fill:none;stroke:#000000;stroke-width:2.0px;stroke-linecap:butt;stroke-linejoin:miter;stroke-opacity:1;"/>
<path d="M 175.4,99.6 L 173.8,100.1 L 172.6,99.0" style="fill:none;stroke:#000000;stroke-width:2.0px;stroke-linecap:butt;stroke-linejoin:miter;stroke-opacity:1;"/>
<path class="atom-2" d="M 84.9 199.9 L 88.0 204.9 Q 88.3 205.4, 88.8 206.3 Q 89.3 207.2, 89.3 207.3 L 89.3 199.9 L 90.6 199.9 L 90.6 209.4 L 89.3 209.4 L 85.9 203.9 Q 85.6 203.3, 85.1 202.5 Q 84.7 201.8, 84.6 201.6 L 84.6 209.4 L 83.4 209.4 L 83.4 199.9 L 84.9 199.9 " fill="#0000FF"/>
<path class="atom-7" d="M 169.2 221.3 Q 169.2 219.1, 170.3 217.8 Q 171.4 216.5, 173.5 216.5 Q 175.6 216.5, 176.7 217.8 Q 177.8 219.1, 177.8 221.3 Q 177.8 223.6, 176.7 224.9 Q 175.6 226.2, 173.5 226.2 Q 171.4 226.2, 170.3 224.9 Q 169.2 223.6, 169.2 221.3 M 173.5 225.2 Q 175.0 225.2, 175.7 224.2 Q 176.5 223.2, 176.5 221.3 Q 176.5 219.5, 175.7 218.6 Q 175.0 217.6, 173.5 217.6 Q 172.1 217.6, 171.3 218.5 Q 170.5 219.5, 170.5 221.3 Q 170.5 223.2, 171.3 224.2 Q 172.1 225.2, 173.5 225.2 " fill="#FF0000"/>
<path class="atom-10" d="M 172.9 150.0 L 174.1 150.0 L 174.1 159.4 L 172.9 159.4 L 172.9 150.0 " fill="#A01EEF"/>
<path class="atom-15" d="M 230.6 249.9 L 231.8 249.9 L 231.8 259.4 L 230.6 259.4 L 230.6 249.9 " fill="#A01EEF"/>
<path class="atom-17" d="M 313.4 171.4 Q 313.4 169.1, 314.5 167.8 Q 315.7 166.6, 317.7 166.6 Q 319.8 166.6, 321.0 167.8 Q 322.1 169.1, 322.1 171.4 Q 322.1 173.7, 320.9 175.0 Q 319.8 176.3, 317.7 176.3 Q 315.7 176.3, 314.5 175.0 Q 313.4 173.7, 313.4 171.4 M 317.7 175.2 Q 319.2 175.2, 320.0 174.2 Q 320.7 173.3, 320.7 171.4 Q 320.7 169.5, 320.0 168.6 Q 319.2 167.6, 317.7 167.6 Q 316.3 167.6, 315.5 168.6 Q 314.7 169.5, 314.7 171.4 Q 314.7 173.3, 315.5 174.2 Q 316.3 175.2, 317.7 175.2 " fill="#FF0000"/>
<path class="atom-25" d="M 267.9 70.2 Q 267.9 67.9, 269.0 66.6 Q 270.2 65.4, 272.2 65.4 Q 274.3 65.4, 275.5 66.6 Q 276.6 67.9, 276.6 70.2 Q 276.6 72.4, 275.4 73.8 Q 274.3 75.0, 272.2 75.0 Q 270.2 75.0, 269.0 73.8 Q 267.9 72.5, 267.9 70.2 M 272.2 74.0 Q 273.7 74.0, 274.5 73.0 Q 275.2 72.0, 275.2 70.2 Q 275.2 68.3, 274.5 67.4 Q 273.7 66.4, 272.2 66.4 Q 270.8 66.4, 270.0 67.4 Q 269.2 68.3, 269.2 70.2 Q 269.2 72.1, 270.0 73.0 Q 270.8 74.0, 272.2 74.0 " fill="#FF0000"/>
</svg>