<?xml version="1.0" ?><svg xmlns="http://www.w3.org/2000/svg" xmlns:rdkit="http://www.rdkit.org/xml" xmlns:xlink="http://www.w3.org/1999/xlink" version="1.1" baseProfile="full" xml:space="preserve" width="400px" height="300px" viewBox="0 0 400 300">
<!-- END OF HEADER -->
<ellipse cx="54.8" cy="122.8" rx="10.2" ry="10.2" class="atom-0" style="opacity:0"/>
<ellipse cx="54.8" cy="92.2" rx="10.2" ry="10.2" class="atom-1" style="opacity:0"/>
<ellipse cx="28.4" cy="77.0" rx="10.2" ry="10.2" class="atom-2" style="opacity:0"/>
<ellipse cx="28.4" cy="46.6" rx="10.2" ry="10.2" class="atom-3" style="opacity:0"/>
<ellipse cx="54.8" cy="31.2" rx="10.2" ry="10.2" class="atom-4" style="opacity:0"/>
<ellipse cx="81.2" cy="46.5" rx="10.2" ry="10.2" class="atom-5" style="opacity:0"/>
<ellipse cx="81.2" cy="77.0" rx="10.2" ry="10.2" class="atom-6" style="opacity:0"/>
<ellipse cx="107.6" cy="92.2" rx="10.2" ry="10.2" class="atom-7" style="opacity:0"/>
<ellipse cx="107.6" cy="122.8" rx="10.2" ry="10.2" class="atom-8" style="opacity:0"/>
<ellipse cx="134.0" cy="138.0" rx="10.2" ry="10.2" class="atom-9" style="opacity:0"/>
<ellipse cx="160.5" cy="122.8" rx="10.2" ry="10.2" class="atom-10" style="opacity:0"/>
<ellipse cx="160.5" cy="92.2" rx="10.2" ry="10.2" class="atom-11" style="opacity:0"/>
<ellipse cx="134.0" cy="77.0" rx="10.2" ry="10.2" class="atom-12" style="opacity:0"/>
<ellipse cx="186.9" cy="138.0" rx="10.2" ry="10.2" class="atom-13" style="opacity:0"/>
<ellipse cx="214.7" cy="125.6" rx="10.2" ry="10.2" class="atom-14" style="opacity:0"/>
<ellipse cx="235.2" cy="148.3" rx="10.2" ry="10.2" class="atom-15" style="opacity:0"/>
<ellipse cx="219.9" cy="174.8" rx="10.2" ry="10.2" class="atom-16" style="opacity:0"/>
<ellipse cx="190.1" cy="168.4" rx="10.2" ry="10.2" class="atom-17" style="opacity:0"/>
<ellipse cx="167.4" cy="188.8" rx="10.2" ry="10.2" class="atom-18" style="opacity:0"/>
<ellipse cx="265.5" cy="145.1" rx="10.2" ry="10.2" class="atom-19" style="opacity:0"/>
<ellipse cx="279.2" cy="169.8" rx="10.6" ry="10.2" class="atom-20" style="opacity:0"/>
<ellipse cx="313.8" cy="166.6" rx="10.2" ry="10.2" class="atom-21" style="opacity:0"/>
<ellipse cx="326.2" cy="138.8" rx="10.2" ry="10.2" class="atom-22" style="opacity:0"/>
<ellipse cx="331.7" cy="191.3" rx="10.2" ry="10.2" class="atom-23" style="opacity:0"/>
<ellipse cx="362.2" cy="191.3" rx="10.2" ry="10.2" class="atom-24" style="opacity:0"/>
<ellipse cx="371.6" cy="220.3" rx="10.2" ry="10.2" class="atom-25" style="opacity:0"/>
<ellipse cx="347.0" cy="238.2" rx="10.2" ry="10.2" class="atom-26" style="opacity:0"/>
<ellipse cx="322.3" cy="220.4" rx="10.2" ry="10.2" class="atom-27" style="opacity:0"/>
<ellipse cx="348.0" cy="268.8" rx="10.2" ry="10.2" class="atom-28" style="opacity:0"/>
<path class="bond-0 atom-0 atom-1" d="M 52.5,117.4 L 52.5,104.2" style="fill:none;fill-rule:evenodd;stroke:#FF0000;stroke-width:2.0px;stroke-linecap:butt;stroke-linejoin:miter;stroke-opacity:1"/>
<path class="bond-0 atom-0 atom-1" d="M 52.5,104.2 L 52.5,90.9" style="fill:none;fill-rule:evenodd;stroke:#000000;stroke-width:2.0px;stroke-linecap:butt;stroke-linejoin:miter;stroke-opacity:1"/>
<path class="bond-0 atom-0 atom-1" d="M 57.1,117.4 L 57.1,104.2" style="fill:none;fill-rule:evenodd;stroke:#FF0000;stroke-width:2.0px;stroke-linecap:butt;stroke-linejoin:miter;stroke-opacity:1"/>
<path class="bond-0 atom-0 atom-1" d="M 57.1,104.2 L 57.1,90.9" style="fill:none;fill-rule:evenodd;stroke:#000000;stroke-width:2.0px;stroke-linecap:butt;stroke-linejoin:miter;stroke-opacity:1"/>
<path class="bond-1 atom-1 atom-2" d="M 54.8,92.2 L 28.4,77.0" style="fill:none;fill-rule:evenodd;stroke:#000000;stroke-width:2.0px;stroke-linecap:butt;stroke-linejoin:miter;stroke-opacity:1"/>
<path class="bond-2 atom-2 atom-3" d="M 28.4,77.0 L 28.4,64.5" style="fill:none;fill-rule:evenodd;stroke:#000000;stroke-width:2.0px;stroke-linecap:butt;stroke-linejoin:miter;stroke-opacity:1"/>
<path class="bond-2 atom-2 atom-3" d="M 28.4,64.5 L 28.4,52.0" style="fill:none;fill-rule:evenodd;stroke:#FF0000;stroke-width:2.0px;stroke-linecap:butt;stroke-linejoin:miter;stroke-opacity:1"/>
<path class="bond-3 atom-3 atom-4" d="M 33.3,43.6 L 44.0,37.4" style="fill:none;fill-rule:evenodd;stroke:#FF0000;stroke-width:2.0px;stroke-linecap:butt;stroke-linejoin:miter;stroke-opacity:1"/>
<path class="bond-3 atom-3 atom-4" d="M 44.0,37.4 L 54.8,31.2" style="fill:none;fill-rule:evenodd;stroke:#000000;stroke-width:2.0px;stroke-linecap:butt;stroke-linejoin:miter;stroke-opacity:1"/>
<path class="bond-4 atom-4 atom-5" d="M 54.8,31.2 L 81.2,46.5" style="fill:none;fill-rule:evenodd;stroke:#000000;stroke-width:2.0px;stroke-linecap:butt;stroke-linejoin:miter;stroke-opacity:1"/>
<path class="bond-5 atom-5 atom-6" d="M 81.2,46.5 L 81.2,59.1" style="fill:none;fill-rule:evenodd;stroke:#000000;stroke-width:2.0px;stroke-linecap:butt;stroke-linejoin:miter;stroke-opacity:1"/>
<path class="bond-5 atom-5 atom-6" d="M 81.2,59.1 L 81.2,71.7" style="fill:none;fill-rule:evenodd;stroke:#0000FF;stroke-width:2.0px;stroke-linecap:butt;stroke-linejoin:miter;stroke-opacity:1"/>
<path class="bond-6 atom-6 atom-7" d="M 85.5,79.5 L 96.5,85.9" style="fill:none;fill-rule:evenodd;stroke:#0000FF;stroke-width:2.0px;stroke-linecap:butt;stroke-linejoin:miter;stroke-opacity:1"/>
<path class="bond-6 atom-6 atom-7" d="M 96.5,85.9 L 107.6,92.2" style="fill:none;fill-rule:evenodd;stroke:#000000;stroke-width:2.0px;stroke-linecap:butt;stroke-linejoin:miter;stroke-opacity:1"/>
<path class="bond-7 atom-7 atom-8" d="M 107.6,92.2 L 107.6,122.8" style="fill:none;fill-rule:evenodd;stroke:#000000;stroke-width:2.0px;stroke-linecap:butt;stroke-linejoin:miter;stroke-opacity:1"/>
<path class="bond-7 atom-7 atom-8" d="M 112.2,94.9 L 112.2,120.1" style="fill:none;fill-rule:evenodd;stroke:#000000;stroke-width:2.0px;stroke-linecap:butt;stroke-linejoin:miter;stroke-opacity:1"/>
<path class="bond-8 atom-8 atom-9" d="M 107.6,122.8 L 134.0,138.0" style="fill:none;fill-rule:evenodd;stroke:#000000;stroke-width:2.0px;stroke-linecap:butt;stroke-linejoin:miter;stroke-opacity:1"/>
<path class="bond-9 atom-9 atom-10" d="M 134.0,138.0 L 160.5,122.8" style="fill:none;fill-rule:evenodd;stroke:#000000;stroke-width:2.0px;stroke-linecap:butt;stroke-linejoin:miter;stroke-opacity:1"/>
<path class="bond-9 atom-9 atom-10" d="M 134.0,132.7 L 155.9,120.1" style="fill:none;fill-rule:evenodd;stroke:#000000;stroke-width:2.0px;stroke-linecap:butt;stroke-linejoin:miter;stroke-opacity:1"/>
<path class="bond-10 atom-10 atom-11" d="M 160.5,122.8 L 160.5,92.2" style="fill:none;fill-rule:evenodd;stroke:#000000;stroke-width:2.0px;stroke-linecap:butt;stroke-linejoin:miter;stroke-opacity:1"/>
<path class="bond-11 atom-11 atom-12" d="M 160.5,92.2 L 134.0,77.0" style="fill:none;fill-rule:evenodd;stroke:#000000;stroke-width:2.0px;stroke-linecap:butt;stroke-linejoin:miter;stroke-opacity:1"/>
<path class="bond-11 atom-11 atom-12" d="M 155.9,94.9 L 134.0,82.3" style="fill:none;fill-rule:evenodd;stroke:#000000;stroke-width:2.0px;stroke-linecap:butt;stroke-linejoin:miter;stroke-opacity:1"/>
<path class="bond-12 atom-10 atom-13" d="M 160.5,122.8 L 171.5,129.1" style="fill:none;fill-rule:evenodd;stroke:#000000;stroke-width:2.0px;stroke-linecap:butt;stroke-linejoin:miter;stroke-opacity:1"/>
<path class="bond-12 atom-10 atom-13" d="M 171.5,129.1 L 182.6,135.5" style="fill:none;fill-rule:evenodd;stroke:#0000FF;stroke-width:2.0px;stroke-linecap:butt;stroke-linejoin:miter;stroke-opacity:1"/>
<path class="bond-13 atom-13 atom-14" d="M 191.2,136.1 L 203.0,130.9" style="fill:none;fill-rule:evenodd;stroke:#0000FF;stroke-width:2.0px;stroke-linecap:butt;stroke-linejoin:miter;stroke-opacity:1"/>
<path class="bond-13 atom-13 atom-14" d="M 203.0,130.9 L 214.7,125.6" style="fill:none;fill-rule:evenodd;stroke:#000000;stroke-width:2.0px;stroke-linecap:butt;stroke-linejoin:miter;stroke-opacity:1"/>
<path class="bond-14 atom-14 atom-15" d="M 214.7,125.6 L 235.2,148.3" style="fill:none;fill-rule:evenodd;stroke:#000000;stroke-width:2.0px;stroke-linecap:butt;stroke-linejoin:miter;stroke-opacity:1"/>
<path class="bond-15 atom-15 atom-16" d="M 235.2,148.3 L 229.1,158.8" style="fill:none;fill-rule:evenodd;stroke:#000000;stroke-width:2.0px;stroke-linecap:butt;stroke-linejoin:miter;stroke-opacity:1"/>
<path class="bond-15 atom-15 atom-16" d="M 229.1,158.8 L 223.0,169.3" style="fill:none;fill-rule:evenodd;stroke:#FF0000;stroke-width:2.0px;stroke-linecap:butt;stroke-linejoin:miter;stroke-opacity:1"/>
<path class="bond-16 atom-16 atom-17" d="M 214.9,173.6 L 202.5,171.0" style="fill:none;fill-rule:evenodd;stroke:#FF0000;stroke-width:2.0px;stroke-linecap:butt;stroke-linejoin:miter;stroke-opacity:1"/>
<path class="bond-16 atom-16 atom-17" d="M 202.5,171.0 L 190.1,168.4" style="fill:none;fill-rule:evenodd;stroke:#000000;stroke-width:2.0px;stroke-linecap:butt;stroke-linejoin:miter;stroke-opacity:1"/>
<path class="bond-17 atom-17 atom-18" d="M 189.8,165.5 L 180.3,174.1" style="fill:none;fill-rule:evenodd;stroke:#000000;stroke-width:2.0px;stroke-linecap:butt;stroke-linejoin:miter;stroke-opacity:1"/>
<path class="bond-17 atom-17 atom-18" d="M 180.3,174.1 L 170.8,182.6" style="fill:none;fill-rule:evenodd;stroke:#FF0000;stroke-width:2.0px;stroke-linecap:butt;stroke-linejoin:miter;stroke-opacity:1"/>
<path class="bond-17 atom-17 atom-18" d="M 192.8,168.9 L 183.4,177.5" style="fill:none;fill-rule:evenodd;stroke:#000000;stroke-width:2.0px;stroke-linecap:butt;stroke-linejoin:miter;stroke-opacity:1"/>
<path class="bond-17 atom-17 atom-18" d="M 183.4,177.5 L 173.9,186.0" style="fill:none;fill-rule:evenodd;stroke:#FF0000;stroke-width:2.0px;stroke-linecap:butt;stroke-linejoin:miter;stroke-opacity:1"/>
<path class="bond-18 atom-15 atom-19" d="M 238.6,148.2 L 238.5,147.6" style="fill:none;fill-rule:evenodd;stroke:#000000;stroke-width:1.0px;stroke-linecap:butt;stroke-linejoin:miter;stroke-opacity:1"/>
<path class="bond-18 atom-15 atom-19" d="M 242.0,148.1 L 241.8,147.0" style="fill:none;fill-rule:evenodd;stroke:#000000;stroke-width:1.0px;stroke-linecap:butt;stroke-linejoin:miter;stroke-opacity:1"/>
<path class="bond-18 atom-15 atom-19" d="M 245.4,148.1 L 245.2,146.4" style="fill:none;fill-rule:evenodd;stroke:#000000;stroke-width:1.0px;stroke-linecap:butt;stroke-linejoin:miter;stroke-opacity:1"/>
<path class="bond-18 atom-15 atom-19" d="M 248.8,148.0 L 248.5,145.7" style="fill:none;fill-rule:evenodd;stroke:#000000;stroke-width:1.0px;stroke-linecap:butt;stroke-linejoin:miter;stroke-opacity:1"/>
<path class="bond-18 atom-15 atom-19" d="M 252.2,147.9 L 251.9,145.1" style="fill:none;fill-rule:evenodd;stroke:#000000;stroke-width:1.0px;stroke-linecap:butt;stroke-linejoin:miter;stroke-opacity:1"/>
<path class="bond-18 atom-15 atom-19" d="M 255.6,147.9 L 255.2,144.4" style="fill:none;fill-rule:evenodd;stroke:#000000;stroke-width:1.0px;stroke-linecap:butt;stroke-linejoin:miter;stroke-opacity:1"/>
<path class="bond-18 atom-15 atom-19" d="M 259.0,147.8 L 258.5,143.8" style="fill:none;fill-rule:evenodd;stroke:#000000;stroke-width:1.0px;stroke-linecap:butt;stroke-linejoin:miter;stroke-opacity:1"/>
<path class="bond-18 atom-15 atom-19" d="M 262.4,147.7 L 261.9,143.2" style="fill:none;fill-rule:evenodd;stroke:#000000;stroke-width:1.0px;stroke-linecap:butt;stroke-linejoin:miter;stroke-opacity:1"/>
<path class="bond-19 atom-19 atom-20" d="M 265.5,145.1 L 272.5,154.8" style="fill:none;fill-rule:evenodd;stroke:#000000;stroke-width:2.0px;stroke-linecap:butt;stroke-linejoin:miter;stroke-opacity:1"/>
<path class="bond-19 atom-19 atom-20" d="M 272.5,154.8 L 279.6,164.4" style="fill:none;fill-rule:evenodd;stroke:#0000FF;stroke-width:2.0px;stroke-linecap:butt;stroke-linejoin:miter;stroke-opacity:1"/>
<path class="bond-20 atom-20 atom-21" d="M 287.7,169.3 L 300.8,167.9" style="fill:none;fill-rule:evenodd;stroke:#0000FF;stroke-width:2.0px;stroke-linecap:butt;stroke-linejoin:miter;stroke-opacity:1"/>
<path class="bond-20 atom-20 atom-21" d="M 300.8,167.9 L 313.8,166.6" style="fill:none;fill-rule:evenodd;stroke:#000000;stroke-width:2.0px;stroke-linecap:butt;stroke-linejoin:miter;stroke-opacity:1"/>
<path class="bond-21 atom-21 atom-22" d="M 315.3,168.7 L 320.6,156.9" style="fill:none;fill-rule:evenodd;stroke:#000000;stroke-width:2.0px;stroke-linecap:butt;stroke-linejoin:miter;stroke-opacity:1"/>
<path class="bond-21 atom-21 atom-22" d="M 320.6,156.9 L 325.8,145.1" style="fill:none;fill-rule:evenodd;stroke:#FF0000;stroke-width:2.0px;stroke-linecap:butt;stroke-linejoin:miter;stroke-opacity:1"/>
<path class="bond-21 atom-21 atom-22" d="M 311.2,166.9 L 316.4,155.1" style="fill:none;fill-rule:evenodd;stroke:#000000;stroke-width:2.0px;stroke-linecap:butt;stroke-linejoin:miter;stroke-opacity:1"/>
<path class="bond-21 atom-21 atom-22" d="M 316.4,155.1 L 321.6,143.3" style="fill:none;fill-rule:evenodd;stroke:#FF0000;stroke-width:2.0px;stroke-linecap:butt;stroke-linejoin:miter;stroke-opacity:1"/>
<path class="bond-22 atom-21 atom-23" d="M 313.8,166.6 L 331.7,191.3" style="fill:none;fill-rule:evenodd;stroke:#000000;stroke-width:2.0px;stroke-linecap:butt;stroke-linejoin:miter;stroke-opacity:1"/>
<path class="bond-23 atom-23 atom-24" d="M 331.7,191.3 L 362.2,191.3" style="fill:none;fill-rule:evenodd;stroke:#000000;stroke-width:2.0px;stroke-linecap:butt;stroke-linejoin:miter;stroke-opacity:1"/>
<path class="bond-23 atom-23 atom-24" d="M 335.0,195.8 L 358.9,195.8" style="fill:none;fill-rule:evenodd;stroke:#000000;stroke-width:2.0px;stroke-linecap:butt;stroke-linejoin:miter;stroke-opacity:1"/>
<path class="bond-24 atom-24 atom-25" d="M 362.2,191.3 L 371.6,220.3" style="fill:none;fill-rule:evenodd;stroke:#000000;stroke-width:2.0px;stroke-linecap:butt;stroke-linejoin:miter;stroke-opacity:1"/>
<path class="bond-25 atom-25 atom-26" d="M 371.6,220.3 L 347.0,238.2" style="fill:none;fill-rule:evenodd;stroke:#000000;stroke-width:2.0px;stroke-linecap:butt;stroke-linejoin:miter;stroke-opacity:1"/>
<path class="bond-25 atom-25 atom-26" d="M 366.3,218.5 L 347.0,232.6" style="fill:none;fill-rule:evenodd;stroke:#000000;stroke-width:2.0px;stroke-linecap:butt;stroke-linejoin:miter;stroke-opacity:1"/>
<path class="bond-26 atom-26 atom-27" d="M 347.0,238.2 L 336.5,230.6" style="fill:none;fill-rule:evenodd;stroke:#000000;stroke-width:2.0px;stroke-linecap:butt;stroke-linejoin:miter;stroke-opacity:1"/>
<path class="bond-26 atom-26 atom-27" d="M 336.5,230.6 L 326.1,223.0" style="fill:none;fill-rule:evenodd;stroke:#CCCC00;stroke-width:2.0px;stroke-linecap:butt;stroke-linejoin:miter;stroke-opacity:1"/>
<path class="bond-27 atom-26 atom-28" d="M 347.0,238.2 L 347.0,250.9" style="fill:none;fill-rule:evenodd;stroke:#000000;stroke-width:2.0px;stroke-linecap:butt;stroke-linejoin:miter;stroke-opacity:1"/>
<path class="bond-27 atom-26 atom-28" d="M 347.0,250.9 L 347.0,263.6" style="fill:none;fill-rule:evenodd;stroke:#00CC00;stroke-width:2.0px;stroke-linecap:butt;stroke-linejoin:miter;stroke-opacity:1"/>
<path class="bond-28 atom-6 atom-1" d="M 76.9,79.5 L 65.8,85.9" style="fill:none;fill-rule:evenodd;stroke:#0000FF;stroke-width:2.0px;stroke-linecap:butt;stroke-linejoin:miter;stroke-opacity:1"/>
<path class="bond-28 atom-6 atom-1" d="M 65.8,85.9 L 54.8,92.2" style="fill:none;fill-rule:evenodd;stroke:#000000;stroke-width:2.0px;stroke-linecap:butt;stroke-linejoin:miter;stroke-opacity:1"/>
<path class="bond-29 atom-12 atom-7" d="M 134.0,77.0 L 107.6,92.2" style="fill:none;fill-rule:evenodd;stroke:#000000;stroke-width:2.0px;stroke-linecap:butt;stroke-linejoin:miter;stroke-opacity:1"/>
<path class="bond-30 atom-17 atom-13" d="M 190.1,168.4 L 188.8,155.8" style="fill:none;fill-rule:evenodd;stroke:#000000;stroke-width:2.0px;stroke-linecap:butt;stroke-linejoin:miter;stroke-opacity:1"/>
<path class="bond-30 atom-17 atom-13" d="M 188.8,155.8 L 187.4,143.3" style="fill:none;fill-rule:evenodd;stroke:#0000FF;stroke-width:2.0px;stroke-linecap:butt;stroke-linejoin:miter;stroke-opacity:1"/>
<path class="bond-31 atom-27 atom-23" d="M 324.0,215.0 L 327.9,203.1" style="fill:none;fill-rule:evenodd;stroke:#CCCC00;stroke-width:2.0px;stroke-linecap:butt;stroke-linejoin:miter;stroke-opacity:1"/>
<path class="bond-31 atom-27 atom-23" d="M 327.9,203.1 L 331.7,191.3" style="fill:none;fill-rule:evenodd;stroke:#000000;stroke-width:2.0px;stroke-linecap:butt;stroke-linejoin:miter;stroke-opacity:1"/>
<path d="M 53.5,91.5 L 54.8,92.2 L 55.3,91.9" style="fill:none;stroke:#000000;stroke-width:2.0px;stroke-linecap:butt;stroke-linejoin:miter;stroke-opacity:1;"/>
<path d="M 29.7,77.8 L 28.4,77.0 L 28.4,76.4" style="fill:none;stroke:#000000;stroke-width:2.0px;stroke-linecap:butt;stroke-linejoin:miter;stroke-opacity:1;"/>
<path d="M 54.2,31.5 L 54.8,31.2 L 56.1,32.0" style="fill:none;stroke:#000000;stroke-width:2.0px;stroke-linecap:butt;stroke-linejoin:miter;stroke-opacity:1;"/>
<path d="M 79.9,45.7 L 81.2,46.5 L 81.2,47.1" style="fill:none;stroke:#000000;stroke-width:2.0px;stroke-linecap:butt;stroke-linejoin:miter;stroke-opacity:1;"/>
<path d="M 107.6,121.2 L 107.6,122.8 L 108.9,123.5" style="fill:none;stroke:#000000;stroke-width:2.0px;stroke-linecap:butt;stroke-linejoin:miter;stroke-opacity:1;"/>
<path d="M 132.7,137.2 L 134.0,138.0 L 135.4,137.2" style="fill:none;stroke:#000000;stroke-width:2.0px;stroke-linecap:butt;stroke-linejoin:miter;stroke-opacity:1;"/>
<path d="M 160.5,93.8 L 160.5,92.2 L 159.1,91.5" style="fill:none;stroke:#000000;stroke-width:2.0px;stroke-linecap:butt;stroke-linejoin:miter;stroke-opacity:1;"/>
<path d="M 135.4,77.8 L 134.0,77.0 L 132.7,77.8" style="fill:none;stroke:#000000;stroke-width:2.0px;stroke-linecap:butt;stroke-linejoin:miter;stroke-opacity:1;"/>
<path d="M 214.2,125.9 L 214.7,125.6 L 215.8,126.7" style="fill:none;stroke:#000000;stroke-width:2.0px;stroke-linecap:butt;stroke-linejoin:miter;stroke-opacity:1;"/>
<path d="M 234.1,147.1 L 235.2,148.3 L 234.9,148.8" style="fill:none;stroke:#000000;stroke-width:2.0px;stroke-linecap:butt;stroke-linejoin:miter;stroke-opacity:1;"/>
<path d="M 190.7,168.5 L 190.1,168.4 L 190.0,167.7" style="fill:none;stroke:#000000;stroke-width:2.0px;stroke-linecap:butt;stroke-linejoin:miter;stroke-opacity:1;"/>
<path d="M 313.1,166.6 L 313.8,166.6 L 314.7,167.8" style="fill:none;stroke:#000000;stroke-width:2.0px;stroke-linecap:butt;stroke-linejoin:miter;stroke-opacity:1;"/>
<path d="M 360.7,191.3 L 362.2,191.3 L 362.7,192.7" style="fill:none;stroke:#000000;stroke-width:2.0px;stroke-linecap:butt;stroke-linejoin:miter;stroke-opacity:1;"/>
<path d="M 371.2,218.8 L 371.6,220.3 L 370.4,221.2" style="fill:none;stroke:#000000;stroke-width:2.0px;stroke-linecap:butt;stroke-linejoin:miter;stroke-opacity:1;"/>
<path class="atom-0" d="M 50.8 122.8 Q 50.8 120.7, 51.8 119.5 Q 52.9 118.4, 54.8 118.4 Q 56.7 118.4, 57.7 119.5 Q 58.7 120.7, 58.7 122.8 Q 58.7 124.9, 57.7 126.1 Q 56.7 127.3, 54.8 127.3 Q 52.9 127.3, 51.8 126.1 Q 50.8 124.9, 50.8 122.8 M 54.8 126.3 Q 56.1 126.3, 56.8 125.4 Q 57.5 124.5, 57.5 122.8 Q 57.5 121.1, 56.8 120.2 Q 56.1 119.4, 54.8 119.4 Q 53.5 119.4, 52.7 120.2 Q 52.0 121.1, 52.0 122.8 Q 52.0 124.5, 52.7 125.4 Q 53.5 126.3, 54.8 126.3 " fill="#FF0000"/>
<path class="atom-3" d="M 24.4 46.5 Q 24.4 44.4, 25.4 43.3 Q 26.4 42.1, 28.4 42.1 Q 30.3 42.1, 31.3 43.3 Q 32.3 44.4, 32.3 46.5 Q 32.3 48.6, 31.3 49.8 Q 30.2 51.0, 28.4 51.0 Q 26.4 51.0, 25.4 49.8 Q 24.4 48.6, 24.4 46.5 M 28.4 50.0 Q 29.7 50.0, 30.4 49.1 Q 31.1 48.2, 31.1 46.5 Q 31.1 44.8, 30.4 44.0 Q 29.7 43.1, 28.4 43.1 Q 27.0 43.1, 26.3 43.9 Q 25.6 44.8, 25.6 46.5 Q 25.6 48.3, 26.3 49.1 Q 27.0 50.0, 28.4 50.0 " fill="#FF0000"/>
<path class="atom-6" d="M 79.3 72.7 L 82.1 77.2 Q 82.4 77.7, 82.8 78.5 Q 83.3 79.3, 83.3 79.4 L 83.3 72.7 L 84.5 72.7 L 84.5 81.3 L 83.3 81.3 L 80.2 76.3 Q 79.9 75.7, 79.5 75.1 Q 79.1 74.4, 79.0 74.2 L 79.0 81.3 L 77.9 81.3 L 77.9 72.7 L 79.3 72.7 " fill="#0000FF"/>
<path class="atom-13" d="M 185.0 133.7 L 187.8 138.3 Q 188.1 138.7, 188.5 139.5 Q 189.0 140.4, 189.0 140.4 L 189.0 133.7 L 190.2 133.7 L 190.2 142.3 L 189.0 142.3 L 185.9 137.3 Q 185.6 136.7, 185.2 136.1 Q 184.8 135.4, 184.7 135.2 L 184.7 142.3 L 183.6 142.3 L 183.6 133.7 L 185.0 133.7 " fill="#0000FF"/>
<path class="atom-16" d="M 215.9 174.7 Q 215.9 172.6, 217.0 171.5 Q 218.0 170.3, 219.9 170.3 Q 221.8 170.3, 222.9 171.5 Q 223.9 172.6, 223.9 174.7 Q 223.9 176.8, 222.8 178.0 Q 221.8 179.2, 219.9 179.2 Q 218.0 179.2, 217.0 178.0 Q 215.9 176.8, 215.9 174.7 M 219.9 178.2 Q 221.2 178.2, 221.9 177.3 Q 222.7 176.5, 222.7 174.7 Q 222.7 173.0, 221.9 172.2 Q 221.2 171.3, 219.9 171.3 Q 218.6 171.3, 217.9 172.2 Q 217.2 173.0, 217.2 174.7 Q 217.2 176.5, 217.9 177.3 Q 218.6 178.2, 219.9 178.2 " fill="#FF0000"/>
<path class="atom-18" d="M 163.4 188.8 Q 163.4 186.7, 164.5 185.6 Q 165.5 184.4, 167.4 184.4 Q 169.3 184.4, 170.3 185.6 Q 171.4 186.7, 171.4 188.8 Q 171.4 190.9, 170.3 192.1 Q 169.3 193.3, 167.4 193.3 Q 165.5 193.3, 164.5 192.1 Q 163.4 190.9, 163.4 188.8 M 167.4 192.3 Q 168.7 192.3, 169.4 191.4 Q 170.1 190.5, 170.1 188.8 Q 170.1 187.1, 169.4 186.2 Q 168.7 185.4, 167.4 185.4 Q 166.1 185.4, 165.4 186.2 Q 164.6 187.1, 164.6 188.8 Q 164.6 190.5, 165.4 191.4 Q 166.1 192.3, 167.4 192.3 " fill="#FF0000"/>
<path class="atom-20" d="M 271.7 165.4 L 272.9 165.4 L 272.9 169.1 L 277.3 169.1 L 277.3 165.4 L 278.5 165.4 L 278.5 174.1 L 277.3 174.1 L 277.3 170.1 L 272.9 170.1 L 272.9 174.1 L 271.7 174.1 L 271.7 165.4 " fill="#0000FF"/>
<path class="atom-20" d="M 281.5 165.4 L 284.4 170.0 Q 284.6 170.5, 285.1 171.3 Q 285.5 172.1, 285.6 172.2 L 285.6 165.4 L 286.7 165.4 L 286.7 174.1 L 285.5 174.1 L 282.5 169.1 Q 282.1 168.5, 281.8 167.8 Q 281.4 167.2, 281.3 166.9 L 281.3 174.1 L 280.2 174.1 L 280.2 165.4 L 281.5 165.4 " fill="#0000FF"/>
<path class="atom-22" d="M 322.2 138.7 Q 322.2 136.7, 323.2 135.5 Q 324.3 134.3, 326.2 134.3 Q 328.1 134.3, 329.1 135.5 Q 330.2 136.7, 330.2 138.7 Q 330.2 140.8, 329.1 142.0 Q 328.1 143.2, 326.2 143.2 Q 324.3 143.2, 323.2 142.0 Q 322.2 140.8, 322.2 138.7 M 326.2 142.2 Q 327.5 142.2, 328.2 141.4 Q 328.9 140.5, 328.9 138.7 Q 328.9 137.0, 328.2 136.2 Q 327.5 135.3, 326.2 135.3 Q 324.9 135.3, 324.2 136.2 Q 323.4 137.0, 323.4 138.7 Q 323.4 140.5, 324.2 141.4 Q 324.9 142.2, 326.2 142.2 " fill="#FF0000"/>
<path class="atom-27" d="M 319.8 223.2 Q 319.9 223.3, 320.3 223.4 Q 320.7 223.6, 321.2 223.7 Q 321.6 223.8, 322.1 223.8 Q 322.9 223.8, 323.4 223.4 Q 323.8 223.0, 323.8 222.3 Q 323.8 221.9, 323.6 221.6 Q 323.4 221.3, 323.0 221.1 Q 322.6 221.0, 322.0 220.8 Q 321.3 220.5, 320.8 220.3 Q 320.3 220.1, 320.0 219.6 Q 319.7 219.2, 319.7 218.4 Q 319.7 217.3, 320.4 216.6 Q 321.2 216.0, 322.6 216.0 Q 323.6 216.0, 324.8 216.4 L 324.5 217.4 Q 323.5 217.0, 322.7 217.0 Q 321.8 217.0, 321.4 217.3 Q 320.9 217.7, 320.9 218.2 Q 320.9 218.7, 321.1 219.0 Q 321.4 219.3, 321.7 219.4 Q 322.1 219.6, 322.7 219.8 Q 323.5 220.0, 323.9 220.3 Q 324.4 220.5, 324.7 221.0 Q 325.1 221.5, 325.1 222.3 Q 325.1 223.5, 324.2 224.2 Q 323.5 224.8, 322.1 224.8 Q 321.4 224.8, 320.8 224.6 Q 320.2 224.5, 319.5 224.2 L 319.8 223.2 " fill="#CCCC00"/>
<path class="atom-28" d="M 343.6 269.0 Q 343.6 266.9, 344.6 265.7 Q 345.6 264.6, 347.6 264.6 Q 349.3 264.6, 350.3 265.9 L 349.5 266.5 Q 348.8 265.6, 347.6 265.6 Q 346.3 265.6, 345.6 266.5 Q 344.9 267.4, 344.9 269.0 Q 344.9 270.7, 345.6 271.6 Q 346.3 272.5, 347.7 272.5 Q 348.7 272.5, 349.8 271.9 L 350.1 272.8 Q 349.7 273.1, 349.0 273.3 Q 348.3 273.5, 347.5 273.5 Q 345.6 273.5, 344.6 272.3 Q 343.6 271.2, 343.6 269.0 " fill="#00CC00"/>
<path class="atom-28" d="M 351.2 264.1 L 352.3 264.1 L 352.3 273.3 L 351.2 273.3 L 351.2 264.1 " fill="#00CC00"/>
</svg>