<?xml version="1.0" ?><svg xmlns="http://www.w3.org/2000/svg" xmlns:rdkit="http://www.rdkit.org/xml" xmlns:xlink="http://www.w3.org/1999/xlink" version="1.1" baseProfile="full" xml:space="preserve" width="400px" height="300px" viewBox="0 0 400 300">
<!-- END OF HEADER -->
<ellipse cx="362.3" cy="104.9" rx="19.5" ry="19.5" class="atom-0" style="opacity:0"/>
<ellipse cx="324.8" cy="149.7" rx="19.5" ry="19.5" class="atom-1" style="opacity:0"/>
<ellipse cx="259.1" cy="139.5" rx="20.3" ry="19.5" class="atom-2" style="opacity:0"/>
<ellipse cx="247.3" cy="84.6" rx="19.5" ry="19.5" class="atom-3" style="opacity:0"/>
<ellipse cx="209.7" cy="40.0" rx="19.5" ry="19.5" class="atom-4" style="opacity:0"/>
<ellipse cx="284.8" cy="40.0" rx="19.5" ry="19.5" class="atom-5" style="opacity:0"/>
<ellipse cx="342.4" cy="50.0" rx="19.5" ry="19.5" class="atom-6" style="opacity:0"/>
<ellipse cx="196.7" cy="113.8" rx="19.5" ry="19.5" class="atom-7" style="opacity:0"/>
<ellipse cx="146.1" cy="84.6" rx="19.5" ry="19.5" class="atom-8" style="opacity:0"/>
<ellipse cx="95.5" cy="113.8" rx="19.5" ry="19.5" class="atom-9" style="opacity:0"/>
<ellipse cx="37.7" cy="84.7" rx="19.5" ry="19.5" class="atom-10" style="opacity:0"/>
<ellipse cx="196.7" cy="172.3" rx="19.5" ry="19.5" class="atom-11" style="opacity:0"/>
<ellipse cx="146.1" cy="201.5" rx="19.5" ry="19.5" class="atom-12" style="opacity:0"/>
<ellipse cx="148.0" cy="260.0" rx="19.5" ry="19.5" class="atom-13" style="opacity:0"/>
<path class="bond-0 atom-0 atom-1" d="M 362.3,104.9 L 324.8,149.7" style="fill:none;fill-rule:evenodd;stroke:#000000;stroke-width:2.0px;stroke-linecap:butt;stroke-linejoin:miter;stroke-opacity:1"/>
<path class="bond-1 atom-1 atom-2" d="M 324.8,149.7 L 300.1,145.3" style="fill:none;fill-rule:evenodd;stroke:#000000;stroke-width:2.0px;stroke-linecap:butt;stroke-linejoin:miter;stroke-opacity:1"/>
<path class="bond-1 atom-1 atom-2" d="M 300.1,145.3 L 275.5,141.0" style="fill:none;fill-rule:evenodd;stroke:#0000FF;stroke-width:2.0px;stroke-linecap:butt;stroke-linejoin:miter;stroke-opacity:1"/>
<path class="bond-2 atom-2 atom-3" d="M 263.5,129.3 L 257.3,112.1" style="fill:none;fill-rule:evenodd;stroke:#0000FF;stroke-width:2.0px;stroke-linecap:butt;stroke-linejoin:miter;stroke-opacity:1"/>
<path class="bond-2 atom-2 atom-3" d="M 257.3,112.1 L 251.0,94.8" style="fill:none;fill-rule:evenodd;stroke:#FF7F00;stroke-width:2.0px;stroke-linecap:butt;stroke-linejoin:miter;stroke-opacity:1"/>
<path class="bond-3 atom-3 atom-4" d="M 243.4,73.2 L 232.7,60.4" style="fill:none;fill-rule:evenodd;stroke:#FF7F00;stroke-width:2.0px;stroke-linecap:butt;stroke-linejoin:miter;stroke-opacity:1"/>
<path class="bond-3 atom-3 atom-4" d="M 232.7,60.4 L 221.9,47.6" style="fill:none;fill-rule:evenodd;stroke:#FF0000;stroke-width:2.0px;stroke-linecap:butt;stroke-linejoin:miter;stroke-opacity:1"/>
<path class="bond-3 atom-3 atom-4" d="M 236.7,78.8 L 226.0,66.0" style="fill:none;fill-rule:evenodd;stroke:#FF7F00;stroke-width:2.0px;stroke-linecap:butt;stroke-linejoin:miter;stroke-opacity:1"/>
<path class="bond-3 atom-3 atom-4" d="M 226.0,66.0 L 215.2,53.2" style="fill:none;fill-rule:evenodd;stroke:#FF0000;stroke-width:2.0px;stroke-linecap:butt;stroke-linejoin:miter;stroke-opacity:1"/>
<path class="bond-4 atom-3 atom-5" d="M 254.5,76.0 L 265.2,63.2" style="fill:none;fill-rule:evenodd;stroke:#FF7F00;stroke-width:2.0px;stroke-linecap:butt;stroke-linejoin:miter;stroke-opacity:1"/>
<path class="bond-4 atom-3 atom-5" d="M 265.2,63.2 L 276.0,50.4" style="fill:none;fill-rule:evenodd;stroke:#FF0000;stroke-width:2.0px;stroke-linecap:butt;stroke-linejoin:miter;stroke-opacity:1"/>
<path class="bond-5 atom-5 atom-6" d="M 294.3,41.5 L 318.4,45.8" style="fill:none;fill-rule:evenodd;stroke:#FF0000;stroke-width:2.0px;stroke-linecap:butt;stroke-linejoin:miter;stroke-opacity:1"/>
<path class="bond-5 atom-5 atom-6" d="M 318.4,45.8 L 342.4,50.0" style="fill:none;fill-rule:evenodd;stroke:#000000;stroke-width:2.0px;stroke-linecap:butt;stroke-linejoin:miter;stroke-opacity:1"/>
<path class="bond-6 atom-3 atom-7" d="M 240.1,88.8 L 222.5,98.9" style="fill:none;fill-rule:evenodd;stroke:#FF7F00;stroke-width:2.0px;stroke-linecap:butt;stroke-linejoin:miter;stroke-opacity:1"/>
<path class="bond-6 atom-3 atom-7" d="M 222.5,98.9 L 204.9,109.1" style="fill:none;fill-rule:evenodd;stroke:#0000FF;stroke-width:2.0px;stroke-linecap:butt;stroke-linejoin:miter;stroke-opacity:1"/>
<path class="bond-7 atom-7 atom-8" d="M 188.5,109.1 L 167.3,96.9" style="fill:none;fill-rule:evenodd;stroke:#0000FF;stroke-width:2.0px;stroke-linecap:butt;stroke-linejoin:miter;stroke-opacity:1"/>
<path class="bond-7 atom-7 atom-8" d="M 167.3,96.9 L 146.1,84.6" style="fill:none;fill-rule:evenodd;stroke:#000000;stroke-width:2.0px;stroke-linecap:butt;stroke-linejoin:miter;stroke-opacity:1"/>
<path class="bond-8 atom-8 atom-9" d="M 146.1,84.6 L 95.5,113.8" style="fill:none;fill-rule:evenodd;stroke:#000000;stroke-width:2.0px;stroke-linecap:butt;stroke-linejoin:miter;stroke-opacity:1"/>
<path class="bond-9 atom-9 atom-10" d="M 95.5,113.8 L 71.7,100.1" style="fill:none;fill-rule:evenodd;stroke:#000000;stroke-width:2.0px;stroke-linecap:butt;stroke-linejoin:miter;stroke-opacity:1"/>
<path class="bond-9 atom-9 atom-10" d="M 71.7,100.1 L 47.9,86.4" style="fill:none;fill-rule:evenodd;stroke:#00CC00;stroke-width:2.0px;stroke-linecap:butt;stroke-linejoin:miter;stroke-opacity:1"/>
<path class="bond-10 atom-7 atom-11" d="M 196.7,124.0 L 196.7,148.1" style="fill:none;fill-rule:evenodd;stroke:#0000FF;stroke-width:2.0px;stroke-linecap:butt;stroke-linejoin:miter;stroke-opacity:1"/>
<path class="bond-10 atom-7 atom-11" d="M 196.7,148.1 L 196.7,172.3" style="fill:none;fill-rule:evenodd;stroke:#000000;stroke-width:2.0px;stroke-linecap:butt;stroke-linejoin:miter;stroke-opacity:1"/>
<path class="bond-11 atom-11 atom-12" d="M 196.7,172.3 L 146.1,201.5" style="fill:none;fill-rule:evenodd;stroke:#000000;stroke-width:2.0px;stroke-linecap:butt;stroke-linejoin:miter;stroke-opacity:1"/>
<path class="bond-12 atom-12 atom-13" d="M 146.1,201.5 L 146.1,225.8" style="fill:none;fill-rule:evenodd;stroke:#000000;stroke-width:2.0px;stroke-linecap:butt;stroke-linejoin:miter;stroke-opacity:1"/>
<path class="bond-12 atom-12 atom-13" d="M 146.1,225.8 L 146.1,250.1" style="fill:none;fill-rule:evenodd;stroke:#00CC00;stroke-width:2.0px;stroke-linecap:butt;stroke-linejoin:miter;stroke-opacity:1"/>
<path class="bond-13 atom-6 atom-0" d="M 342.4,50.0 L 362.3,104.9" style="fill:none;fill-rule:evenodd;stroke:#000000;stroke-width:2.0px;stroke-linecap:butt;stroke-linejoin:miter;stroke-opacity:1"/>
<path d="M 360.5,107.2 L 362.3,104.9 L 361.3,102.2" style="fill:none;stroke:#000000;stroke-width:2.0px;stroke-linecap:butt;stroke-linejoin:miter;stroke-opacity:1;"/>
<path d="M 326.7,147.4 L 324.8,149.7 L 323.6,149.5" style="fill:none;stroke:#000000;stroke-width:2.0px;stroke-linecap:butt;stroke-linejoin:miter;stroke-opacity:1;"/>
<path d="M 341.2,49.8 L 342.4,50.0 L 343.4,52.8" style="fill:none;stroke:#000000;stroke-width:2.0px;stroke-linecap:butt;stroke-linejoin:miter;stroke-opacity:1;"/>
<path d="M 147.1,85.2 L 146.1,84.6 L 143.5,86.1" style="fill:none;stroke:#000000;stroke-width:2.0px;stroke-linecap:butt;stroke-linejoin:miter;stroke-opacity:1;"/>
<path d="M 98.0,112.4 L 95.5,113.8 L 94.3,113.1" style="fill:none;stroke:#000000;stroke-width:2.0px;stroke-linecap:butt;stroke-linejoin:miter;stroke-opacity:1;"/>
<path d="M 196.7,171.1 L 196.7,172.3 L 194.1,173.7" style="fill:none;stroke:#000000;stroke-width:2.0px;stroke-linecap:butt;stroke-linejoin:miter;stroke-opacity:1;"/>
<path d="M 148.6,200.0 L 146.1,201.5 L 146.1,202.7" style="fill:none;stroke:#000000;stroke-width:2.0px;stroke-linecap:butt;stroke-linejoin:miter;stroke-opacity:1;"/>
<path class="atom-2" d="M 244.8 131.3 L 247.0 131.3 L 247.0 138.3 L 255.5 138.3 L 255.5 131.3 L 257.7 131.3 L 257.7 147.8 L 255.5 147.8 L 255.5 140.2 L 247.0 140.2 L 247.0 147.8 L 244.8 147.8 L 244.8 131.3 " fill="#0000FF"/>
<path class="atom-2" d="M 263.6 131.3 L 269.0 140.0 Q 269.6 140.9, 270.4 142.4 Q 271.3 144.0, 271.3 144.1 L 271.3 131.3 L 273.5 131.3 L 273.5 147.8 L 271.3 147.8 L 265.4 138.2 Q 264.8 137.1, 264.0 135.8 Q 263.3 134.5, 263.1 134.1 L 263.1 147.8 L 261.0 147.8 L 261.0 131.3 L 263.6 131.3 " fill="#0000FF"/>
<path class="atom-3" d="M 246.9 76.4 Q 249.7 76.4, 251.1 77.6 Q 252.5 78.9, 252.5 81.2 Q 252.5 83.5, 251.1 84.8 Q 249.6 86.1, 246.9 86.1 L 244.2 86.1 L 244.2 92.9 L 242.0 92.9 L 242.0 76.4 L 246.9 76.4 M 246.9 84.2 Q 248.5 84.2, 249.3 83.5 Q 250.2 82.7, 250.2 81.2 Q 250.2 79.7, 249.3 79.0 Q 248.5 78.2, 246.9 78.2 L 244.2 78.2 L 244.2 84.2 L 246.9 84.2 " fill="#FF7F00"/>
<path class="atom-4" d="M 202.1 39.9 Q 202.1 35.9, 204.1 33.7 Q 206.0 31.5, 209.7 31.5 Q 213.4 31.5, 215.3 33.7 Q 217.3 35.9, 217.3 39.9 Q 217.3 43.9, 215.3 46.2 Q 213.3 48.5, 209.7 48.5 Q 206.1 48.5, 204.1 46.2 Q 202.1 44.0, 202.1 39.9 M 209.7 46.6 Q 212.2 46.6, 213.6 44.9 Q 215.0 43.2, 215.0 39.9 Q 215.0 36.7, 213.6 35.0 Q 212.2 33.4, 209.7 33.4 Q 207.2 33.4, 205.8 35.0 Q 204.5 36.6, 204.5 39.9 Q 204.5 43.3, 205.8 44.9 Q 207.2 46.6, 209.7 46.6 " fill="#FF0000"/>
<path class="atom-5" d="M 277.2 39.9 Q 277.2 35.9, 279.2 33.7 Q 281.2 31.5, 284.8 31.5 Q 288.5 31.5, 290.5 33.7 Q 292.4 35.9, 292.4 39.9 Q 292.4 43.9, 290.4 46.2 Q 288.4 48.5, 284.8 48.5 Q 281.2 48.5, 279.2 46.2 Q 277.2 44.0, 277.2 39.9 M 284.8 46.6 Q 287.3 46.6, 288.7 44.9 Q 290.1 43.2, 290.1 39.9 Q 290.1 36.7, 288.7 35.0 Q 287.3 33.4, 284.8 33.4 Q 282.3 33.4, 280.9 35.0 Q 279.6 36.6, 279.6 39.9 Q 279.6 43.3, 280.9 44.9 Q 282.3 46.6, 284.8 46.6 " fill="#FF0000"/>
<path class="atom-7" d="M 193.0 105.6 L 198.4 114.3 Q 199.0 115.2, 199.8 116.8 Q 200.7 118.3, 200.7 118.4 L 200.7 105.6 L 202.9 105.6 L 202.9 122.1 L 200.7 122.1 L 194.9 112.5 Q 194.2 111.4, 193.5 110.1 Q 192.8 108.8, 192.5 108.4 L 192.5 122.1 L 190.4 122.1 L 190.4 105.6 L 193.0 105.6 " fill="#0000FF"/>
<path class="atom-10" d="M 29.4 85.2 Q 29.4 81.1, 31.3 78.9 Q 33.2 76.8, 36.9 76.8 Q 40.3 76.8, 42.1 79.2 L 40.6 80.4 Q 39.2 78.7, 36.9 78.7 Q 34.4 78.7, 33.1 80.4 Q 31.7 82.0, 31.7 85.2 Q 31.7 88.5, 33.1 90.2 Q 34.5 91.8, 37.1 91.8 Q 39.0 91.8, 41.1 90.7 L 41.7 92.5 Q 40.9 93.0, 39.6 93.4 Q 38.3 93.7, 36.8 93.7 Q 33.2 93.7, 31.3 91.5 Q 29.4 89.3, 29.4 85.2 " fill="#00CC00"/>
<path class="atom-10" d="M 43.8 75.8 L 46.0 75.8 L 46.0 93.5 L 43.8 93.5 L 43.8 75.8 " fill="#00CC00"/>
<path class="atom-13" d="M 139.7 260.5 Q 139.7 256.4, 141.6 254.2 Q 143.5 252.0, 147.2 252.0 Q 150.6 252.0, 152.5 254.4 L 150.9 255.7 Q 149.6 254.0, 147.2 254.0 Q 144.7 254.0, 143.4 255.6 Q 142.1 257.3, 142.1 260.5 Q 142.1 263.7, 143.4 265.4 Q 144.8 267.1, 147.5 267.1 Q 149.3 267.1, 151.4 266.0 L 152.1 267.8 Q 151.2 268.3, 149.9 268.7 Q 148.6 269.0, 147.1 269.0 Q 143.5 269.0, 141.6 266.8 Q 139.7 264.6, 139.7 260.5 " fill="#00CC00"/>
<path class="atom-13" d="M 154.1 251.0 L 156.3 251.0 L 156.3 268.8 L 154.1 268.8 L 154.1 251.0 " fill="#00CC00"/>
</svg>