<?xml version="1.0" ?><svg xmlns="http://www.w3.org/2000/svg" xmlns:rdkit="http://www.rdkit.org/xml" xmlns:xlink="http://www.w3.org/1999/xlink" version="1.1" baseProfile="full" xml:space="preserve" width="400px" height="300px" viewBox="0 0 400 300">
<!-- END OF HEADER -->
<ellipse cx="241.5" cy="232.8" rx="14.3" ry="14.3" class="atom-0" style="opacity:0"/>
<ellipse cx="284.2" cy="228.3" rx="14.3" ry="14.3" class="atom-1" style="opacity:0"/>
<ellipse cx="293.1" cy="186.3" rx="14.3" ry="14.3" class="atom-2" style="opacity:0"/>
<ellipse cx="255.9" cy="164.8" rx="14.3" ry="14.3" class="atom-3" style="opacity:0"/>
<ellipse cx="224.0" cy="193.5" rx="14.3" ry="14.3" class="atom-4" style="opacity:0"/>
<ellipse cx="182.0" cy="184.6" rx="14.3" ry="14.3" class="atom-5" style="opacity:0"/>
<ellipse cx="153.3" cy="216.6" rx="14.3" ry="14.3" class="atom-6" style="opacity:0"/>
<ellipse cx="111.3" cy="207.6" rx="14.3" ry="14.3" class="atom-7" style="opacity:0"/>
<ellipse cx="82.6" cy="239.5" rx="14.3" ry="14.3" class="atom-8" style="opacity:0"/>
<ellipse cx="34.6" cy="230.7" rx="16.4" ry="14.3" class="atom-9" style="opacity:0"/>
<ellipse cx="255.9" cy="121.9" rx="14.3" ry="14.3" class="atom-10" style="opacity:0"/>
<ellipse cx="293.1" cy="100.4" rx="14.3" ry="14.3" class="atom-11" style="opacity:0"/>
<ellipse cx="336.3" cy="121.9" rx="14.9" ry="14.3" class="atom-12" style="opacity:0"/>
<ellipse cx="330.3" cy="164.8" rx="14.3" ry="14.3" class="atom-13" style="opacity:0"/>
<ellipse cx="367.5" cy="186.4" rx="14.3" ry="14.3" class="atom-14" style="opacity:0"/>
<ellipse cx="302.9" cy="60.5" rx="20.4" ry="14.3" class="atom-15" style="opacity:0"/>
<path class="bond-0 atom-0 atom-1" d="M 241.5,232.8 L 259.8,230.8" style="fill:none;fill-rule:evenodd;stroke:#000000;stroke-width:2.0px;stroke-linecap:butt;stroke-linejoin:miter;stroke-opacity:1"/>
<path class="bond-0 atom-0 atom-1" d="M 259.8,230.8 L 278.2,228.9" style="fill:none;fill-rule:evenodd;stroke:#0000FF;stroke-width:2.0px;stroke-linecap:butt;stroke-linejoin:miter;stroke-opacity:1"/>
<path class="bond-0 atom-0 atom-1" d="M 245.5,225.9 L 261.5,224.2" style="fill:none;fill-rule:evenodd;stroke:#000000;stroke-width:2.0px;stroke-linecap:butt;stroke-linejoin:miter;stroke-opacity:1"/>
<path class="bond-0 atom-0 atom-1" d="M 261.5,224.2 L 277.5,222.5" style="fill:none;fill-rule:evenodd;stroke:#0000FF;stroke-width:2.0px;stroke-linecap:butt;stroke-linejoin:miter;stroke-opacity:1"/>
<path class="bond-1 atom-1 atom-2" d="M 285.8,220.8 L 289.5,203.5" style="fill:none;fill-rule:evenodd;stroke:#0000FF;stroke-width:2.0px;stroke-linecap:butt;stroke-linejoin:miter;stroke-opacity:1"/>
<path class="bond-1 atom-1 atom-2" d="M 289.5,203.5 L 293.1,186.3" style="fill:none;fill-rule:evenodd;stroke:#000000;stroke-width:2.0px;stroke-linecap:butt;stroke-linejoin:miter;stroke-opacity:1"/>
<path class="bond-2 atom-2 atom-3" d="M 293.1,186.3 L 255.9,164.8" style="fill:none;fill-rule:evenodd;stroke:#000000;stroke-width:2.0px;stroke-linecap:butt;stroke-linejoin:miter;stroke-opacity:1"/>
<path class="bond-2 atom-2 atom-3" d="M 285.9,189.5 L 256.8,172.7" style="fill:none;fill-rule:evenodd;stroke:#000000;stroke-width:2.0px;stroke-linecap:butt;stroke-linejoin:miter;stroke-opacity:1"/>
<path class="bond-3 atom-3 atom-4" d="M 255.9,164.8 L 243.0,176.5" style="fill:none;fill-rule:evenodd;stroke:#000000;stroke-width:2.0px;stroke-linecap:butt;stroke-linejoin:miter;stroke-opacity:1"/>
<path class="bond-3 atom-3 atom-4" d="M 243.0,176.5 L 230.1,188.1" style="fill:none;fill-rule:evenodd;stroke:#0000FF;stroke-width:2.0px;stroke-linecap:butt;stroke-linejoin:miter;stroke-opacity:1"/>
<path class="bond-4 atom-4 atom-5" d="M 218.0,192.3 L 200.0,188.4" style="fill:none;fill-rule:evenodd;stroke:#0000FF;stroke-width:2.0px;stroke-linecap:butt;stroke-linejoin:miter;stroke-opacity:1"/>
<path class="bond-4 atom-4 atom-5" d="M 200.0,188.4 L 182.0,184.6" style="fill:none;fill-rule:evenodd;stroke:#000000;stroke-width:2.0px;stroke-linecap:butt;stroke-linejoin:miter;stroke-opacity:1"/>
<path class="bond-5 atom-5 atom-6" d="M 182.0,184.6 L 171.1,196.8" style="fill:none;fill-rule:evenodd;stroke:#000000;stroke-width:2.0px;stroke-linecap:butt;stroke-linejoin:miter;stroke-opacity:1"/>
<path class="bond-5 atom-5 atom-6" d="M 171.1,196.8 L 160.1,209.0" style="fill:none;fill-rule:evenodd;stroke:#FF0000;stroke-width:2.0px;stroke-linecap:butt;stroke-linejoin:miter;stroke-opacity:1"/>
<path class="bond-6 atom-6 atom-7" d="M 146.3,215.0 L 128.8,211.3" style="fill:none;fill-rule:evenodd;stroke:#FF0000;stroke-width:2.0px;stroke-linecap:butt;stroke-linejoin:miter;stroke-opacity:1"/>
<path class="bond-6 atom-6 atom-7" d="M 128.8,211.3 L 111.3,207.6" style="fill:none;fill-rule:evenodd;stroke:#000000;stroke-width:2.0px;stroke-linecap:butt;stroke-linejoin:miter;stroke-opacity:1"/>
<path class="bond-7 atom-7 atom-8" d="M 111.3,207.6 L 82.6,239.5" style="fill:none;fill-rule:evenodd;stroke:#000000;stroke-width:2.0px;stroke-linecap:butt;stroke-linejoin:miter;stroke-opacity:1"/>
<path class="bond-8 atom-8 atom-9" d="M 82.6,239.5 L 65.1,235.8" style="fill:none;fill-rule:evenodd;stroke:#000000;stroke-width:2.0px;stroke-linecap:butt;stroke-linejoin:miter;stroke-opacity:1"/>
<path class="bond-8 atom-8 atom-9" d="M 65.1,235.8 L 47.6,232.1" style="fill:none;fill-rule:evenodd;stroke:#FF0000;stroke-width:2.0px;stroke-linecap:butt;stroke-linejoin:miter;stroke-opacity:1"/>
<path class="bond-9 atom-3 atom-10" d="M 255.9,164.8 L 255.9,147.1" style="fill:none;fill-rule:evenodd;stroke:#000000;stroke-width:2.0px;stroke-linecap:butt;stroke-linejoin:miter;stroke-opacity:1"/>
<path class="bond-9 atom-3 atom-10" d="M 255.9,147.1 L 255.9,129.4" style="fill:none;fill-rule:evenodd;stroke:#0000FF;stroke-width:2.0px;stroke-linecap:butt;stroke-linejoin:miter;stroke-opacity:1"/>
<path class="bond-10 atom-10 atom-11" d="M 262.0,118.4 L 277.6,109.4" style="fill:none;fill-rule:evenodd;stroke:#0000FF;stroke-width:2.0px;stroke-linecap:butt;stroke-linejoin:miter;stroke-opacity:1"/>
<path class="bond-10 atom-10 atom-11" d="M 277.6,109.4 L 293.1,100.4" style="fill:none;fill-rule:evenodd;stroke:#000000;stroke-width:2.0px;stroke-linecap:butt;stroke-linejoin:miter;stroke-opacity:1"/>
<path class="bond-10 atom-10 atom-11" d="M 265.2,124.0 L 279.2,115.9" style="fill:none;fill-rule:evenodd;stroke:#0000FF;stroke-width:2.0px;stroke-linecap:butt;stroke-linejoin:miter;stroke-opacity:1"/>
<path class="bond-10 atom-10 atom-11" d="M 279.2,115.9 L 293.1,107.8" style="fill:none;fill-rule:evenodd;stroke:#000000;stroke-width:2.0px;stroke-linecap:butt;stroke-linejoin:miter;stroke-opacity:1"/>
<path class="bond-11 atom-11 atom-12" d="M 293.1,100.4 L 308.7,109.4" style="fill:none;fill-rule:evenodd;stroke:#000000;stroke-width:2.0px;stroke-linecap:butt;stroke-linejoin:miter;stroke-opacity:1"/>
<path class="bond-11 atom-11 atom-12" d="M 308.7,109.4 L 324.3,118.4" style="fill:none;fill-rule:evenodd;stroke:#0000FF;stroke-width:2.0px;stroke-linecap:butt;stroke-linejoin:miter;stroke-opacity:1"/>
<path class="bond-12 atom-12 atom-13" d="M 330.3,129.4 L 330.3,147.1" style="fill:none;fill-rule:evenodd;stroke:#0000FF;stroke-width:2.0px;stroke-linecap:butt;stroke-linejoin:miter;stroke-opacity:1"/>
<path class="bond-12 atom-12 atom-13" d="M 330.3,147.1 L 330.3,164.8" style="fill:none;fill-rule:evenodd;stroke:#000000;stroke-width:2.0px;stroke-linecap:butt;stroke-linejoin:miter;stroke-opacity:1"/>
<path class="bond-13 atom-13 atom-14" d="M 327.1,166.7 L 343.0,175.8" style="fill:none;fill-rule:evenodd;stroke:#000000;stroke-width:2.0px;stroke-linecap:butt;stroke-linejoin:miter;stroke-opacity:1"/>
<path class="bond-13 atom-13 atom-14" d="M 343.0,175.8 L 358.9,185.0" style="fill:none;fill-rule:evenodd;stroke:#FF0000;stroke-width:2.0px;stroke-linecap:butt;stroke-linejoin:miter;stroke-opacity:1"/>
<path class="bond-13 atom-13 atom-14" d="M 330.3,161.1 L 346.2,170.3" style="fill:none;fill-rule:evenodd;stroke:#000000;stroke-width:2.0px;stroke-linecap:butt;stroke-linejoin:miter;stroke-opacity:1"/>
<path class="bond-13 atom-13 atom-14" d="M 346.2,170.3 L 362.1,179.4" style="fill:none;fill-rule:evenodd;stroke:#FF0000;stroke-width:2.0px;stroke-linecap:butt;stroke-linejoin:miter;stroke-opacity:1"/>
<path class="bond-14 atom-11 atom-15" d="M 293.1,100.4 L 293.1,82.7" style="fill:none;fill-rule:evenodd;stroke:#000000;stroke-width:2.0px;stroke-linecap:butt;stroke-linejoin:miter;stroke-opacity:1"/>
<path class="bond-14 atom-11 atom-15" d="M 293.1,82.7 L 293.1,65.0" style="fill:none;fill-rule:evenodd;stroke:#0000FF;stroke-width:2.0px;stroke-linecap:butt;stroke-linejoin:miter;stroke-opacity:1"/>
<path class="bond-15 atom-4 atom-0" d="M 227.4,201.0 L 234.4,216.9" style="fill:none;fill-rule:evenodd;stroke:#0000FF;stroke-width:2.0px;stroke-linecap:butt;stroke-linejoin:miter;stroke-opacity:1"/>
<path class="bond-15 atom-4 atom-0" d="M 234.4,216.9 L 241.5,232.8" style="fill:none;fill-rule:evenodd;stroke:#000000;stroke-width:2.0px;stroke-linecap:butt;stroke-linejoin:miter;stroke-opacity:1"/>
<path class="bond-16 atom-13 atom-2" d="M 330.3,164.8 L 293.1,186.3" style="fill:none;fill-rule:evenodd;stroke:#000000;stroke-width:2.0px;stroke-linecap:butt;stroke-linejoin:miter;stroke-opacity:1"/>
<path d="M 242.4,232.7 L 241.5,232.8 L 241.1,232.0" style="fill:none;stroke:#000000;stroke-width:2.0px;stroke-linecap:butt;stroke-linejoin:miter;stroke-opacity:1;"/>
<path d="M 182.9,184.8 L 182.0,184.6 L 181.5,185.2" style="fill:none;stroke:#000000;stroke-width:2.0px;stroke-linecap:butt;stroke-linejoin:miter;stroke-opacity:1;"/>
<path d="M 112.2,207.8 L 111.3,207.6 L 109.9,209.2" style="fill:none;stroke:#000000;stroke-width:2.0px;stroke-linecap:butt;stroke-linejoin:miter;stroke-opacity:1;"/>
<path d="M 84.0,237.9 L 82.6,239.5 L 81.7,239.3" style="fill:none;stroke:#000000;stroke-width:2.0px;stroke-linecap:butt;stroke-linejoin:miter;stroke-opacity:1;"/>
<path d="M 330.3,163.9 L 330.3,164.8 L 328.5,165.9" style="fill:none;stroke:#000000;stroke-width:2.0px;stroke-linecap:butt;stroke-linejoin:miter;stroke-opacity:1;"/>
<path class="atom-1" d="M 281.5 222.2 L 285.5 228.6 Q 285.9 229.3, 286.5 230.4 Q 287.2 231.6, 287.2 231.6 L 287.2 222.2 L 288.8 222.2 L 288.8 234.4 L 287.2 234.4 L 282.9 227.3 Q 282.4 226.5, 281.8 225.5 Q 281.3 224.6, 281.2 224.3 L 281.2 234.4 L 279.6 234.4 L 279.6 222.2 L 281.5 222.2 " fill="#0000FF"/>
<path class="atom-4" d="M 221.3 187.5 L 225.3 193.9 Q 225.7 194.5, 226.4 195.7 Q 227.0 196.8, 227.0 196.9 L 227.0 187.5 L 228.6 187.5 L 228.6 199.6 L 227.0 199.6 L 222.7 192.6 Q 222.2 191.8, 221.7 190.8 Q 221.2 189.9, 221.0 189.6 L 221.0 199.6 L 219.4 199.6 L 219.4 187.5 L 221.3 187.5 " fill="#0000FF"/>
<path class="atom-6" d="M 147.7 216.6 Q 147.7 213.6, 149.2 212.0 Q 150.6 210.4, 153.3 210.4 Q 156.0 210.4, 157.4 212.0 Q 158.9 213.6, 158.9 216.6 Q 158.9 219.5, 157.4 221.2 Q 156.0 222.9, 153.3 222.9 Q 150.6 222.9, 149.2 221.2 Q 147.7 219.5, 147.7 216.6 M 153.3 221.5 Q 155.2 221.5, 156.2 220.2 Q 157.2 219.0, 157.2 216.6 Q 157.2 214.2, 156.2 213.0 Q 155.2 211.7, 153.3 211.7 Q 151.5 211.7, 150.4 212.9 Q 149.4 214.1, 149.4 216.6 Q 149.4 219.0, 150.4 220.2 Q 151.5 221.5, 153.3 221.5 " fill="#FF0000"/>
<path class="atom-9" d="M 23.0 224.6 L 24.6 224.6 L 24.6 229.7 L 30.8 229.7 L 30.8 224.6 L 32.5 224.6 L 32.5 236.7 L 30.8 236.7 L 30.8 231.1 L 24.6 231.1 L 24.6 236.7 L 23.0 236.7 L 23.0 224.6 " fill="#FF0000"/>
<path class="atom-9" d="M 35.0 230.6 Q 35.0 227.7, 36.4 226.1 Q 37.9 224.4, 40.6 224.4 Q 43.3 224.4, 44.7 226.1 Q 46.2 227.7, 46.2 230.6 Q 46.2 233.6, 44.7 235.2 Q 43.2 236.9, 40.6 236.9 Q 37.9 236.9, 36.4 235.2 Q 35.0 233.6, 35.0 230.6 M 40.6 235.5 Q 42.4 235.5, 43.4 234.3 Q 44.4 233.0, 44.4 230.6 Q 44.4 228.2, 43.4 227.0 Q 42.4 225.8, 40.6 225.8 Q 38.7 225.8, 37.7 227.0 Q 36.7 228.2, 36.7 230.6 Q 36.7 233.1, 37.7 234.3 Q 38.7 235.5, 40.6 235.5 " fill="#FF0000"/>
<path class="atom-10" d="M 253.3 115.8 L 257.2 122.2 Q 257.6 122.9, 258.3 124.0 Q 258.9 125.2, 258.9 125.2 L 258.9 115.8 L 260.6 115.8 L 260.6 127.9 L 258.9 127.9 L 254.6 120.9 Q 254.1 120.1, 253.6 119.1 Q 253.1 118.2, 252.9 117.9 L 252.9 127.9 L 251.3 127.9 L 251.3 115.8 L 253.3 115.8 " fill="#0000FF"/>
<path class="atom-12" d="M 327.6 115.8 L 331.6 122.2 Q 332.0 122.9, 332.6 124.0 Q 333.3 125.2, 333.3 125.2 L 333.3 115.8 L 334.9 115.8 L 334.9 127.9 L 333.3 127.9 L 329.0 120.9 Q 328.5 120.1, 328.0 119.1 Q 327.4 118.2, 327.3 117.9 L 327.3 127.9 L 325.7 127.9 L 325.7 115.8 L 327.6 115.8 " fill="#0000FF"/>
<path class="atom-12" d="M 337.3 115.8 L 338.9 115.8 L 338.9 121.0 L 345.2 121.0 L 345.2 115.8 L 346.8 115.8 L 346.8 127.9 L 345.2 127.9 L 345.2 122.3 L 338.9 122.3 L 338.9 127.9 L 337.3 127.9 L 337.3 115.8 " fill="#0000FF"/>
<path class="atom-14" d="M 361.9 186.3 Q 361.9 183.4, 363.4 181.8 Q 364.8 180.1, 367.5 180.1 Q 370.2 180.1, 371.6 181.8 Q 373.1 183.4, 373.1 186.3 Q 373.1 189.3, 371.6 190.9 Q 370.2 192.6, 367.5 192.6 Q 364.8 192.6, 363.4 190.9 Q 361.9 189.3, 361.9 186.3 M 367.5 191.2 Q 369.4 191.2, 370.4 190.0 Q 371.4 188.7, 371.4 186.3 Q 371.4 183.9, 370.4 182.7 Q 369.4 181.5, 367.5 181.5 Q 365.7 181.5, 364.6 182.7 Q 363.6 183.9, 363.6 186.3 Q 363.6 188.8, 364.6 190.0 Q 365.7 191.2, 367.5 191.2 " fill="#FF0000"/>
<path class="atom-15" d="M 290.4 51.4 L 294.4 57.8 Q 294.8 58.5, 295.5 59.6 Q 296.1 60.8, 296.1 60.8 L 296.1 51.4 L 297.7 51.4 L 297.7 63.5 L 296.1 63.5 L 291.8 56.5 Q 291.3 55.7, 290.8 54.7 Q 290.3 53.8, 290.1 53.5 L 290.1 63.5 L 288.5 63.5 L 288.5 51.4 L 290.4 51.4 " fill="#0000FF"/>
<path class="atom-15" d="M 300.1 51.4 L 301.7 51.4 L 301.7 56.5 L 307.9 56.5 L 307.9 51.4 L 309.6 51.4 L 309.6 63.5 L 307.9 63.5 L 307.9 57.9 L 301.7 57.9 L 301.7 63.5 L 300.1 63.5 L 300.1 51.4 " fill="#0000FF"/>
<path class="atom-15" d="M 312.0 63.1 Q 312.3 62.4, 313.0 61.9 Q 313.7 61.5, 314.6 61.5 Q 315.9 61.5, 316.5 62.2 Q 317.2 62.8, 317.2 64.0 Q 317.2 65.2, 316.3 66.3 Q 315.5 67.4, 313.6 68.7 L 317.3 68.7 L 317.3 69.6 L 311.9 69.6 L 311.9 68.9 Q 313.4 67.8, 314.3 67.0 Q 315.2 66.2, 315.6 65.5 Q 316.1 64.8, 316.1 64.0 Q 316.1 63.3, 315.7 62.8 Q 315.3 62.4, 314.6 62.4 Q 314.0 62.4, 313.6 62.7 Q 313.1 62.9, 312.8 63.5 L 312.0 63.1 " fill="#0000FF"/>
</svg>