<svg xmlns="http://www.w3.org/2000/svg" xmlns:xlink="http://www.w3.org/1999/xlink" width="267" zoomAndPan="magnify" viewBox="0 0 200.25 197.249993" height="263" preserveAspectRatio="xMidYMid meet" version="1.0"><defs><clipPath id="9fe5391c22"><path d="M 29.925781 112.011719 L 101.652344 112.011719 L 101.652344 195.691406 L 29.925781 195.691406 Z M 29.925781 112.011719 " clip-rule="nonzero"/></clipPath><clipPath id="66cae74589"><path d="M 65.941406 112.011719 L 101.953125 132.964844 L 101.953125 174.867188 L 65.941406 195.820312 L 29.925781 174.867188 L 29.925781 132.964844 Z M 65.941406 112.011719 " clip-rule="nonzero"/></clipPath><clipPath id="1d25768a75"><path d="M 96.976562 111.921875 L 168.699219 111.921875 L 168.699219 195.601562 L 96.976562 195.601562 Z M 96.976562 111.921875 " clip-rule="nonzero"/></clipPath><clipPath id="44ae9dbf45"><path d="M 132.988281 111.921875 L 169 132.875 L 169 174.777344 L 132.988281 195.730469 L 96.976562 174.777344 L 96.976562 132.875 Z M 132.988281 111.921875 " clip-rule="nonzero"/></clipPath><clipPath id="f0a66b0c48"><path d="M 63.132812 52.585938 L 134.859375 52.585938 L 134.859375 136.269531 L 63.132812 136.269531 Z M 63.132812 52.585938 " clip-rule="nonzero"/></clipPath><clipPath id="b61b04f136"><path d="M 99.144531 52.585938 L 135.160156 73.539062 L 135.160156 115.445312 L 99.144531 136.394531 L 63.132812 115.445312 L 63.132812 73.539062 Z M 99.144531 52.585938 " clip-rule="nonzero"/></clipPath><clipPath id="427452bf86"><path d="M 36.015625 119.601562 L 94.789062 119.601562 L 94.789062 188 L 36.015625 188 Z M 36.015625 119.601562 " clip-rule="nonzero"/></clipPath><clipPath id="14be25ca1c"><path d="M 65.402344 119.601562 L 94.789062 136.699219 L 94.789062 170.894531 L 65.402344 187.992188 L 36.015625 170.894531 L 36.015625 136.699219 Z M 65.402344 119.601562 " clip-rule="nonzero"/></clipPath><clipPath id="6abd6bd60e"><path d="M 36.015625 0 L 94.789062 0 L 94.789062 68.414062 L 36.015625 68.414062 Z M 36.015625 0 " clip-rule="nonzero"/></clipPath><clipPath id="c8f3656894"><path d="M 65.402344 0 L 94.789062 17.097656 L 94.789062 51.292969 L 65.402344 68.390625 L 36.015625 51.292969 L 36.015625 17.097656 Z M 65.402344 0 " clip-rule="nonzero"/></clipPath><clipPath id="ae6272985c"><path d="M 104.351562 0.746094 L 163.125 0.746094 L 163.125 69.164062 L 104.351562 69.164062 Z M 104.351562 0.746094 " clip-rule="nonzero"/></clipPath><clipPath id="cb8c31548c"><path d="M 133.738281 0.746094 L 163.125 17.84375 L 163.125 52.039062 L 133.738281 69.136719 L 104.351562 52.039062 L 104.351562 17.84375 Z M 133.738281 0.746094 " clip-rule="nonzero"/></clipPath><clipPath id="323b63254d"><path d="M 0.00390625 60.300781 L 58.777344 60.300781 L 58.777344 128.714844 L 0.00390625 128.714844 Z M 0.00390625 60.300781 " clip-rule="nonzero"/></clipPath><clipPath id="6e8abcf349"><path d="M 29.390625 60.300781 L 58.777344 77.398438 L 58.777344 111.59375 L 29.390625 128.691406 L 0.00390625 111.59375 L 0.00390625 77.398438 Z M 29.390625 60.300781 " clip-rule="nonzero"/></clipPath><clipPath id="551cd153e9"><path d="M 140.0625 60.300781 L 198.835938 60.300781 L 198.835938 128.714844 L 140.0625 128.714844 Z M 140.0625 60.300781 " clip-rule="nonzero"/></clipPath><clipPath id="c71c3f405e"><path d="M 169.449219 60.300781 L 198.835938 77.398438 L 198.835938 111.59375 L 169.449219 128.691406 L 140.0625 111.59375 L 140.0625 77.398438 Z M 169.449219 60.300781 " clip-rule="nonzero"/></clipPath></defs><g clip-path="url(#9fe5391c22)"><g clip-path="url(#66cae74589)"><path stroke-linecap="butt" transform="matrix(0.747159, 0, 0, 0.747159, 29.927632, 112.010572)" fill="none" stroke-linejoin="miter" d="M 48.200949 0.00153426 L 96.399147 28.045263 L 96.399147 84.127491 L 48.200949 112.17122 L -0.00247645 84.127491 L -0.00247645 28.045263 Z M 48.200949 0.00153426 " stroke="#000000" stroke-width="12" stroke-opacity="1" stroke-miterlimit="4"/></g></g><g clip-path="url(#1d25768a75)"><g clip-path="url(#44ae9dbf45)"><path stroke-linecap="butt" transform="matrix(0.747159, 0, 0, 0.747159, 96.976931, 111.92138)" fill="none" stroke-linejoin="miter" d="M 48.197704 0.000663104 L 96.395901 28.044392 L 96.395901 84.12662 L 48.197704 112.170349 L -0.000493869 84.12662 L -0.000493869 28.044392 Z M 48.197704 0.000663104 " stroke="#000000" stroke-width="12" stroke-opacity="1" stroke-miterlimit="4"/></g></g><g clip-path="url(#f0a66b0c48)"><g clip-path="url(#b61b04f136)"><path stroke-linecap="butt" transform="matrix(0.747159, 0, 0, 0.747159, 63.134261, 52.585787)" fill="none" stroke-linejoin="miter" d="M 48.196258 0.000201737 L 96.399684 28.04393 L 96.399684 84.131387 L 48.196258 112.169887 L -0.00193931 84.131387 L -0.00193931 28.04393 Z M 48.196258 0.000201737 " stroke="#000000" stroke-width="12" stroke-opacity="1" stroke-miterlimit="4"/></g></g><path stroke-linecap="butt" transform="matrix(0.647059, -0.37358, 0.37358, 0.647059, 130.83135, 73.759212)" fill="none" stroke-linejoin="miter" d="M 0.00198345 2.999338 L 55.420832 2.99968 " stroke="#000000" stroke-width="6" stroke-opacity="1" stroke-miterlimit="4"/><path stroke-linecap="butt" transform="matrix(0.647059, 0.37358, -0.37358, 0.647059, 32.119354, 53.280238)" fill="none" stroke-linejoin="miter" d="M 0.00243587 3.000513 L 54.001761 2.99871 " stroke="#000000" stroke-width="6" stroke-opacity="1" stroke-miterlimit="4"/><g clip-path="url(#427452bf86)"><g clip-path="url(#14be25ca1c)"><path fill="#0264a6" d="M 36.015625 119.601562 L 94.789062 119.601562 L 94.789062 188.015625 L 36.015625 188.015625 Z M 36.015625 119.601562 " fill-opacity="1" fill-rule="nonzero"/></g></g><g clip-path="url(#6abd6bd60e)"><g clip-path="url(#c8f3656894)"><path fill="#b2dffd" d="M 36.015625 0 L 94.789062 0 L 94.789062 68.414062 L 36.015625 68.414062 Z M 36.015625 0 " fill-opacity="1" fill-rule="nonzero"/></g></g><g clip-path="url(#ae6272985c)"><g clip-path="url(#cb8c31548c)"><path fill="#0264a6" d="M 104.351562 0.746094 L 163.125 0.746094 L 163.125 69.164062 L 104.351562 69.164062 Z M 104.351562 0.746094 " fill-opacity="1" fill-rule="nonzero"/></g></g><g clip-path="url(#323b63254d)"><g clip-path="url(#6e8abcf349)"><path fill="#7bbcee" d="M 0.00390625 60.300781 L 58.777344 60.300781 L 58.777344 128.714844 L 0.00390625 128.714844 Z M 0.00390625 60.300781 " fill-opacity="1" fill-rule="nonzero"/></g></g><g clip-path="url(#551cd153e9)"><g clip-path="url(#c71c3f405e)"><path fill="#7cbdef" d="M 140.0625 60.300781 L 198.835938 60.300781 L 198.835938 128.714844 L 140.0625 128.714844 Z M 140.0625 60.300781 " fill-opacity="1" fill-rule="nonzero"/></g></g><path stroke-linecap="butt" transform="matrix(0.00000000130404, -0.747159, 0.747159, 0.00000000130404, 97.467905, 57.48167)" fill="none" stroke-linejoin="miter" d="M 0.00160785 3.002082 L 55.419863 3.002082 " stroke="#000000" stroke-width="6" stroke-opacity="1" stroke-miterlimit="4"/></svg>