<svg xmlns="http://www.w3.org/2000/svg" xmlns:xlink="http://www.w3.org/1999/xlink" width="274" zoomAndPan="magnify" viewBox="0 0 205.5 196.499994" height="262" preserveAspectRatio="xMidYMid meet" version="1.0"><defs><clipPath id="dc770e6f95"><path d="M 69.339844 60.101562 L 134.824219 60.101562 L 134.824219 136.300781 L 69.339844 136.300781 Z M 69.339844 60.101562 " clip-rule="nonzero"/></clipPath><clipPath id="500307e71a"><path d="M 102.082031 60.101562 L 134.824219 79.152344 L 134.824219 117.25 L 102.082031 136.300781 L 69.339844 117.25 L 69.339844 79.152344 Z M 102.082031 60.101562 " clip-rule="nonzero"/></clipPath><clipPath id="d5c35d2d7b"><path d="M 103.394531 0.308594 L 168.878906 0.308594 L 168.878906 76.503906 L 103.394531 76.503906 Z M 103.394531 0.308594 " clip-rule="nonzero"/></clipPath><clipPath id="4d1ca0a090"><path d="M 136.136719 0.308594 L 168.878906 19.359375 L 168.878906 57.457031 L 136.136719 76.503906 L 103.394531 57.457031 L 103.394531 19.359375 Z M 136.136719 0.308594 " clip-rule="nonzero"/></clipPath><clipPath id="4dce9582b4"><path d="M 138.570312 59.792969 L 204.320312 59.792969 L 204.320312 136.332031 L 138.570312 136.332031 Z M 138.570312 59.792969 " clip-rule="nonzero"/></clipPath><clipPath id="ad7a7be045"><path d="M 171.445312 59.792969 L 204.320312 78.921875 L 204.320312 117.175781 L 171.445312 136.304688 L 138.570312 117.175781 L 138.570312 78.921875 Z M 171.445312 59.792969 " clip-rule="nonzero"/></clipPath><clipPath id="433d3b97c3"><path d="M 34.460938 0 L 100.210938 0 L 100.210938 76.539062 L 34.460938 76.539062 Z M 34.460938 0 " clip-rule="nonzero"/></clipPath><clipPath id="7379450b48"><path d="M 67.335938 0 L 100.210938 19.128906 L 100.210938 57.382812 L 67.335938 76.511719 L 34.460938 57.382812 L 34.460938 19.128906 Z M 67.335938 0 " clip-rule="nonzero"/></clipPath><clipPath id="42399d1e3a"><path d="M 0.0117188 59.792969 L 65.761719 59.792969 L 65.761719 136.332031 L 0.0117188 136.332031 Z M 0.0117188 59.792969 " clip-rule="nonzero"/></clipPath><clipPath id="327c2198b9"><path d="M 32.886719 59.792969 L 65.761719 78.921875 L 65.761719 117.175781 L 32.886719 136.304688 L 0.0117188 117.175781 L 0.0117188 78.921875 Z M 32.886719 59.792969 " clip-rule="nonzero"/></clipPath><clipPath id="ee4ea83fdb"><path d="M 34.460938 119.285156 L 100.210938 119.285156 L 100.210938 195.824219 L 34.460938 195.824219 Z M 34.460938 119.285156 " clip-rule="nonzero"/></clipPath><clipPath id="8d4a341dba"><path d="M 67.335938 119.285156 L 100.210938 138.414062 L 100.210938 176.667969 L 67.335938 195.796875 L 34.460938 176.667969 L 34.460938 138.414062 Z M 67.335938 119.285156 " clip-rule="nonzero"/></clipPath><clipPath id="e123b0cbcf"><path d="M 103.277344 119.285156 L 169.027344 119.285156 L 169.027344 195.824219 L 103.277344 195.824219 Z M 103.277344 119.285156 " clip-rule="nonzero"/></clipPath><clipPath id="6447dcd678"><path d="M 136.152344 119.285156 L 169.027344 138.414062 L 169.027344 176.667969 L 136.152344 195.796875 L 103.277344 176.667969 L 103.277344 138.414062 Z M 136.152344 119.285156 " clip-rule="nonzero"/></clipPath></defs><g clip-path="url(#dc770e6f95)"><g clip-path="url(#500307e71a)"><path stroke-linecap="butt" transform="matrix(0.748096, 0, 0, 0.748096, 69.340572, 60.102495)" fill="none" stroke-linejoin="miter" d="M 43.766365 -0.00124674 L 87.533702 25.46443 L 87.533702 76.390563 L 43.766365 101.85624 L -0.000973128 76.390563 L -0.000973128 25.46443 Z M 43.766365 -0.00124674 " stroke="#000000" stroke-width="12" stroke-opacity="1" stroke-miterlimit="4"/></g></g><g clip-path="url(#d5c35d2d7b)"><g clip-path="url(#4d1ca0a090)"><path stroke-linecap="butt" transform="matrix(0.748096, 0, 0, 0.748096, 103.395892, 0.30854)" fill="none" stroke-linejoin="miter" d="M 43.765519 0.0000717431 L 87.532856 25.465749 L 87.532856 76.391882 L 43.765519 101.852337 L -0.00181918 76.391882 L -0.00181918 25.465749 Z M 43.765519 0.0000717431 " stroke="#000000" stroke-width="12" stroke-opacity="1" stroke-miterlimit="4"/></g></g><g clip-path="url(#4dce9582b4)"><g clip-path="url(#ad7a7be045)"><path fill="#0264a6" d="M 138.570312 59.792969 L 204.320312 59.792969 L 204.320312 136.332031 L 138.570312 136.332031 Z M 138.570312 59.792969 " fill-opacity="1" fill-rule="nonzero"/></g></g><g clip-path="url(#433d3b97c3)"><g clip-path="url(#7379450b48)"><path fill="#0264a6" d="M 34.460938 0 L 100.210938 0 L 100.210938 76.539062 L 34.460938 76.539062 Z M 34.460938 0 " fill-opacity="1" fill-rule="nonzero"/></g></g><g clip-path="url(#42399d1e3a)"><g clip-path="url(#327c2198b9)"><path fill="#b1defd" d="M 0.0117188 59.792969 L 65.761719 59.792969 L 65.761719 136.332031 L 0.0117188 136.332031 Z M 0.0117188 59.792969 " fill-opacity="1" fill-rule="nonzero"/></g></g><g clip-path="url(#ee4ea83fdb)"><g clip-path="url(#8d4a341dba)"><path fill="#7abbed" d="M 34.460938 119.285156 L 100.210938 119.285156 L 100.210938 195.824219 L 34.460938 195.824219 Z M 34.460938 119.285156 " fill-opacity="1" fill-rule="nonzero"/></g></g><g clip-path="url(#e123b0cbcf)"><g clip-path="url(#6447dcd678)"><path fill="#b1defd" d="M 103.277344 119.285156 L 169.027344 119.285156 L 169.027344 195.824219 L 103.277344 195.824219 Z M 103.277344 119.285156 " fill-opacity="1" fill-rule="nonzero"/></g></g></svg>