<svg xmlns="http://www.w3.org/2000/svg" xmlns:xlink="http://www.w3.org/1999/xlink" width="212" zoomAndPan="magnify" viewBox="0 0 159 158.249993" height="211" preserveAspectRatio="xMidYMid meet" version="1.0"><defs><g/><clipPath id="a55f75ce7c"><path d="M 1 0 L 158.625 0 L 158.625 157.503906 L 1 157.503906 Z M 1 0 " clip-rule="nonzero"/></clipPath><clipPath id="76d3cce329"><path d="M 0.375 16 L 125 16 L 125 141 L 0.375 141 Z M 0.375 16 " clip-rule="nonzero"/></clipPath><clipPath id="1f98675d93"><path d="M 75.871094 71.132812 L 108.585938 71.132812 L 108.585938 89.785156 L 75.871094 89.785156 Z M 75.871094 71.132812 " clip-rule="nonzero"/></clipPath><clipPath id="04216b0431"><path d="M 75.871094 71.132812 L 100.375 71.132812 L 108.546875 80.460938 L 100.375 89.785156 L 75.871094 89.785156 L 84.039062 80.460938 Z M 75.871094 71.132812 " clip-rule="nonzero"/></clipPath><clipPath id="5d64d36e05"><path d="M 110.367188 71.132812 L 143.078125 71.132812 L 143.078125 89.785156 L 110.367188 89.785156 Z M 110.367188 71.132812 " clip-rule="nonzero"/></clipPath><clipPath id="eb73be8c89"><path d="M 110.367188 71.132812 L 134.871094 71.132812 L 143.039062 80.460938 L 134.871094 89.785156 L 110.367188 89.785156 L 118.535156 80.460938 Z M 110.367188 71.132812 " clip-rule="nonzero"/></clipPath><clipPath id="5a03ae3606"><path d="M 36.132812 48.328125 L 72.710938 48.328125 L 72.710938 84.90625 L 36.132812 84.90625 Z M 36.132812 48.328125 " clip-rule="nonzero"/></clipPath><clipPath id="c749c11e43"><path d="M 62.117188 48.328125 L 72.882812 59.097656 L 72.882812 74.3125 L 62.117188 85.082031 L 46.898438 85.082031 L 36.132812 74.3125 L 36.132812 59.097656 L 46.898438 48.328125 Z M 62.117188 48.328125 " clip-rule="nonzero"/></clipPath><clipPath id="e5699d1a00"><path d="M 14.378906 52.816406 L 38.242188 52.816406 L 38.242188 80.433594 L 14.378906 80.433594 Z M 14.378906 52.816406 " clip-rule="nonzero"/></clipPath><clipPath id="934fb050a1"><path d="M 26.3125 52.816406 L 38.242188 59.757812 L 38.242188 73.640625 L 26.3125 80.585938 L 14.378906 73.640625 L 14.378906 59.757812 Z M 26.3125 52.816406 " clip-rule="nonzero"/></clipPath><clipPath id="024b5fe72f"><path d="M 0.375 60 L 29 60 L 29 92 L 0.375 92 Z M 0.375 60 " clip-rule="nonzero"/></clipPath><clipPath id="a6ee26b3f7"><path d="M 23 91 L 52 91 L 52 118 L 23 118 Z M 23 91 " clip-rule="nonzero"/></clipPath><clipPath id="038a119ebd"><path d="M 31.839844 87.023438 L 53.90625 96.167969 L 43.332031 121.683594 L 21.265625 112.539062 Z M 31.839844 87.023438 " clip-rule="nonzero"/></clipPath><clipPath id="64312184dd"><path d="M 31.839844 87.023438 L 53.882812 96.160156 L 43.253906 121.8125 L 21.207031 112.675781 Z M 31.839844 87.023438 " clip-rule="nonzero"/></clipPath><clipPath id="95ec402408"><path d="M 42.859375 91.589844 L 51.226562 102.570312 L 45.910156 115.398438 L 32.230469 117.242188 L 23.867188 106.261719 L 29.179688 93.4375 Z M 42.859375 91.589844 " clip-rule="nonzero"/></clipPath></defs><path fill="#0065a6" d="M 157.375 78.695312 C 157.375 79.964844 157.34375 81.230469 157.28125 82.5 C 157.21875 83.769531 157.125 85.03125 157 86.296875 C 156.875 87.558594 156.722656 88.820312 156.535156 90.074219 C 156.347656 91.328125 156.132812 92.578125 155.882812 93.824219 C 155.636719 95.070312 155.359375 96.308594 155.050781 97.539062 C 154.742188 98.769531 154.402344 99.992188 154.035156 101.207031 C 153.667969 102.421875 153.269531 103.625 152.839844 104.820312 C 152.414062 106.015625 151.957031 107.199219 151.472656 108.371094 C 150.984375 109.546875 150.472656 110.707031 149.929688 111.851562 C 149.386719 113 148.816406 114.132812 148.21875 115.253906 C 147.617188 116.371094 146.992188 117.476562 146.339844 118.566406 C 145.6875 119.652344 145.007812 120.726562 144.304688 121.78125 C 143.597656 122.835938 142.867188 123.875 142.113281 124.894531 C 141.355469 125.910156 140.574219 126.914062 139.769531 127.894531 C 138.964844 128.875 138.136719 129.835938 137.285156 130.777344 C 136.433594 131.714844 135.558594 132.636719 134.660156 133.53125 C 133.761719 134.429688 132.84375 135.304688 131.902344 136.15625 C 130.960938 137.007812 130 137.839844 129.019531 138.644531 C 128.039062 139.449219 127.039062 140.230469 126.019531 140.984375 C 125 141.742188 123.964844 142.472656 122.90625 143.175781 C 121.851562 143.882812 120.78125 144.5625 119.691406 145.214844 C 118.601562 145.867188 117.5 146.492188 116.378906 147.089844 C 115.261719 147.6875 114.128906 148.257812 112.980469 148.800781 C 111.832031 149.34375 110.671875 149.859375 109.5 150.34375 C 108.328125 150.828125 107.144531 151.285156 105.949219 151.714844 C 104.753906 152.140625 103.546875 152.539062 102.335938 152.90625 C 101.121094 153.277344 99.898438 153.613281 98.664062 153.921875 C 97.433594 154.230469 96.195312 154.507812 94.953125 154.757812 C 93.707031 155.003906 92.457031 155.222656 91.203125 155.40625 C 89.945312 155.59375 88.6875 155.75 87.421875 155.875 C 86.160156 156 84.894531 156.089844 83.628906 156.152344 C 82.359375 156.214844 81.089844 156.246094 79.820312 156.246094 C 78.550781 156.246094 77.285156 156.214844 76.015625 156.152344 C 74.75 156.089844 73.484375 156 72.21875 155.875 C 70.957031 155.75 69.699219 155.59375 68.441406 155.40625 C 67.1875 155.222656 65.9375 155.003906 64.691406 154.757812 C 63.449219 154.507812 62.210938 154.230469 60.976562 153.921875 C 59.746094 153.613281 58.523438 153.277344 57.308594 152.90625 C 56.09375 152.539062 54.890625 152.140625 53.695312 151.714844 C 52.5 151.285156 51.316406 150.828125 50.144531 150.34375 C 48.972656 149.859375 47.8125 149.34375 46.664062 148.800781 C 45.515625 148.257812 44.382812 147.6875 43.265625 147.089844 C 42.144531 146.492188 41.039062 145.867188 39.953125 145.214844 C 38.863281 144.5625 37.792969 143.882812 36.734375 143.175781 C 35.679688 142.472656 34.644531 141.742188 33.625 140.984375 C 32.605469 140.230469 31.605469 139.449219 30.625 138.644531 C 29.640625 137.839844 28.679688 137.007812 27.742188 136.15625 C 26.800781 135.304688 25.882812 134.429688 24.984375 133.53125 C 24.085938 132.636719 23.210938 131.714844 22.359375 130.777344 C 21.507812 129.835938 20.679688 128.875 19.871094 127.894531 C 19.066406 126.914062 18.289062 125.910156 17.53125 124.894531 C 16.773438 123.875 16.042969 122.835938 15.339844 121.78125 C 14.632812 120.726562 13.957031 119.652344 13.304688 118.566406 C 12.648438 117.476562 12.023438 116.371094 11.425781 115.253906 C 10.828125 114.132812 10.257812 113 9.714844 111.851562 C 9.171875 110.707031 8.660156 109.546875 8.171875 108.371094 C 7.6875 107.199219 7.230469 106.015625 6.800781 104.820312 C 6.375 103.625 5.976562 102.421875 5.609375 101.207031 C 5.242188 99.992188 4.902344 98.769531 4.59375 97.539062 C 4.285156 96.308594 4.007812 95.070312 3.757812 93.824219 C 3.511719 92.578125 3.296875 91.328125 3.109375 90.074219 C 2.921875 88.820312 2.765625 87.558594 2.644531 86.296875 C 2.519531 85.03125 2.425781 83.769531 2.363281 82.5 C 2.300781 81.230469 2.269531 79.964844 2.269531 78.695312 C 2.269531 77.425781 2.300781 76.15625 2.363281 74.890625 C 2.425781 73.621094 2.519531 72.355469 2.644531 71.09375 C 2.765625 69.828125 2.921875 68.570312 3.109375 67.316406 C 3.296875 66.058594 3.511719 64.808594 3.757812 63.566406 C 4.007812 62.320312 4.285156 61.082031 4.59375 59.851562 C 4.902344 58.621094 5.242188 57.398438 5.609375 56.183594 C 5.976562 54.96875 6.375 53.761719 6.800781 52.566406 C 7.230469 51.371094 7.6875 50.1875 8.171875 49.015625 C 8.660156 47.84375 9.171875 46.683594 9.714844 45.535156 C 10.257812 44.390625 10.828125 43.257812 11.425781 42.136719 C 12.023438 41.015625 12.648438 39.914062 13.304688 38.824219 C 13.957031 37.734375 14.632812 36.664062 15.339844 35.609375 C 16.042969 34.554688 16.773438 33.515625 17.53125 32.496094 C 18.289062 31.476562 19.066406 30.476562 19.871094 29.496094 C 20.679688 28.515625 21.507812 27.554688 22.359375 26.613281 C 23.210938 25.671875 24.085938 24.753906 24.984375 23.855469 C 25.882812 22.960938 26.800781 22.085938 27.742188 21.230469 C 28.679688 20.378906 29.640625 19.550781 30.625 18.746094 C 31.605469 17.941406 32.605469 17.160156 33.625 16.402344 C 34.644531 15.648438 35.679688 14.917969 36.734375 14.210938 C 37.792969 13.507812 38.863281 12.828125 39.953125 12.175781 C 41.039062 11.523438 42.144531 10.898438 43.265625 10.300781 C 44.382812 9.699219 45.515625 9.128906 46.664062 8.589844 C 47.8125 8.046875 48.972656 7.53125 50.144531 7.046875 C 51.316406 6.558594 52.5 6.101562 53.695312 5.675781 C 54.890625 5.246094 56.09375 4.851562 57.308594 4.480469 C 58.523438 4.113281 59.746094 3.773438 60.976562 3.464844 C 62.210938 3.15625 63.449219 2.878906 64.691406 2.632812 C 65.9375 2.382812 67.1875 2.167969 68.441406 1.980469 C 69.699219 1.796875 70.957031 1.640625 72.21875 1.515625 C 73.484375 1.390625 74.75 1.296875 76.015625 1.234375 C 77.285156 1.171875 78.550781 1.140625 79.820312 1.140625 C 81.089844 1.140625 82.359375 1.171875 83.628906 1.234375 C 84.894531 1.296875 86.160156 1.390625 87.421875 1.515625 C 88.6875 1.640625 89.945312 1.796875 91.203125 1.980469 C 92.457031 2.167969 93.707031 2.382812 94.953125 2.632812 C 96.195312 2.878906 97.433594 3.15625 98.664062 3.464844 C 99.898438 3.773438 101.121094 4.113281 102.335938 4.480469 C 103.546875 4.851562 104.753906 5.246094 105.949219 5.675781 C 107.144531 6.101562 108.328125 6.558594 109.5 7.046875 C 110.671875 7.53125 111.832031 8.046875 112.980469 8.589844 C 114.128906 9.128906 115.261719 9.699219 116.378906 10.300781 C 117.5 10.898438 118.601562 11.523438 119.691406 12.175781 C 120.78125 12.828125 121.851562 13.507812 122.90625 14.210938 C 123.964844 14.917969 125 15.648438 126.019531 16.402344 C 127.039062 17.160156 128.039062 17.941406 129.019531 18.746094 C 130 19.550781 130.960938 20.378906 131.902344 21.230469 C 132.84375 22.085938 133.761719 22.960938 134.660156 23.855469 C 135.558594 24.753906 136.433594 25.671875 137.285156 26.613281 C 138.136719 27.554688 138.964844 28.515625 139.769531 29.496094 C 140.574219 30.476562 141.355469 31.476562 142.113281 32.496094 C 142.867188 33.515625 143.597656 34.554688 144.304688 35.609375 C 145.007812 36.664062 145.6875 37.734375 146.339844 38.824219 C 146.992188 39.914062 147.617188 41.015625 148.21875 42.136719 C 148.816406 43.257812 149.386719 44.390625 149.929688 45.535156 C 150.472656 46.683594 150.984375 47.84375 151.472656 49.015625 C 151.957031 50.1875 152.414062 51.371094 152.839844 52.566406 C 153.269531 53.761719 153.667969 54.96875 154.035156 56.183594 C 154.402344 57.398438 154.742188 58.621094 155.050781 59.851562 C 155.359375 61.082031 155.636719 62.320312 155.882812 63.566406 C 156.132812 64.808594 156.347656 66.058594 156.535156 67.316406 C 156.722656 68.570312 156.875 69.828125 157 71.09375 C 157.125 72.355469 157.21875 73.621094 157.28125 74.890625 C 157.34375 76.15625 157.375 77.425781 157.375 78.695312 Z M 157.375 78.695312 " fill-opacity="1" fill-rule="nonzero"/><g clip-path="url(#a55f75ce7c)"><path fill="#f9f5f2" d="M 79.820312 0 C 36.390625 0 1.128906 35.261719 1.128906 78.695312 C 1.128906 122.128906 36.390625 157.390625 79.820312 157.390625 C 123.253906 157.390625 158.515625 122.128906 158.515625 78.695312 C 158.515625 35.261719 123.253906 0 79.820312 0 Z M 79.820312 2.285156 C 121.996094 2.285156 156.234375 36.523438 156.234375 78.695312 C 156.234375 120.867188 121.996094 155.105469 79.820312 155.105469 C 37.648438 155.105469 3.410156 120.867188 3.410156 78.695312 C 3.410156 36.523438 37.648438 2.285156 79.820312 2.285156 Z M 79.820312 2.285156 " fill-opacity="1" fill-rule="evenodd"/></g><path fill="#79baec" d="M 122.957031 78.695312 C 122.957031 80.683594 122.859375 82.667969 122.667969 84.644531 C 122.472656 86.625 122.179688 88.589844 121.792969 90.539062 C 121.40625 92.488281 120.921875 94.414062 120.34375 96.316406 C 119.769531 98.21875 119.097656 100.089844 118.339844 101.925781 C 117.578125 103.761719 116.726562 105.558594 115.792969 107.308594 C 114.855469 109.0625 113.832031 110.765625 112.730469 112.417969 C 111.625 114.074219 110.441406 115.667969 109.179688 117.203125 C 107.917969 118.742188 106.585938 120.210938 105.179688 121.617188 C 103.773438 123.023438 102.304688 124.355469 100.765625 125.617188 C 99.230469 126.878906 97.636719 128.0625 95.980469 129.167969 C 94.328125 130.269531 92.625 131.292969 90.871094 132.230469 C 89.121094 133.167969 87.324219 134.015625 85.488281 134.777344 C 83.652344 135.535156 81.78125 136.207031 79.878906 136.78125 C 77.976562 137.359375 76.050781 137.84375 74.101562 138.230469 C 72.152344 138.617188 70.1875 138.910156 68.207031 139.105469 C 66.230469 139.300781 64.246094 139.394531 62.257812 139.394531 C 60.269531 139.394531 58.289062 139.300781 56.308594 139.105469 C 54.332031 138.910156 52.367188 138.617188 50.417969 138.230469 C 48.46875 137.84375 46.539062 137.359375 44.636719 136.78125 C 42.734375 136.207031 40.867188 135.535156 39.03125 134.777344 C 37.191406 134.015625 35.398438 133.167969 33.644531 132.230469 C 31.890625 131.292969 30.1875 130.269531 28.535156 129.167969 C 26.882812 128.0625 25.289062 126.878906 23.75 125.617188 C 22.214844 124.355469 20.742188 123.023438 19.335938 121.617188 C 17.929688 120.210938 16.597656 118.742188 15.335938 117.203125 C 14.074219 115.667969 12.894531 114.074219 11.789062 112.417969 C 10.683594 110.765625 9.664062 109.0625 8.726562 107.308594 C 7.789062 105.558594 6.941406 103.761719 6.179688 101.925781 C 5.417969 100.089844 4.75 98.21875 4.171875 96.316406 C 3.59375 94.414062 3.113281 92.488281 2.726562 90.539062 C 2.335938 88.589844 2.046875 86.625 1.851562 84.644531 C 1.65625 82.667969 1.558594 80.683594 1.558594 78.695312 C 1.558594 76.707031 1.65625 74.726562 1.851562 72.746094 C 2.046875 70.769531 2.335938 68.804688 2.726562 66.855469 C 3.113281 64.90625 3.59375 62.976562 4.171875 61.074219 C 4.75 59.171875 5.417969 57.304688 6.179688 55.46875 C 6.941406 53.628906 7.789062 51.835938 8.726562 50.082031 C 9.664062 48.328125 10.683594 46.625 11.789062 44.972656 C 12.894531 43.320312 14.074219 41.726562 15.335938 40.1875 C 16.597656 38.652344 17.929688 37.179688 19.335938 35.773438 C 20.742188 34.371094 22.214844 33.035156 23.75 31.773438 C 25.289062 30.511719 26.882812 29.332031 28.535156 28.226562 C 30.1875 27.121094 31.890625 26.101562 33.644531 25.164062 C 35.398438 24.226562 37.191406 23.378906 39.03125 22.617188 C 40.867188 21.855469 42.734375 21.1875 44.636719 20.609375 C 46.539062 20.03125 48.46875 19.550781 50.417969 19.164062 C 52.367188 18.773438 54.332031 18.484375 56.308594 18.289062 C 58.289062 18.09375 60.269531 17.996094 62.257812 17.996094 C 64.246094 17.996094 66.230469 18.09375 68.207031 18.289062 C 70.1875 18.484375 72.152344 18.773438 74.101562 19.164062 C 76.050781 19.550781 77.976562 20.03125 79.878906 20.609375 C 81.78125 21.1875 83.652344 21.855469 85.488281 22.617188 C 87.324219 23.378906 89.121094 24.226562 90.871094 25.164062 C 92.625 26.101562 94.328125 27.121094 95.980469 28.226562 C 97.636719 29.332031 99.230469 30.511719 100.765625 31.773438 C 102.304688 33.035156 103.773438 34.371094 105.179688 35.773438 C 106.585938 37.179688 107.917969 38.652344 109.179688 40.1875 C 110.441406 41.726562 111.625 43.320312 112.730469 44.972656 C 113.832031 46.625 114.855469 48.328125 115.792969 50.082031 C 116.726562 51.835938 117.578125 53.628906 118.339844 55.46875 C 119.097656 57.304688 119.769531 59.171875 120.34375 61.074219 C 120.921875 62.976562 121.40625 64.90625 121.792969 66.855469 C 122.179688 68.804688 122.472656 70.769531 122.667969 72.746094 C 122.859375 74.726562 122.957031 76.707031 122.957031 78.695312 Z M 122.957031 78.695312 " fill-opacity="1" fill-rule="nonzero"/><g clip-path="url(#76d3cce329)"><path fill="#f9f5f2" d="M 62.257812 16.855469 C 28.128906 16.855469 0.417969 44.566406 0.417969 78.695312 C 0.417969 112.828125 28.128906 140.539062 62.257812 140.539062 C 96.390625 140.539062 124.101562 112.828125 124.101562 78.695312 C 124.101562 44.566406 96.390625 16.855469 62.257812 16.855469 Z M 62.257812 19.136719 C 95.128906 19.136719 121.816406 45.824219 121.816406 78.695312 C 121.816406 111.566406 95.128906 138.253906 62.257812 138.253906 C 29.386719 138.253906 2.699219 111.566406 2.699219 78.695312 C 2.699219 45.824219 29.386719 19.136719 62.257812 19.136719 Z M 62.257812 19.136719 " fill-opacity="1" fill-rule="evenodd"/></g><path fill="#aedafd" d="M 87.285156 79.230469 C 87.285156 80.625 87.214844 82.015625 87.078125 83.402344 C 86.941406 84.789062 86.738281 86.164062 86.464844 87.53125 C 86.195312 88.898438 85.855469 90.25 85.453125 91.582031 C 85.046875 92.914062 84.578125 94.226562 84.046875 95.511719 C 83.511719 96.800781 82.917969 98.058594 82.261719 99.289062 C 81.601562 100.515625 80.886719 101.710938 80.113281 102.867188 C 79.339844 104.027344 78.511719 105.144531 77.625 106.222656 C 76.742188 107.300781 75.808594 108.332031 74.824219 109.316406 C 73.835938 110.300781 72.804688 111.234375 71.730469 112.121094 C 70.652344 113.003906 69.535156 113.832031 68.375 114.605469 C 67.21875 115.378906 66.023438 116.097656 64.792969 116.753906 C 63.566406 117.410156 62.308594 118.003906 61.019531 118.539062 C 59.734375 119.070312 58.421875 119.539062 57.089844 119.945312 C 55.757812 120.347656 54.40625 120.6875 53.039062 120.960938 C 51.671875 121.230469 50.296875 121.433594 48.910156 121.570312 C 47.523438 121.707031 46.132812 121.777344 44.738281 121.777344 C 43.347656 121.777344 41.957031 121.707031 40.570312 121.570312 C 39.183594 121.433594 37.804688 121.230469 36.4375 120.960938 C 35.074219 120.6875 33.722656 120.347656 32.390625 119.945312 C 31.054688 119.539062 29.746094 119.070312 28.457031 118.539062 C 27.171875 118.003906 25.914062 117.410156 24.683594 116.753906 C 23.457031 116.097656 22.261719 115.378906 21.101562 114.605469 C 19.945312 113.832031 18.828125 113.003906 17.75 112.121094 C 16.671875 111.234375 15.640625 110.300781 14.65625 109.316406 C 13.671875 108.332031 12.734375 107.300781 11.851562 106.222656 C 10.96875 105.144531 10.140625 104.027344 9.363281 102.867188 C 8.589844 101.710938 7.875 100.515625 7.21875 99.289062 C 6.5625 98.058594 5.964844 96.800781 5.433594 95.511719 C 4.898438 94.226562 4.429688 92.914062 4.027344 91.582031 C 3.621094 90.25 3.285156 88.898438 3.011719 87.53125 C 2.742188 86.164062 2.535156 84.789062 2.398438 83.402344 C 2.261719 82.015625 2.195312 80.625 2.195312 79.230469 C 2.195312 77.839844 2.261719 76.449219 2.398438 75.0625 C 2.535156 73.675781 2.742188 72.296875 3.011719 70.933594 C 3.285156 69.566406 3.621094 68.214844 4.027344 66.882812 C 4.429688 65.546875 4.898438 64.238281 5.433594 62.949219 C 5.964844 61.664062 6.5625 60.40625 7.21875 59.175781 C 7.875 57.949219 8.589844 56.753906 9.363281 55.59375 C 10.140625 54.4375 10.96875 53.320312 11.851562 52.242188 C 12.734375 51.164062 13.671875 50.132812 14.65625 49.148438 C 15.640625 48.164062 16.671875 47.226562 17.75 46.34375 C 18.828125 45.460938 19.945312 44.632812 21.101562 43.859375 C 22.261719 43.082031 23.457031 42.367188 24.683594 41.710938 C 25.914062 41.054688 27.171875 40.460938 28.457031 39.925781 C 29.746094 39.394531 31.054688 38.921875 32.390625 38.519531 C 33.722656 38.113281 35.074219 37.777344 36.4375 37.503906 C 37.804688 37.234375 39.183594 37.027344 40.570312 36.890625 C 41.957031 36.753906 43.347656 36.6875 44.738281 36.6875 C 46.132812 36.6875 47.523438 36.753906 48.910156 36.890625 C 50.296875 37.027344 51.671875 37.234375 53.039062 37.503906 C 54.40625 37.777344 55.757812 38.113281 57.089844 38.519531 C 58.421875 38.921875 59.734375 39.394531 61.019531 39.925781 C 62.308594 40.460938 63.566406 41.054688 64.792969 41.710938 C 66.023438 42.367188 67.21875 43.082031 68.375 43.859375 C 69.535156 44.632812 70.652344 45.460938 71.730469 46.34375 C 72.804688 47.226562 73.835938 48.164062 74.824219 49.148438 C 75.808594 50.132812 76.742188 51.164062 77.625 52.242188 C 78.511719 53.320312 79.339844 54.4375 80.113281 55.59375 C 80.886719 56.753906 81.601562 57.949219 82.261719 59.175781 C 82.917969 60.40625 83.511719 61.664062 84.046875 62.949219 C 84.578125 64.238281 85.046875 65.546875 85.453125 66.882812 C 85.855469 68.214844 86.195312 69.566406 86.464844 70.933594 C 86.738281 72.296875 86.941406 73.675781 87.078125 75.0625 C 87.214844 76.449219 87.285156 77.839844 87.285156 79.230469 Z M 87.285156 79.230469 " fill-opacity="1" fill-rule="nonzero"/><path fill="#f9f5f2" d="M 44.738281 35.546875 C 20.628906 35.546875 1.054688 55.121094 1.054688 79.230469 C 1.054688 103.34375 20.628906 122.917969 44.738281 122.917969 C 68.851562 122.917969 88.425781 103.34375 88.425781 79.230469 C 88.425781 55.121094 68.851562 35.546875 44.738281 35.546875 Z M 44.738281 37.828125 C 67.589844 37.828125 86.140625 56.382812 86.140625 79.230469 C 86.140625 102.082031 67.589844 120.632812 44.738281 120.632812 C 21.886719 120.632812 3.335938 102.082031 3.335938 79.230469 C 3.335938 56.382812 21.886719 37.828125 44.738281 37.828125 Z M 44.738281 37.828125 " fill-opacity="1" fill-rule="evenodd"/><g clip-path="url(#1f98675d93)"><g clip-path="url(#04216b0431)"><path fill="#ffffff" d="M 75.871094 71.132812 L 108.511719 71.132812 L 108.511719 89.785156 L 75.871094 89.785156 Z M 75.871094 71.132812 " fill-opacity="1" fill-rule="nonzero"/></g></g><g clip-path="url(#5d64d36e05)"><g clip-path="url(#eb73be8c89)"><path fill="#ffffff" d="M 110.367188 71.132812 L 143.003906 71.132812 L 143.003906 89.785156 L 110.367188 89.785156 Z M 110.367188 71.132812 " fill-opacity="1" fill-rule="nonzero"/></g></g><g clip-path="url(#5a03ae3606)"><g clip-path="url(#c749c11e43)"><path stroke-linecap="butt" transform="matrix(0.746462, 0, 0, 0.746462, 36.133003, 48.328961)" fill="none" stroke-linejoin="miter" d="M 34.809779 -0.00112014 L 49.231976 14.42631 L 49.231976 34.808914 L 34.809779 49.236344 L 14.421942 49.236344 L -0.000255353 34.808914 L -0.000255353 14.42631 L 14.421942 -0.00112014 Z M 34.809779 -0.00112014 " stroke="#000000" stroke-width="6" stroke-opacity="1" stroke-miterlimit="4"/></g></g><g fill="#ffffff" fill-opacity="1"><g transform="translate(51.085574, 71.469289)"><g/></g></g><g fill="#ffffff" fill-opacity="1"><g transform="translate(54.499121, 71.469289)"><g/></g></g><g clip-path="url(#e5699d1a00)"><g clip-path="url(#934fb050a1)"><path stroke-linecap="butt" transform="matrix(0.746462, 0, 0, 0.746462, 14.379227, 52.816178)" fill="none" stroke-linejoin="miter" d="M 15.98644 0.000305328 L 31.968077 9.299378 L 31.968077 27.897523 L 15.98644 37.201829 L -0.000429158 27.897523 L -0.000429158 9.299378 Z M 15.98644 0.000305328 " stroke="#000000" stroke-width="6" stroke-opacity="1" stroke-miterlimit="4"/></g></g><path stroke-linecap="butt" transform="matrix(-0.373231, 0.646455, -0.646455, -0.373231, 48.615547, 84.34979)" fill="none" stroke-linejoin="miter" d="M -0.00012869 1.502136 L 12.964624 1.497633 " stroke="#000000" stroke-width="3" stroke-opacity="1" stroke-miterlimit="4"/><g clip-path="url(#024b5fe72f)"><path stroke-linecap="butt" transform="matrix(-0.646455, 0.373231, -0.373231, -0.646455, 16.470553, 73.846746)" fill="none" stroke-linejoin="miter" d="M 0.001872 1.49823 L 15.601905 1.501486 " stroke="#000000" stroke-width="3" stroke-opacity="1" stroke-miterlimit="4"/></g><path stroke-linecap="butt" transform="matrix(0.193199, 0.721027, -0.721027, 0.193199, 46.038767, 37.704321)" fill="none" stroke-linejoin="miter" d="M -0.00256744 1.499582 L 16.282178 1.501884 " stroke="#000000" stroke-width="3" stroke-opacity="1" stroke-miterlimit="4"/><g clip-path="url(#a6ee26b3f7)"><g clip-path="url(#038a119ebd)"><g clip-path="url(#64312184dd)"><g clip-path="url(#95ec402408)"><path stroke-linecap="butt" transform="matrix(0.689599, 0.28576, -0.28576, 0.689599, 31.838156, 87.023304)" fill="none" stroke-linejoin="miter" d="M 15.98181 -0.000616547 L 31.968335 9.297766 L 31.967577 27.900371 L 15.983125 37.197756 L 0.00143426 27.897371 L -0.000638687 9.301603 Z M 15.98181 -0.000616547 " stroke="#000000" stroke-width="6" stroke-opacity="1" stroke-miterlimit="4"/></g></g></g></g></svg>